<?xml version="1.0" encoding="utf-8"?>
<!-- Svg Vector Icons : http://www.onlinewebfonts.com/icon -->
<!DOCTYPE svg PUBLIC "-//W3C//DTD SVG 1.1//EN" "http://www.w3.org/Graphics/SVG/1.1/DTD/svg11.dtd">
<svg version="1.1" xmlns="http://www.w3.org/2000/svg" xmlns:xlink="http://www.w3.org/1999/xlink" x="0px" y="0px" viewBox="0 0 1000 1000" enable-background="new 0 0 1000 1000" xml:space="preserve">
<metadata> Svg Vector Icons : http://www.onlinewebfonts.com/icon </metadata>
<g><g transform="translate(0.000000,512.000000) scale(0.100000,-0.100000)"><path d="M4563.1,5003.1c-252.9-23-509.6-69-800.8-141.8c-335.3-86.2-570.9-174.3-917.7-344.8c-536.4-262.5-862.1-496.2-1302.8-938.7c-442.6-440.6-676.3-766.3-938.7-1302.7C304.2,1667.7,160.5,1125.5,110.7,430.1c-46-641.8,57.5-1377.5,281.6-1988.6c101.5-279.7,350.6-772.1,515.4-1019.2c641.8-965.6,1626.5-1693.6,2716.6-2005.8c1557.5-450.2,3193.7-120.7,4460,896.6c396.6,318,833.4,816.2,1097.8,1249.1c883.2,1452.2,956,3245.4,193.5,4762.7c-373.6,745.2-971.3,1417.7-1678.3,1887.1c-247.1,164.8-739.5,413.8-1019.2,515.4C6030.6,4964.8,5258.5,5064.4,4563.1,5003.1z M5471.2,4926.5c1415.8-139.8,2693.6-894.7,3509.8-2074.8c846.8-1222.3,1074.8-2816.2,607.3-4235.9c-480.9-1463.7-1622.7-2603.6-3084.5-3084.5c-603.5-199.2-1310.4-279.7-1936.9-222.2C2074.4-4460.9,172-2378.5,172,119.7c0,2128.5,1392.8,4006,3431.2,4624.8c251,74.7,653.3,157.1,898.5,182C4741.2,4949.5,5229.8,4951.4,5471.2,4926.5z"/><path d="M4762.3,2811.4c-335.3-86.2-628.4-360.2-749.1-701.2c-15.3-40.2-47.9-226.1-76.6-413.8c-57.5-396.6-59.4-404.2-90-373.6c-15.3,15.3-118.8,23-319.9,23c-331.4,0-396.6-19.2-438.7-126.4c-11.5-30.7-69-486.6-128.4-1013.5c-59.4-526.8-149.4-1323.8-201.2-1770.2c-101.5-881.3-101.5-879.4,0-969.4c42.2-38.3,69-38.3,2241.5-38.3c2172.5,0,2199.3,0,2241.5,38.3c103.5,91.9,109.2,5.7-113,1944.5c-113,998.1-214.6,1810.4-228,1833.4c-47.9,86.2-115,101.5-431.1,101.5c-197.3,0-300.8-7.7-316.1-23c-30.7-30.6-32.6-23-90,373.6c-28.7,187.8-63.2,377.4-78.5,419.6c-111.1,318-356.3,563.2-661,668.6C5166.5,2838.3,4915.6,2849.8,4762.3,2811.4z M5250.8,2732.9c162.8-49.8,283.5-118.8,406.2-235.6c201.2-191.6,262.5-335.3,329.5-774c26.8-170.5,51.7-341,59.4-377.4c11.5-65.1,9.6-65.1-24.9-32.6c-34.5,30.7-115,32.6-1021.1,32.6c-906.2,0-986.6-1.9-1021.1-32.6c-34.5-32.6-36.4-32.6-24.9,32.6c7.7,36.4,32.6,206.9,59.4,377.4c67.1,438.7,128.4,582.4,329.5,774c187.7,180.1,394.6,264.4,649.5,264.4C5080.3,2763.6,5189.5,2750.1,5250.8,2732.9z M3821.6,1246.2c38.3-30.6,42.2-42.1,26.8-134.1c-9.6-55.6-23-128.4-26.8-160.9c-9.6-51.7-21.1-63.2-76.6-72.8c-95.8-19.2-195.4-113-222.2-208.8c-67.1-252.9,189.7-461.7,423.4-342.9c99.6,49.8,153.3,141.8,153.3,262.5c0,136-65.1,226.1-206.9,289.3c-3.8,1.9,3.8,76.6,17.2,168.6c15.3,103.5,32.6,164.8,46,164.8s44.1,17.2,69,36.4c46,34.5,90,36.4,965.6,34.5c877.4-3.8,923.4-5.8,998.1-42.2l80.5-38.3l21.1-160.9c13.4-88.1,21.1-160.9,17.2-162.8c-141.8-63.2-206.9-153.3-206.9-289.3c0-285.5,337.2-404.2,523-183.9c136,160.9,40.2,433-168.6,473.2c-36.4,5.7-67.1,13.4-67.1,15.3c0,0-11.5,72.8-26.8,160.9c-24.9,157.1-24.9,159,19.2,193.5c40.2,30.7,76.6,34.5,308.5,30.7c287.4-3.8,316.1-9.6,348.7-72.8c15.3-32.6,423.4-3486.8,423.4-3596c0-11.5-21.1-42.2-47.9-67.1l-46-47.9H4999.9H2833.1l-46,47.9c-26.8,24.9-47.9,55.5-47.9,67.1c0,113,408.1,3565.3,425.3,3597.9c32.6,61.3,109.2,76.6,377.4,74.7C3735.4,1280.7,3787.2,1273.1,3821.6,1246.2z M3785.2,713.6c-11.5-86.2-9.6-95.8,24.9-95.8c28.7,0,38.3,19.2,47.9,86.2c15.3,101.5,40.2,107.3,115,30.7c93.9-99.6,69-277.8-49.8-339.1c-69-36.4-187.7-34.5-241.4,3.8c-53.7,36.4-99.6,124.5-99.6,189.7c0,70.9,49.8,157.1,111.1,189.7C3785.2,830.5,3798.7,820.9,3785.2,713.6z M6189.6,617.8c30.7,0,32.6,11.5,23,95.8c-11.5,107.3-1.9,115,90,67.1c103.5-53.6,143.7-187.7,86.2-296.9c-40.2-76.6-101.5-114.9-187.7-114.9c-101.5,0-174.4,44.1-214.6,126.4c-46,97.7-24.9,180.1,63.2,258.6l70.9,63.2l17.2-99.6C6151.3,640.8,6162.8,617.8,6189.6,617.8z"/><path d="M4386.8,1211.7c0-11.5,216.5-19.2,613.1-19.2s613.1,7.7,613.1,19.2s-216.5,19.2-613.1,19.2S4386.8,1223.2,4386.8,1211.7z"/><path d="M5651.2,1211.7c0-9.6,9.6-19.2,19.2-19.2c11.5,0,19.2,9.6,19.2,19.2c0,11.5-7.7,19.2-19.2,19.2C5660.8,1230.9,5651.2,1223.2,5651.2,1211.7z"/><path d="M3428.9,550.8c0-47.9,55.6-168.6,101.5-218.4c74.7-80.5,281.6-153.3,281.6-97.7c0,11.5-23,19.2-51.7,19.2c-124.5,1.9-291.2,162.8-293.1,283.5c0,23-7.7,42.2-19.2,42.2C3438.5,579.5,3428.9,566.1,3428.9,550.8z"/><path d="M3850.4,234.7c0-9.6,9.6-19.2,19.2-19.2c11.5,0,19.2,9.6,19.2,19.2c0,11.5-7.7,19.2-19.2,19.2C3860,253.8,3850.4,246.2,3850.4,234.7z"/><path d="M2892.5-1508.7c0-9.6,9.6-19.2,19.2-19.2c11.5,0,19.2,9.6,19.2,19.2c0,11.5-7.7,19.2-19.2,19.2C2902.1-1489.5,2892.5-1497.2,2892.5-1508.7z"/><path d="M2886.7-1604.5c-17.3-70.9-90-674.4-90-743.3c0-118.8,5.7-118.8,798.9-118.8c457.9,0,714.6,7.7,714.6,19.2c0,11.5-266.3,21.1-731.8,23l-733.8,5.8l-5.7,63.2c-3.8,36.4,11.5,218.4,34.5,406.2c23,189.7,38.3,354.4,32.6,367.8C2902.1-1568.1,2892.5-1577.7,2886.7-1604.5z"/><path d="M7151.3-2288.4l3.8-130.3l-137.9-5.8c-172.4-7.7-185.8-42.1-17.2-42.1c90,0,134.1,9.6,164.7,34.5c38.3,32.6,42.2,44.1,28.7,153.3C7176.2-2119.8,7149.4-2127.5,7151.3-2288.4z"/><path d="M3409.7-2370.8c0-11.5,147.5-19.2,402.3-19.2s402.3,7.7,402.3,19.2c0,11.5-147.5,19.2-402.3,19.2S3409.7-2359.3,3409.7-2370.8z"/><path d="M4252.7-2370.8c0-9.6,9.6-19.2,19.2-19.2c11.5,0,19.2,9.6,19.2,19.2c0,11.5-7.7,19.2-19.2,19.2C4262.3-2351.7,4252.7-2359.3,4252.7-2370.8z"/><path d="M4348.5-2447.4c0-9.6,9.6-19.2,19.2-19.2c11.5,0,19.2,9.6,19.2,19.2c0,11.5-7.7,19.2-19.2,19.2C4358.1-2428.3,4348.5-2436,4348.5-2447.4z"/><path d="M6800.7-2447.4c0-9.6,9.6-19.2,19.2-19.2c11.5,0,19.2,9.6,19.2,19.2c0,11.5-7.7,19.2-19.2,19.2C6810.3-2428.3,6800.7-2436,6800.7-2447.4z"/></g></g>
</svg>