<?xml version="1.0" encoding="utf-8"?>
<!-- Svg Vector Icons : http://www.onlinewebfonts.com/icon -->
<!DOCTYPE svg PUBLIC "-//W3C//DTD SVG 1.1//EN" "http://www.w3.org/Graphics/SVG/1.1/DTD/svg11.dtd">
<svg version="1.1" xmlns="http://www.w3.org/2000/svg" xmlns:xlink="http://www.w3.org/1999/xlink" x="0px" y="0px" viewBox="0 0 1000 1000" enable-background="new 0 0 1000 1000" xml:space="preserve">
<metadata> Svg Vector Icons : http://www.onlinewebfonts.com/icon </metadata>
<g><g transform="translate(0.000000,512.000000) scale(0.100000,-0.100000)"><path d="M4563.1,5003.1c-252.9-23-509.6-69-800.8-141.8c-335.3-86.2-570.9-174.3-917.7-344.8c-536.4-262.5-862.1-496.2-1302.8-938.7c-442.6-440.6-676.3-766.3-938.7-1302.7C304.2,1667.7,160.5,1125.5,110.7,430.1c-46-641.8,57.5-1377.5,281.6-1988.6c101.5-279.7,350.6-772.1,515.4-1019.2c641.8-965.6,1626.5-1693.6,2716.6-2005.8c1557.5-450.2,3193.7-120.7,4460,896.6c396.6,318,833.4,816.2,1097.8,1249.1c883.2,1452.2,956,3245.4,193.5,4762.7c-373.6,745.2-971.3,1417.7-1678.3,1887.1c-247.1,164.8-739.5,413.8-1019.2,515.4C6030.6,4964.8,5258.5,5064.4,4563.1,5003.1z M5471.2,4926.5c1415.8-139.8,2693.6-894.7,3509.8-2074.8c846.8-1222.3,1074.8-2816.2,607.3-4235.9c-480.9-1463.7-1622.7-2603.6-3084.5-3084.5c-603.5-199.2-1310.4-279.7-1936.9-222.2C2074.4-4460.9,172-2378.5,172,119.7c0,2128.5,1392.8,4006,3431.2,4624.8c251,74.7,653.3,157.1,898.5,182C4741.2,4949.5,5229.8,4951.4,5471.2,4926.5z"/><path d="M4043.9,2778.9l-84.3-19.2l11.5-308.4c13.4-377.4,26.8-434.9,241.4-1128.4c93.9-302.7,166.7-567.1,160.9-588.1c-5.7-21.1-57.5-74.7-114.9-116.9c-224.1-170.5-501.9-480.9-737.6-823.8c-226.1-329.5-659-1076.7-885.1-1528.8c-183.9-367.8-174.3-429.2,90-511.5c628.4-199.3,1207-287.4,2034.6-308.5c890.8-23,1651.4,61.3,2375.6,264.4c459.8,128.4,461.7,136,176.3,693.5C6699.2-407.1,6212.6,278.7,5724,644.7c-40.2,28.7-76.6,69-82.4,86.2c-5.7,19.2,67.1,283.5,162.8,588.2c216.5,693.5,229.9,752.9,243.3,1132.2l11.5,308.4l-107.3,23l-105.4,21.1l-92-97.7c-162.9-174.3-425.3-270.1-745.2-272.1c-216.5,0-404.2,36.4-546,109.2c-111.1,57.5-241.4,168.6-258.6,222.2C4191.4,2805.7,4170.3,2807.6,4043.9,2778.9z M4118.6,2667.8c0-69,90-220.3,182-304.6c356.3-329.5,1063.3-327.6,1421.5,3.8c88.1,82.4,178.2,231.8,178.2,300.8c0,21.1,9.6,38.3,19.2,38.3c67.1,0-49.8-251-170.5-364c-97.7-92-247.1-174.3-411.9-226.1c-143.7-46-523-44.1-662.9,3.8c-325.7,109.2-542.2,304.6-586.2,526.8c-7.7,38.3-3.8,59.4,9.6,59.4C4109,2706.1,4118.6,2688.8,4118.6,2667.8z M4135.8,2451.3c132.2-212.7,461.7-383.2,789.3-408.1c461.7-32.6,902.3,203.1,1024.9,546c23,65.1,24.9,59.4,26.8-116.9c0-245.2-28.7-438.7-101.5-682l-61.3-199.3l-344.8-143.7c-469.4-195.4-463.6-195.4-919.6-3.8l-344.8,147.5l-51.7,168.6c-72.8,231.8-111.1,479-111.1,706.9c1.9,180.1,3.8,187.7,26.8,122.6C4082.2,2550.9,4112.9,2489.6,4135.8,2451.3z M4451.9,2474.3c185.8-88.1,365.9-120.7,613-107.3c285.5,13.4,469.4,74.7,668.6,218.4c49.8,36.4,90,57.5,90,47.9c0-46-136-210.7-228-275.9c-222.2-155.2-563.2-208.8-862.1-132.2c-88.1,21.1-199.2,63.2-247.1,90c-115,69-241.4,197.3-268.2,274l-23,63.2l70.9-61.3C4304.4,2556.7,4388.7,2504.9,4451.9,2474.3z M4586,1393.8c410-172.4,413.8-172.4,854.4,7.7c182,74.7,337.2,132.2,341,126.4c5.7-5.7-40.2-170.5-101.5-365.9c-61.3-195.4-111.1-383.2-109.2-415.7c0-49.8,19.2-76.6,92-137.9c436.8-365.9,716.5-712.7,1103.5-1369.8c415.7-706.9,697.3-1254.9,678.2-1316.2c-15.3-49.8-51.7-65.1-339.1-145.6c-689.7-199.2-1383.2-275.9-2316.2-256.7c-825.7,17.3-1362.1,93.9-1979,283.6c-137.9,42.1-193.5,69-216.5,103.5c-28.7,46-26.8,55.5,38.3,195.4c174.3,365.9,699.3,1283.6,933,1624.6c241.4,356.3,427.2,563.2,779.7,871.7c128.4,113,128.4,132.2-5.7,565.2c-115,367.8-116.9,383.2-80.5,367.8C4269.9,1527.9,4419.4,1464.6,4586,1393.8z"/><path d="M4344.7,94.8C4201-160,4063-424.4,4036.2-493.3c-61.3-157.1-383.2-1323.8-367.8-1337.2c5.7-5.7,13.4-5.7,17.2-1.9c3.8,3.8,78.5,266.3,164.8,582.4c86.2,316.1,182,641.8,210.7,724.2c44.1,118.8,358.3,705,538.3,1003.9c21.1,32.6,30.7,65.1,21.1,69C4612.9,552.7,4488.3,349.6,4344.7,94.8z"/><path d="M5377.3,547c-5.8-9.6,84.3-183.9,201.2-388.9c335.3-592,358.2-645.6,553.7-1352.6c95.8-346.8,176.3-634.2,182-638c30.7-32.6,7.7,74.7-126.4,563.3c-185.8,676.3-216.5,766.3-308.5,948.3C5747-56.5,5386.9,564.2,5377.3,547z"/><path d="M4980.7-828.6c0-848.7,5.7-1293.2,19.2-1293.2s19.2,444.5,19.2,1293.2c0,848.7-5.7,1293.2-19.2,1293.2S4980.7,20.1,4980.7-828.6z"/><path d="M2848.4-1570c-26.8-46-90-164.8-139.9-268.2c-124.5-252.9-128.4-249.1,285.5-365.9c172.4-49.8,327.6-90,341-90c69,0-38.3,40.2-289.3,111.1c-348.7,97.7-383.2,111.1-383.2,147.5c0,17.2,57.5,143.7,126.4,279.7c69,137.9,122.6,254.8,116.9,258.6C2900.1-1491.5,2875.2-1524,2848.4-1570z"/><path d="M7293.1-1880.4c38.3-76.6,65.1-153.3,59.4-168.6c-5.8-15.3-90-51.7-185.8-80.4s-170.5-61.3-164.8-69c3.8-7.7,82.4,7.7,174.3,34.5c118.8,36.4,174.3,63.2,195.4,95.8c28.7,42.2,24.9,53.7-40.2,187.8c-38.3,78.5-78.6,141.8-90,141.8C7231.8-1738.6,7254.8-1801.8,7293.1-1880.4z"/><path d="M4268-2416.8c42.1-24.9,1402.4-24.9,1444.5,0c21.1,11.5-231.8,17.2-722.3,17.2C4519-2399.6,4247-2405.3,4268-2416.8z"/></g></g>
</svg>