<?xml version="1.0" encoding="utf-8"?>
<!-- Svg Vector Icons : http://www.onlinewebfonts.com/icon -->
<!DOCTYPE svg PUBLIC "-//W3C//DTD SVG 1.1//EN" "http://www.w3.org/Graphics/SVG/1.1/DTD/svg11.dtd">
<svg version="1.1" xmlns="http://www.w3.org/2000/svg" xmlns:xlink="http://www.w3.org/1999/xlink" x="0px" y="0px" viewBox="0 0 1000 1000" enable-background="new 0 0 1000 1000" xml:space="preserve">
<metadata> Svg Vector Icons : http://www.onlinewebfonts.com/icon </metadata>
<g><g transform="translate(0.000000,512.000000) scale(0.100000,-0.100000)"><path d="M4563.1,5003.1c-252.9-23-509.6-69-800.8-141.8c-335.3-86.2-570.9-174.3-917.7-344.8c-536.4-262.5-862.1-496.2-1302.8-938.7c-442.6-440.6-676.3-766.3-938.7-1302.7C304.2,1667.7,160.5,1125.5,110.7,430.1c-46-641.8,57.5-1377.5,281.6-1988.6c101.5-279.7,350.6-772.1,515.4-1019.2c641.8-965.6,1626.5-1693.6,2716.6-2005.8c1557.5-450.2,3193.7-120.7,4460,896.6c396.6,318,833.4,816.2,1097.8,1249.1c883.2,1452.2,956,3245.4,193.5,4762.7c-373.6,745.2-971.3,1417.7-1678.3,1887.1c-247.1,164.8-739.5,413.8-1019.2,515.4C6030.6,4964.8,5258.5,5064.4,4563.1,5003.1z M5471.2,4926.5c1415.8-139.8,2693.6-894.7,3509.8-2074.8c846.8-1222.3,1074.8-2816.2,607.3-4235.9c-480.9-1463.7-1622.7-2603.6-3084.5-3084.5c-603.5-199.2-1310.4-279.7-1936.9-222.2C2074.4-4460.9,172-2378.5,172,119.7c0,2128.5,1392.8,4006,3431.2,4624.8c251,74.7,653.3,157.1,898.5,182C4741.2,4949.5,5229.8,4951.4,5471.2,4926.5z"/><path d="M5498,1089.1c-78.6-23-298.9-118.8-1551.8-676.3c-293.1-130.3-588.2-239.5-1023-383.2C2312-171.5,2312-171.5,2220-263.4l-93.9-93.9v-145.6c0-168.6,30.7-241.4,120.7-297c59.4-38.3,116.9-38.3,2753-38.3c2525,0,2695.6,1.9,2758.8,34.5c105.4,51.7,137.9,138,124.5,310.4c-7.7,78.5-23,155.2-32.6,166.7c-11.5,13.4-15.3,65.1-11.5,115c11.5,115-19.2,741.4-38.3,789.3c-13.4,32.6-30.7,30.7-329.5-38.3c-398.5-93.9-622.6-111.1-843-67.1c-316.1,65.1-565.2,206.9-789.3,454.1c-76.6,82.4-164.7,159-195.4,170.5c-30.6,9.6-55.5,19.2-57.5,17.2C5584.2,1114,5545.9,1102.5,5498,1089.1z M5647.4,1022.1c17.3-9.6,63.2-57.5,99.6-107.3c197.3-262.5,584.3-475.1,963.7-528.8c199.2-26.8,352.5-11.5,720.4,70.9c160.9,36.4,298.9,61.3,304.6,55.6c5.7-5.7-7.7-15.3-30.7-23c-23-5.7-42.1-19.2-42.1-28.7s17.2-13.4,36.4-5.7c51.7,15.3,59.4-38.3,65.1-431l3.8-316.1l-584.3-3.8l-584.3-5.7l76.6,72.8c42.1,38.3,139.8,126.5,218.4,195.4c118.8,105.4,136,130.3,111.1,149.4c-23,19.2-69-15.3-274-197.3c-245.2-218.4-247.1-218.4-342.9-218.4H6293l76.6,70.9c42.1,38.3,139.9,126.5,218.4,195.4c118.8,105.4,136,130.3,111.1,149.4c-23,19.2-69-15.3-274-197.3c-245.2-218.4-247.1-218.4-342.9-218.4h-95.8l76.6,70.9c42.1,38.3,139.8,126.5,218.4,195.4c118.8,105.4,136,130.3,111.1,149.4c-23,19.2-69-15.3-274-197.3l-247.1-218.4l-1153.3-1.9c-806.5,0-1155.2,5.7-1155.2,21.1c0,11.5-17.2,15.3-38.3,7.7c-26.8-9.6-38.3-3.9-38.3,17.2c0,46-32.6,36.4-47.9-11.5c-5.7-24.9-17.2-34.5-21.1-21.1c-5.7,13.4,7.7,90,30.7,172.4c63.2,233.7,76.6,270.1,101.5,279.7c13.4,5.8,95.8,40.2,183.9,78.6c88.1,38.3,153.3,59.4,141.8,46c-9.6-13.4-19.2-49.8-21.1-82.4c-1.9-30.7-17.3-63.2-32.6-72.8c-55.6-30.7-72.8-88.1-38.3-139.9c34.5-53.6,78.5-59.4,128.4-13.4c38.3,34.5,44.1,84.3,15.3,113c-32.6,32.6,19.2,199.2,61.3,199.2c61.3,0,130.3-44.1,168.6-109.2c38.3-67.1,105.4-84.3,149.4-40.2c28.7,28.7,30.7,95.8,1.9,124.5c-26.8,26.8,13.4,164.8,57.5,191.6c42.2,26.8,174.3-55.6,174.3-109.2s69-86.2,130.3-59.4c42.1,21.1,46,30.7,36.4,107.3c-11.5,82.4,40.2,314.2,57.5,264.4c5.7-13.4,17.2-24.9,28.7-24.9c38.3,0,128.4-78.6,134.1-118.8c7.7-53.6,55.6-80.5,116.9-65.1c57.5,13.4,82.4,70.9,51.7,124.5c-28.7,55.6,11.5,206.9,57.5,218.4c42.1,11.5,153.3-61.3,153.3-99.6s57.5-97.7,92-97.7c40.2,0,99.6,57.5,99.6,95.8c0,44.1-65.1,99.6-109.2,93.9c-19.2-3.8-53.6,5.8-78.5,19.2c-38.3,21.1-40.2,28.7-19.2,53.6c23,28.7,19.2,30.6-32.6,17.2c-95.8-23-30.7,21.1,136,93.9C5553.5,1043.2,5595.7,1050.8,5647.4,1022.1z M5028.6,778.8c-23-19.2-28.7-34.5-17.2-38.3c24.9-9.6,13.4-97.7-15.3-114.9c-9.6-5.7-53.6,11.5-97.7,42.2l-78.5,51.7l93.9,44.1C5028.6,815.2,5086.1,822.8,5028.6,778.8z M5455.8,698.3c7.7-46-34.5-72.8-86.2-53.6c-26.8,11.5-26.8,17.2,9.6,42.1c23,15.3,36.4,38.3,30.6,49.8c-7.6,11.5-1.9,17.2,13.4,11.5C5438.6,742.4,5452,721.3,5455.8,698.3z M4651.2,585.3c-34.5-126.4-47.9-141.8-101.5-116.9c-26.8,11.5-47.9,34.5-47.9,49.8c0,15.3-11.5,23-28.7,15.3c-15.3-5.8-28.7-3.8-28.7,5.7c0,11.5,130.3,78.5,224.2,114.9C4670.3,656.2,4662.7,623.6,4651.2,585.3z M5053.5,491.4c-15.3-15.3-42.1-23-59.4-15.3c-44.1,15.3-40.2,46,3.8,46c21.1,0,44.1,9.6,51.7,23c11.5,17.2,17.3,17.2,23-1.9C5076.5,529.7,5068.8,506.7,5053.5,491.4z M4262.3,445.4c-5.7-9.6-24.9-19.2-40.2-19.2c-15.3,0-26.8-7.7-26.8-19.2c0-9.6,9.6-19.2,19.2-19.2c30.7,0,23-76.6-9.6-88.1c-40.2-15.3-97.7,30.7-63.2,51.7c38.3,23,3.8,42.1-38.3,19.2c-21.1-11.5-42.1-13.4-49.8-5.8c-7.7,5.8,28.7,30.7,78.5,53.6C4233.5,464.6,4281.4,474.2,4262.3,445.4z M4689.5,365c-3.8-11.5-23-30.6-40.2-42.1c-24.9-15.3-40.2-11.5-65.1,15.3c-32.6,32.6-32.6,34.5,7.7,23c23-7.7,46-3.8,53.6,7.7C4662.7,395.6,4699.1,393.7,4689.5,365z M4291,198.3c0-47.9-57.5-69-93.9-30.7c-26.8,24.9-24.9,28.7,11.5,28.7c23,0,47.9,9.6,53.6,19.2C4279.5,244.3,4291,238.5,4291,198.3z M3379.1-98.7l-51.7-203.1H2812c-281.6,0-513.4,7.7-513.4,15.3c0,9.6,19.2,26.8,44.1,40.2c55.6,28.7,1074.8,364,1082.4,356.4C3428.9,106.3,3409.7,12.4,3379.1-98.7z M3890.6,62.3c15.3,23,17.2,19.2,13.4-19.2c-7.7-67.1-97.7-69-107.3-3.9c-5.8,40.2-3.8,42.2,34.5,19.2C3863.8,37.3,3873.4,37.3,3890.6,62.3z M6404.1-391.8c-770.2-3.8-2038.4-3.8-2816.2,0c-777.8,1.9-145.6,3.8,1402.4,3.8C6540.2-387.9,7176.2-389.9,6404.1-391.8z M6411.8-449.3c-775.9-3.8-2048-3.8-2825.8,0c-775.9,1.9-139.9,3.9,1413.9,3.9C6553.6-445.4,7189.6-447.3,6411.8-449.3z M3314-646.6v-115h-507.7h-509.6l-46,47.9c-32.6,30.6-47.9,67.1-47.9,115v67.1h555.6H3314V-646.6z M7816.1-581.5c0-55.5-30.6-122.6-74.7-155.2c-23-19.2-523-23-2189.8-24.9h-2161v115v115h2212.8h2212.8V-581.5z"/><path d="M5574.6,985.7c0-9.6,17.2-23,40.2-28.7c24.9-5.8,36.4-1.9,30.7,11.5C5635.9,997.2,5574.6,1010.6,5574.6,985.7z"/><path d="M5459.7,962.7c0-9.6,11.5-19.2,26.8-19.2c15.3,0,34.5,9.6,40.2,19.2c5.8,11.5-5.7,19.2-26.8,19.2C5476.9,981.9,5459.7,974.2,5459.7,962.7z"/><path d="M5363.9,924.4c-15.3-9.6-23-23-17.2-28.7c15.3-15.3,74.7,9.6,74.7,30.7S5400.3,947.4,5363.9,924.4z"/><path d="M5689.6,889.9c0-21.1,42.1-61.3,61.3-61.3c9.6,0,7.6,17.2-3.8,38.3C5725.9,905.2,5689.6,920.5,5689.6,889.9z"/><path d="M5785.4,796c0-24.9,55.5-72.8,67.1-59.4c5.7,5.7-7.7,24.9-28.7,44.1C5802.6,799.8,5785.4,805.6,5785.4,796z"/><path d="M5819.8,679.2c-19.2-3.8-34.5-15.3-34.5-24.9c0-21.1,21.1-21.1,57.5,1.9C5877.3,677.2,5863.9,690.6,5819.8,679.2z"/><path d="M5900.3,679.2c0-7.7,17.2-24.9,38.3-38.3c42.1-24.9,51.7-5.8,15.3,30.6C5927.1,698.3,5900.3,702.1,5900.3,679.2z"/><path d="M5680,617.8c-5.7-9.6,5.7-19.2,26.8-19.2c23,0,40.2,9.6,40.2,19.2c0,11.5-11.5,19.2-26.8,19.2S5685.7,629.3,5680,617.8z"/><path d="M6015.2,600.6c0-11.5,17.2-28.7,38.3-40.2c24.9-13.4,38.3-13.4,38.3-1.9c0,11.5-17.2,28.7-38.3,40.2C6028.7,612.1,6015.2,612.1,6015.2,600.6z"/><path d="M5574.6,579.5c-15.3-9.6-23-23-17.2-28.7c15.3-15.3,74.7,9.6,74.7,30.7C5632.1,602.5,5611,602.5,5574.6,579.5z"/><path d="M5450.1,520.1c-21.1-32.6,0-38.3,40.2-7.7c32.6,24.9,32.6,26.8,3.8,28.7C5476.9,541.2,5455.8,531.6,5450.1,520.1z"/><path d="M6130.2,524c0-19.2,46-40.2,82.4-40.2c13.4,0,5.7,13.4-13.4,28.7C6157,545,6130.2,548.9,6130.2,524z"/><path d="M5344.7,483.7c-15.3-9.6-23-23-17.2-28.7c15.3-15.3,74.7,9.6,74.7,30.7S5381.1,506.7,5344.7,483.7z"/><path d="M6264.3,464.6c0-24.9,72.8-61.3,84.3-40.2c5.7,7.7-11.5,24.9-36.4,36.4C6283.5,474.2,6264.3,476.1,6264.3,464.6z"/><path d="M7547.9,445.4c0-9.6,17.3-19.2,38.3-19.2s38.3,9.6,38.3,19.2c0,11.5-17.3,19.2-38.3,19.2S7547.9,456.9,7547.9,445.4z"/><path d="M5220.2,426.3c-5.7-9.6,1.9-19.2,17.2-19.2c15.3,0,34.5,9.6,40.2,19.2c5.7,11.5-1.9,19.2-17.2,19.2S5225.9,437.8,5220.2,426.3z"/><path d="M7457.9,432c-40.2-15.3-28.7-42.1,13.4-30.6c21.1,5.7,38.3,17.2,38.3,26.8C7509.6,447.3,7494.3,447.3,7457.9,432z"/><path d="M6398.4,407.1c0-13.4,46-38.3,69-38.3c24.9,0,1.9,36.4-30.7,44.1C6415.7,418.6,6398.4,416.7,6398.4,407.1z"/><path d="M5114.8,387.9c-15.3-9.6-23-23-17.2-28.7c15.3-15.3,74.7,9.6,74.7,30.7S5151.2,410.9,5114.8,387.9z"/><path d="M7318,387.9c0-9.6,11.5-19.2,26.8-19.2c15.3,0,34.5,9.6,40.2,19.2c5.7,11.5-5.7,19.2-26.8,19.2C7335.2,407.1,7318,399.4,7318,387.9z"/><path d="M6513.4,368.8c0-9.6,17.2-19.2,40.2-19.2c21.1,0,32.6,9.6,26.8,19.2c-5.7,11.5-24.9,19.2-40.2,19.2C6524.8,387.9,6513.4,380.3,6513.4,368.8z"/><path d="M7212.6,368.8c-5.7-9.6,5.7-19.2,26.8-19.2c23,0,40.2,9.6,40.2,19.2c0,11.5-11.5,19.2-26.8,19.2C7237.5,387.9,7218.4,380.3,7212.6,368.8z"/><path d="M6628.3,349.6c0-9.6,19.2-19.2,44.1-19.2c34.5,0,36.4,3.8,13.4,19.2C6649.4,374.5,6628.3,374.5,6628.3,349.6z"/><path d="M7097.7,349.6c-5.7-9.6,5.7-19.2,26.8-19.2c23,0,40.2,9.6,40.2,19.2c0,11.5-11.5,19.2-26.8,19.2C7122.6,368.8,7103.4,361.1,7097.7,349.6z"/><path d="M4990.3,330.5c-5.7-9.6,1.9-19.2,17.2-19.2c15.3,0,34.5,9.6,40.2,19.2c5.7,11.5-1.9,19.2-17.3,19.2S4996,342,4990.3,330.5z"/><path d="M6743.3,330.5c0-9.6,17.2-19.2,38.3-19.2c21.1,0,38.3,9.6,38.3,19.2c0,11.5-17.2,19.2-38.3,19.2C6760.5,349.6,6743.3,342,6743.3,330.5z"/><path d="M6858.2,330.5c0-9.6,17.2-19.2,38.3-19.2c21.1,0,38.3,9.6,38.3,19.2c0,11.5-17.2,19.2-38.3,19.2C6875.4,349.6,6858.2,342,6858.2,330.5z"/><path d="M6973.2,330.5c0-9.6,17.2-19.2,38.3-19.2s38.3,9.6,38.3,19.2c0,11.5-17.3,19.2-38.3,19.2S6973.2,342,6973.2,330.5z"/><path d="M4884.9,292.2c-15.3-9.6-23-23-17.2-28.7c15.3-15.3,74.7,9.6,74.7,30.7S4921.3,315.2,4884.9,292.2z"/><path d="M7689.7,192.5c5.8-55.6,11.5-168.6,11.5-249.1c0-86.2,7.7-149.4,19.2-149.4c21.1,0,24.9,113,5.7,341c-5.7,86.2-19.2,157.1-30.6,157.1C7683.9,292.2,7682,253.8,7689.7,192.5z"/><path d="M4760.4,234.7c-5.7-9.6,1.9-19.2,17.2-19.2c15.3,0,34.5,9.6,40.2,19.2c5.7,11.5-1.9,19.2-17.2,19.2C4785.3,253.8,4766.1,246.2,4760.4,234.7z"/><path d="M3748.8,221.3c-24.9-24.9-13.4-40.2,24.9-30.6c21.1,5.7,38.3,17.2,38.3,26.8C3812.1,236.6,3766.1,240.4,3748.8,221.3z"/><path d="M4655,196.4c-15.3-9.6-23-23-17.2-28.7c15.3-15.3,74.7,9.6,74.7,30.7S4691.4,219.4,4655,196.4z"/><path d="M3655,181c-19.2-3.8-34.5-15.3-34.5-24.9c0-24.9,51.7-21.1,67.1,3.8C3704.8,184.9,3695.2,190.6,3655,181z"/><path d="M4530.5,138.9c-5.7-9.6,1.9-19.2,17.2-19.2c15.3,0,34.5,9.6,40.2,19.2c5.7,11.5-1.9,19.2-17.2,19.2C4555.4,158.1,4536.2,150.4,4530.5,138.9z"/><path d="M3538.1,96.7c-7.7-23-7.7-46-1.9-51.7c11.5-13.4,46,38.3,46,70.9C3582.2,156.1,3549.6,140.8,3538.1,96.7z"/><path d="M4425.1,100.6c-15.3-9.6-23-23-17.2-28.7c15.3-15.3,74.7,9.6,74.7,30.6C4482.6,123.6,4461.5,123.6,4425.1,100.6z"/><path d="M4300.6,43.1c-5.7-9.6,1.9-19.2,17.2-19.2c15.3,0,34.5,9.6,40.2,19.2c5.7,11.5-1.9,19.2-17.2,19.2C4325.5,62.3,4306.3,54.6,4300.6,43.1z"/><path d="M4195.2,4.8c-15.3-9.6-23-23-17.2-28.7c15.3-15.3,74.7,9.6,74.7,30.6C4252.7,27.8,4231.6,27.8,4195.2,4.8z"/><path d="M3505.5-35.4c0-21.1,9.6-32.6,19.2-26.8c11.5,5.7,19.2,24.9,19.2,40.2c0,15.3-7.7,26.8-19.2,26.8C3515.1,4.8,3505.5-12.5,3505.5-35.4z"/><path d="M4070.7-52.7c-5.7-9.6,1.9-19.2,17.2-19.2c15.3,0,34.5,9.6,40.2,19.2c5.7,11.5-1.9,19.2-17.2,19.2C4095.6-33.5,4076.4-41.2,4070.7-52.7z"/><path d="M3965.3-91c-15.3-9.6-23-23-17.2-28.7c15.3-15.3,74.7,9.6,74.7,30.6C4022.8-68,4001.7-68,3965.3-91z"/><path d="M3478.7-140.8c-15.3-40.2-15.3-46,5.7-46c9.6,0,21.1,17.2,26.8,38.3C3522.8-102.5,3496-96.8,3478.7-140.8z"/><path d="M3858-138.9c-32.6-24.9-32.6-26.8-3.8-28.7c17.2,0,38.3,9.6,44.1,21.1C3919.4-114,3898.3-108.2,3858-138.9z"/><path d="M3735.4-186.8c-15.3-9.6-23-23-17.2-28.7c15.3-15.3,74.7,9.6,74.7,30.6C3792.9-163.8,3771.8-163.8,3735.4-186.8z"/><path d="M3628.1-234.7c-32.6-24.9-32.6-26.8-3.8-28.7c17.2,0,38.3,9.6,44.1,21.1C3689.5-209.8,3668.4-204,3628.1-234.7z"/><path d="M4894.5,713.6c-5.7-9.6,1.9-19.2,17.2-19.2c15.3,0,34.5,9.6,40.2,19.2c5.7,11.5-1.9,19.2-17.2,19.2C4919.4,732.8,4900.2,725.1,4894.5,713.6z"/><path d="M4549.7,560.4c-5.7-9.6,1.9-19.2,17.2-19.2c15.3,0,34.5,9.6,40.2,19.2c5.7,11.5-1.9,19.2-17.2,19.2C4574.6,579.5,4555.4,571.9,4549.7,560.4z"/><path d="M3314-37.4c-11.5-46-28.7-107.3-40.2-137.9c-17.2-53.7-9.6-88.1,13.4-65.1c21.1,21.1,80.5,283.6,63.2,283.6C3342.7,43.1,3325.5,6.7,3314-37.4z"/><path d="M2844.6-119.7c-72.8-24.9-136-51.7-139.9-63.2c-3.8-15.3,277.8,61.3,298.9,82.4C3028.5-75.7,2957.6-85.3,2844.6-119.7z"/><path d="M2241.1-598.7c0-17.3,21.1-51.8,47.9-76.6c46-47.9,47.9-47.9,440.6-47.9c249.1,0,392.7,7.7,392.7,19.2c0,11.5-145.6,19.2-398.5,19.2c-411.9,0-444.5,5.7-444.5,80.4c0,19.2-7.7,34.5-19.2,34.5C2250.7-570,2241.1-583.4,2241.1-598.7z"/><path d="M3160.7-704.1c0-9.6,9.6-19.2,19.2-19.2c11.5,0,19.2,9.6,19.2,19.2c0,11.5-7.7,19.2-19.2,19.2C3170.3-684.9,3160.7-692.6,3160.7-704.1z"/><path d="M4961.6-704.1c0-9.6,9.6-19.2,19.2-19.2c11.5,0,19.2,9.6,19.2,19.2c0,11.5-7.7,19.2-19.2,19.2C4971.1-684.9,4961.6-692.6,4961.6-704.1z"/><path d="M5038.2-704.1c0-13.4,277.8-19.2,795.1-19.2s795.1,5.7,795.1,19.2c0,13.4-277.8,19.2-795.1,19.2S5038.2-690.7,5038.2-704.1z"/><path d="M6666.6-704.1c0-9.6,9.6-19.2,19.2-19.2c11.5,0,19.2,9.6,19.2,19.2c0,11.5-7.7,19.2-19.2,19.2C6676.2-684.9,6666.6-692.6,6666.6-704.1z"/></g></g>
</svg>