<?xml version="1.0" encoding="utf-8"?>
<!-- Svg Vector Icons : http://www.onlinewebfonts.com/icon -->
<!DOCTYPE svg PUBLIC "-//W3C//DTD SVG 1.1//EN" "http://www.w3.org/Graphics/SVG/1.1/DTD/svg11.dtd">
<svg version="1.1" xmlns="http://www.w3.org/2000/svg" xmlns:xlink="http://www.w3.org/1999/xlink" x="0px" y="0px" viewBox="0 0 1000 1000" enable-background="new 0 0 1000 1000" xml:space="preserve">
<metadata> Svg Vector Icons : http://www.onlinewebfonts.com/icon </metadata>
<g><g transform="translate(0.000000,512.000000) scale(0.100000,-0.100000)"><path d="M4563.1,5003.1c-252.9-23-509.6-69-800.8-141.8c-335.3-86.2-570.9-174.3-917.7-344.8c-536.4-262.5-862.1-496.2-1302.8-938.7c-442.6-440.6-676.3-766.3-938.7-1302.7C304.2,1667.7,160.5,1125.5,110.7,430.1c-46-641.8,57.5-1377.5,281.6-1988.6c101.5-279.7,350.6-772.1,515.4-1019.2c641.8-965.6,1626.5-1693.6,2716.6-2005.8c1557.5-450.2,3193.7-120.7,4460,896.6c396.6,318,833.4,816.2,1097.8,1249.1c883.2,1452.2,956,3245.4,193.5,4762.7c-373.6,745.2-971.3,1417.7-1678.3,1887.1c-247.1,164.8-739.5,413.8-1019.2,515.4C6030.6,4964.8,5258.5,5064.4,4563.1,5003.1z M5471.2,4926.5c1415.8-139.8,2693.6-894.7,3509.8-2074.8c846.8-1222.3,1074.8-2816.2,607.3-4235.9c-480.9-1463.7-1622.7-2603.6-3084.5-3084.5c-603.5-199.2-1310.4-279.7-1936.9-222.2C2074.4-4460.9,172-2378.5,172,119.7c0,2128.5,1392.8,4006,3431.2,4624.8c251,74.7,653.3,157.1,898.5,182C4741.2,4949.5,5229.8,4951.4,5471.2,4926.5z"/><path d="M4459.6,2788.5c-84.3-7.7-97.7-15.3-149.4-92c-40.2-57.5-88.1-97.7-149.4-124.5c-162.8-74.7-565.2-205-846.8-275.9c-162.8-42.2-293.1-86.2-314.2-107.3c-63.2-61.3-195.4-739.5-245.2-1254.9c-28.7-312.3-28.7-1275.9,1.9-1705.1c30.7-454.1,95.8-1228,109.2-1329.6l11.5-84.3l275.9,11.5l275.9,11.5v-65.1c0-115,36.4-136,392.7-218.4c295-69,547.9-113,860.2-145.6l111.1-13.4l84.3,90.1c46,49.8,88.1,107.3,93.9,126.4c15.3,46,42.1,46,57.5,0c5.7-19.2,47.9-76.6,93.9-126.4l84.3-90.1l111.1,13.4c312.3,32.6,565.2,76.6,860.2,145.6c356.3,82.4,392.7,103.5,392.7,218.4v65.1l275.9-11.5l277.8-11.5l9.6,46c21.1,97.7,107.3,1316.1,128.3,1793.2c32.6,806.6-19.2,1525-159,2187.9c-30.6,153.3-69,302.7-84.3,331.4c-30.7,59.4-61.3,69-410,149.4c-314.2,70.9-586.2,153.3-752.9,228c-101.6,46-132.2,70.9-168.6,137.9c-46,82.4-49.8,84.3-160.9,95.8C5406,2798,4614.8,2800,4459.6,2788.5z M5513.3,2713.7c13.4-3.8,23-42.1,23-97.7v-92h-536.4h-538.3l5.8,95.8l5.7,95.8l201.2,11.5C4873.4,2736.7,5467.3,2729.1,5513.3,2713.7z M4455.8,1958.9c61.3-327.6,247.1-1055.6,358.3-1417.7c47.9-153.3,84.3-279.7,82.4-283.5c-9.6-7.7-176.3,254.8-308.4,484.7c-187.7,327.6-526.8,1015.4-526.8,1072.9c0,13.4,53.6,59.4,120.7,101.5c149.4,99.6,216.5,153.3,205,160.9c-5.7,5.7-92,42.1-191.6,82.4c-99.6,40.2-185.8,76.6-189.7,78.5c-3.8,3.8,61.3,70.9,145.6,149.4c82.4,78.5,168.6,174.3,187.7,212.7l38.3,69l15.3-226.1C4400.2,2319.1,4429,2100.7,4455.8,1958.9z M5697.2,2537.5c47.9-65.1,136-155.2,191.6-199.3c57.5-44.1,101.6-86.2,97.7-92c-3.8-5.7-90-44.1-189.7-86.2c-101.5-42.2-183.9-82.4-183.9-88.1c0-15.3,178.2-149.4,264.4-199.2c32.6-21.1,61.3-42.1,61.3-49.8c0-28.7-216.5-494.3-329.5-706.9c-126.4-243.3-434.9-768.2-494.3-843c-36.4-46-36.4-46,0,67.1c109.2,318,308.4,1078.6,411.9,1561.4c34.5,162.8,55.6,323.8,61.3,503.9c5.7,145.6,13.4,260.6,15.3,258.6C5607.2,2660.1,5649.3,2604.5,5697.2,2537.5z M4126.3,2455.1c-19.2-23-90-80.5-157.1-128.4c-65.1-47.9-113-93.9-105.4-99.6c9.6-7.7,95.8-46,193.5-88.1c95.8-40.2,176.3-80.5,176.3-88.1c0-15.3-210.7-159-254.8-174.3C3904,1851.6,4496,700.2,4854.3,177.2L4952,33.5l-17.2-162.9c-26.8-254.8-24.9-1680.2,1.9-1923.5l24.9-208.8l-57.5-99.6c-101.5-176.3-92-174.4-408.1-136c-233.7,26.8-616.9,103.4-908.1,182c-95.8,26.8-92-1.9-55.6,367.8c15.3,151.4,34.5,346.7,40.2,434.9l13.4,157.1h103.5c90,0,103.5,3.8,103.5,38.3c0,34.5-13.4,38.3-105.4,38.3c-116.9,0-116.9,0-93.9,139.8l13.4,70.9h187.8c176.2,0,189.7,1.9,189.7,38.3c0,36.4-13.4,38.3-191.6,38.3h-191.6v293.1c0,452.1-36.4,885.1-126.4,1519.3c-86.2,611.1-115,720.3-297,1097.8c-63.2,130.3-111.1,239.5-109.2,241.4c3.8,1.9,103.5,26.8,224.1,55.6c220.3,53.6,691.6,201.2,797,249.1C4166.5,2501.1,4168.4,2501.1,4126.3,2455.1z M5509.5,2480c30.7-19.2,1.9-306.5-61.3-607.3C5340.9,1366.9,5047.8,296,5001.8,248.1c-30.7-30.7-283.5,850.6-421.5,1471.3c-99.6,438.7-136,733.8-95.8,758.7C4517.1,2497.3,5478.8,2501.1,5509.5,2480z M6053.6,2397.6c57.5-21.1,275.9-80.5,486.6-132.2c208.8-51.7,383.2-97.7,388.9-101.5c3.8-5.8-17.3-55.6-49.8-111.1c-84.3-153.3-205-448.3-249.1-611.1c-38.3-137.9-130.3-747.2-172.4-1130.3c-36.4-329.5-59.4-714.6-59.4-1009.6v-293.1h-201.2c-187.7,0-201.2-1.9-201.2-38.3c0-36.4,13.4-38.3,199.3-38.3h197.3l13.4-70.9c23-139.8,23-139.8-93.9-139.8c-92,0-105.4-3.9-105.4-38.3c0-34.5,13.4-38.3,103.5-38.3h103.4l13.4-166.7c7.7-93.9,24.9-289.3,40.2-436.8c36.4-358.3,40.2-329.5-53.6-356.4c-289.3-76.6-661-151.3-902.3-182l-281.6-32.6l-46,42.2c-24.9,23-70.9,95.8-103.4,160.9c-53.7,109.2-61.3,145.6-80.5,425.3c-28.7,398.5-28.7,1239.5,0,1628.4C5019-1,5026.7,39.3,5065,81.4c172.4,191.6,641.8,1028.8,885.1,1576.7c99.6,224.2,107.3,195.4-95.8,316.1c-59.4,34.5-107.3,69-107.3,76.6c0,7.7,92,51.7,201.2,95.8l201.2,84.3l-122.6,93.9c-132.2,99.6-178.2,149.4-114.9,124.5C5930.9,2439.8,5996.1,2416.8,6053.6,2397.6z M3151.1,1897.6c191.6-400.4,260.6-691.6,266.3-1107.3c3.8-404.2-26.8-2607.4-38.3-2753l-11.5-139.8h-216.5h-214.6l-21.1,245.2c-166.7,1837.3-157.1,2670.7,36.4,3624.7c63.2,304.6,72.8,344.8,86.2,344.8C3043.8,2112.2,3093.6,2014.5,3151.1,1897.6z M7047.9,1753.9c185.8-915.8,199.2-1800.9,49.8-3492.5c-15.3-174.3-28.7-327.6-28.7-341c0-19.2-51.7-23-224.2-19.2l-226.1,5.8l-21.1,1360.2c-23,1605.4-23,1726.1,19.2,1959.9c44.1,249.1,187.7,638,302.7,825.7c38.3,61.3,42.1,63.2,55.5,24.9C6984.6,2054.7,7017.2,1909.1,7047.9,1753.9z M3522.8-706c1.9-417.6-23-938.7-53.6-1138c-17.2-101.6-9.6,647.5,11.5,1427.3c11.5,387,17.2,440.6,26.8,306.5C3515.1-200.2,3520.9-468.4,3522.8-706z M6536.3-1284.6c3.8-333.4,0-584.3-7.7-555.6c-44.1,185.8-69,1249.1-40.2,1684l15.3,208.8l13.4-364C6524.8-510.6,6532.5-949.3,6536.3-1284.6z"/><path d="M5745.1,1570c-46-105.4-155.2-325.7-243.3-488.5c-88.1-162.8-153.3-300.8-147.5-306.5c13.4-15.3,11.5-17.2,145.6,226.1c195.4,360.2,369.7,739.5,344.8,754.8C5837.1,1761.6,5793,1677.3,5745.1,1570z"/><path d="M5316,732.8c-5.7-9.6-1.9-19.2,7.6-19.2c11.5,0,21.1,9.6,21.1,19.2c0,11.5-3.8,19.2-7.7,19.2C5331.3,752,5321.7,744.3,5316,732.8z"/><path d="M4837-531.6c-5.7-9.6-1.9-19.2,7.7-19.2c11.5,0,21.1,9.6,21.1,19.2c0,11.5-3.8,19.2-7.7,19.2C4852.3-512.5,4842.8-520.1,4837-531.6z"/><path d="M4827.4-1116c0-289.3,7.7-526.8,15.3-526.8c9.6,0,17.3,237.5,17.3,526.8c0,289.3-7.7,526.8-17.3,526.8C4835.1-589.1,4827.4-826.7,4827.4-1116z"/><path d="M3639.6-1125.5c0-9.6,44.1-19.2,95.8-19.2c53.6,0,95.8,9.6,95.8,19.2c0,11.5-42.2,19.2-95.8,19.2C3683.7-1106.4,3639.6-1114,3639.6-1125.5z"/><path d="M3869.5-1125.5c0-9.6,9.6-19.2,19.2-19.2c11.5,0,19.2,9.6,19.2,19.2c0,11.5-7.7,19.2-19.2,19.2C3879.1-1106.4,3869.5-1114,3869.5-1125.5z"/><path d="M5053.5-541.2c-17.2-40.2-15.3-53.7,13.4-86.2c67.1-74.7,178.2-1.9,141.8,91.9C5185.7-472.2,5084.1-476.1,5053.5-541.2z M5143.6-570c5.7-9.6,1.9-19.2-7.7-19.2c-11.5,0-21.1,9.6-21.1,19.2c0,11.5,3.8,19.2,7.7,19.2C5128.2-550.8,5137.8-558.5,5143.6-570z"/><path d="M6091.9-1125.5c0-9.6,9.6-19.2,19.2-19.2c11.5,0,19.2,9.6,19.2,19.2c0,11.5-7.7,19.2-19.2,19.2C6101.5-1106.4,6091.9-1114,6091.9-1125.5z"/><path d="M6168.5-1125.5c0-9.6,44.1-19.2,95.8-19.2c53.6,0,95.8,9.6,95.8,19.2c0,11.5-42.1,19.2-95.8,19.2C6212.6-1106.4,6168.5-1114,6168.5-1125.5z"/><path d="M5053.5-1190.7c-17.2-42.2-15.3-55.6,13.4-88.1c67.1-72.8,151.3-30.7,139.8,70.9c-3.8,44.1-15.3,55.6-67.1,59.4C5088-1142.8,5072.7-1150.4,5053.5-1190.7z M5143.6-1221.3c5.7-9.6,1.9-19.2-7.7-19.2c-11.5,0-21.1,9.6-21.1,19.2c0,11.5,3.8,19.2,7.7,19.2C5128.2-1202.2,5137.8-1209.8,5143.6-1221.3z"/><path d="M6386.9-1953.2c7.6-55.5,17.2-141.8,23-191.6l11.5-90l-74.7-19.2c-40.2-9.6-130.3-32.6-201.2-51.7c-72.8-17.2-130.3-40.2-130.3-49.8s15.3-13.4,34.5-7.7c17.2,5.8,105.4,28.7,195.4,49.8c90,23,172.4,51.7,185.8,63.2c15.3,17.2,17.2,61.3,5.7,166.7c-9.6,78.5-17.2,162.8-19.2,187.7c0,23-9.6,42.2-21.1,42.2C6383.1-1853.5,6379.2-1886.1,6386.9-1953.2z"/><path d="M2936.5-1598.8c5.8-51.7,17.3-172.4,24.9-268.2l13.4-178.1h105.4c57.5,0,99.6,5.7,92,13.4c-7.7,7.7-46,11.5-86.2,7.7l-74.7-3.8l-11.5,101.5c-5.8,55.6-15.3,172.4-23,260.5c-7.7,86.2-21.1,157.1-32.6,157.1C2932.7-1508.7,2930.8-1545.1,2936.5-1598.8z"/><path d="M7074.7,1131.3c30.7-128.4,55.6-756.7,49.8-1235.7c-7.7-553.7,5.8-712.7,26.8-325.7c34.5,576.7-9.6,1603.5-67.1,1603.5C7072.8,1173.4,7068.9,1154.3,7074.7,1131.3z"/></g></g>
</svg>