<?xml version="1.0" encoding="utf-8"?>
<!-- Svg Vector Icons : http://www.onlinewebfonts.com/icon -->
<!DOCTYPE svg PUBLIC "-//W3C//DTD SVG 1.1//EN" "http://www.w3.org/Graphics/SVG/1.1/DTD/svg11.dtd">
<svg version="1.1" xmlns="http://www.w3.org/2000/svg" xmlns:xlink="http://www.w3.org/1999/xlink" x="0px" y="0px" viewBox="0 0 1000 1000" enable-background="new 0 0 1000 1000" xml:space="preserve">
<metadata> Svg Vector Icons : http://www.onlinewebfonts.com/icon </metadata>
<g><g transform="translate(0.000000,512.000000) scale(0.100000,-0.100000)"><path d="M4563.1,5003.1c-252.9-23-509.6-69-800.8-141.8c-335.3-86.2-570.9-174.3-917.7-344.8c-536.4-262.5-862.1-496.2-1302.8-938.7c-442.6-440.6-676.3-766.3-938.7-1302.7C304.2,1667.7,160.5,1125.5,110.7,430.1c-46-641.8,57.5-1377.5,281.6-1988.6c101.5-279.7,350.6-772.1,515.4-1019.2c641.8-965.6,1626.5-1693.6,2716.6-2005.8c1557.5-450.2,3193.7-120.7,4460,896.6c396.6,318,833.4,816.2,1097.8,1249.1c883.2,1452.2,956,3245.4,193.5,4762.7c-373.6,745.2-971.3,1417.7-1678.3,1887.1c-247.1,164.8-739.5,413.8-1019.2,515.4C6030.6,4964.8,5258.5,5064.4,4563.1,5003.1z M5471.2,4926.5c1415.8-139.8,2693.6-894.7,3509.8-2074.8c846.8-1222.3,1074.8-2816.2,607.3-4235.9c-480.9-1463.7-1622.7-2603.6-3084.5-3084.5c-603.5-199.2-1310.4-279.7-1936.9-222.2C2074.4-4460.9,172-2378.5,172,119.7c0,2128.5,1392.8,4006,3431.2,4624.8c251,74.7,653.3,157.1,898.5,182C4741.2,4949.5,5229.8,4951.4,5471.2,4926.5z"/><path d="M3576.4,3018.4c-3.8-145.6-17.3-367.8-28.7-494.3c-57.5-620.7-78.5-3034.6-42.2-4665c19.2-829.6,21.1-852.5,59.4-885.1c36.4-30.7,93.9-34.5,582.4-34.5s546,3.8,582.4,32.6c36.4,32.6,40.2,67.1,61.3,482.8c11.5,247.1,17.2,532.6,11.5,632.2c-7.7,124.5,0,229.9,17.2,323.8c38.3,183.9,28.7,523-15.3,616.9c-28.7,63.2-28.7,74.7,13.4,220.3c38.3,137.9,46,233.7,74.7,986.6c40.2,1049.9,44.1,1124.6,84.3,1139.9c78.5,28.7,82.4-5.7,120.7-950.2c36.4-850.6,42.1-917.7,86.2-1059.4l46-151.3l-40.2-69c-34.5-57.5-42.1-95.8-38.3-241.4c1.9-93.9,17.3-228,32.6-297c21.1-97.7,24.9-155.2,9.6-241.4c-11.5-76.6-9.6-312.3,9.6-735.7c26.8-592,28.7-624.6,67.1-655.2c36.4-30.7,93.9-34.5,582.4-34.5c488.5,0,546,3.8,582.4,34.5c38.3,32.6,40.2,53.7,61.3,1028.8c23,1067.1,13.4,3392.9-19.2,4166.9c-11.5,247.1-32.5,523-47.9,613.1c-17.2,90-30.6,237.6-30.6,331.4v166.7H4992.2H3586L3576.4,3018.4z M4406,3070.1V2936h-373.6h-373.6v134.1v134.1h373.6H4406V3070.1z M5536.3,3070.1V2936h-526.8h-526.9v134.1v134.1h526.9h526.8V3070.1z M6321.8,3070.1V2936h-354.4h-354.4v134.1v134.1h354.4h354.4V3070.1z M4406,2759.7c0-120.7-51.7-216.5-128.4-247.1c-49.8-17.2-308.4-11.5-559.4,13.4l-103.5,11.5l13.4,130.3c19.2,208.8-17.2,191.6,406.2,191.6H4406V2759.7z M4520.9,2821c0-21.1,9.6-38.3,19.2-38.3c11.5,0,19.2,17.2,19.2,38.3c0,36.4,13.4,38.3,201.2,38.3h201.2v-657.1c0-484.7-5.7-662.9-23-680.1c-17.2-17.3-17.2-23,0-23c13.4,0,23-13.4,23-28.7s-7.7-28.7-19.2-28.7c-9.6,0-30.7-19.2-46-42.2c-23-34.5-36.4-245.2-69-1021.1c-34.5-831.5-46-996.2-78.5-1103.5c-46-160.9-46-229.9,1.9-323.8c36.4-70.9,38.3-88.1,15.3-310.4c-11.5-130.3-23-352.5-24.9-494.3c-3.8-323.8-26.8-919.6-40.2-1040.3l-11.5-90h-544.1h-542.2v51.7c0,30.6-9.6,325.7-19.2,657.1c-24.9,789.3-26.8,3209-1.9,3917.8c9.6,306.5,19.2,595.8,19.2,647.5c0,84.3,3.8,90,49.8,90c26.8,0,44.1,7.7,36.4,19.2c-5.7,11.5-28.7,19.2-49.8,19.2c-19.2,0-36.4,9.6-36.4,19.2c0,23,24.9,23,360.2,1.9c297-19.2,360.2-7.7,442.6,84.3c47.9,53.6,59.4,88.1,70.9,201.2c5.7,72.8,21.1,134.1,28.7,134.1C4513.3,2859.3,4520.9,2842.1,4520.9,2821z M5191.4,2372.7c0-434.9-3.8-490.4-32.6-524.9c-19.2-21.1-53.6-44.1-76.6-51.7l-44.1-11.5V2321v538.3h76.6h76.6V2372.7z M5459.7,2821c0-21.1,9.6-38.3,19.2-38.3c11.5,0,19.2,17.2,19.2,38.3c0,21.1,7.6,38.3,17.2,38.3c7.7,0,23-61.3,28.7-134.1c11.5-113,23-147.5,70.9-201.2c82.4-92,145.6-103.5,442.6-84.3c333.3,21.1,341,21.1,341-1.9c0-9.6-17.3-19.2-38.3-19.2s-38.3-7.7-38.3-19.2c0-9.6,15.3-19.2,36.4-19.2c32.5,0,36.4-23,47.9-224.2c24.9-469.4,34.5-3596,11.5-4316.3c-11.5-394.7-21.1-741.4-21.1-770.2v-53.6h-544.1h-544.1l-9.6,101.5c-26.8,258.6-49.8,1141.8-32.6,1252.9c13.4,86.2,11.5,149.4-7.7,229.9c-13.4,61.3-30.7,182-38.3,268.2c-11.5,141.8-9.6,166.7,26.8,226.1c49.8,86.2,49.8,145.6,3.8,283.5c-32.6,92-44.1,239.5-78.5,1042.2c-40.2,940.7-49.8,1021.1-114.9,1021.1c-26.8,0-23,51.7,5.7,65.1c19.2,9.6,19.2,13.4,0,23c-15.3,5.7-24.9,47.9-24.9,105.4c0,84.3,3.8,93.9,44.1,93.9c57.5,0,122.6,47.9,157.1,114.9c23,44.1,28.7,147.5,28.7,536.4v478.9h95.8C5446.2,2859.3,5459.7,2853.6,5459.7,2821z M6348.6,2828.7c5.7-17.2,17.2-88.1,23-160.9l13.4-130.3l-84.3-11.5c-197.3-23-511.5-30.7-559.4-13.4c-76.6,30.7-128.4,128.4-128.4,247.1v99.6H5975C6287.3,2859.3,6339,2855.5,6348.6,2828.7z"/><path d="M3697.1,3089.2c0-42.2,9.6-76.6,19.2-76.6c11.5,0,19.2,26.8,19.2,57.5v57.5h114.9c63.2,0,115,7.7,115,19.2c0,11.5-57.5,19.2-134.1,19.2h-134.1V3089.2z"/><path d="M4003.6,3146.7c0-9.6,9.6-19.2,19.2-19.2c11.5,0,19.2,9.6,19.2,19.2c0,11.5-7.7,19.2-19.2,19.2C4013.2,3165.9,4003.6,3158.2,4003.6,3146.7z"/><path d="M5057.3,3118c-49.8-61.3,24.9-155.2,92-113c65.1,42.1,42.1,141.8-34.5,141.8C5095.7,3146.7,5070.8,3133.3,5057.3,3118z"/><path d="M5785.4,3146.7c0-9.6,9.6-19.2,19.2-19.2c11.5,0,19.2,9.6,19.2,19.2c0,11.5-7.7,19.2-19.2,19.2C5794.9,3165.9,5785.4,3158.2,5785.4,3146.7z"/><path d="M5862,3146.7c0-11.5,82.4-19.2,210.7-19.2c128.4,0,210.7,7.7,210.7,19.2c0,11.5-82.4,19.2-210.7,19.2C5944.4,3165.9,5862,3158.2,5862,3146.7z"/><path d="M5957.8,3070.1c0-9.6,9.6-19.2,19.2-19.2c11.5,0,19.2,9.6,19.2,19.2c0,11.5-7.7,19.2-19.2,19.2C5967.4,3089.2,5957.8,3081.6,5957.8,3070.1z"/><path d="M6015.2,3070.1c0-11.5,57.5-19.2,134.1-19.2c76.6,0,134.1,7.7,134.1,19.2s-57.5,19.2-134.1,19.2C6072.7,3089.2,6015.2,3081.6,6015.2,3070.1z"/><path d="M4520.9,2704.2c0-21.1,9.6-32.6,19.2-26.8c11.5,5.7,19.2,24.9,19.2,40.2c0,15.3-7.7,26.8-19.2,26.8C4530.5,2744.4,4520.9,2727.2,4520.9,2704.2z"/><path d="M4501.8,2589.2c0-21.1,9.6-32.6,19.2-26.8c11.5,5.7,19.2,24.9,19.2,40.2c0,15.3-7.7,26.8-19.2,26.8C4511.3,2629.4,4501.8,2612.2,4501.8,2589.2z"/><path d="M4444.3,2485.8c-13.4-17.2-21.1-34.5-15.3-38.3c5.7-5.7,21.1,1.9,34.5,19.2s21.1,34.5,15.3,38.3C4473,2510.7,4457.7,2503,4444.3,2485.8z"/><path d="M4335.1,2405.3c-40.2-15.3-28.7-42.1,13.4-30.6c21.1,5.7,38.3,17.2,38.3,26.8C4386.8,2420.6,4371.5,2420.6,4335.1,2405.3z"/><path d="M3754.6,2380.4c36.4-24.9,57.5-24.9,57.5,0c0,11.5-19.2,19.2-42.1,19.2C3733.5,2399.6,3731.6,2395.7,3754.6,2380.4z"/><path d="M3850.4,2380.4c0-9.6,17.2-19.2,38.3-19.2c21.1,0,38.3,9.6,38.3,19.2c0,11.5-17.2,19.2-38.3,19.2C3867.6,2399.6,3850.4,2391.9,3850.4,2380.4z"/><path d="M3965.3,2380.4c0-9.6,19.2-19.2,44.1-19.2c34.5,0,36.4,3.8,13.4,19.2C3986.4,2405.3,3965.3,2405.3,3965.3,2380.4z"/><path d="M4080.3,2361.2c0-9.6,17.2-19.2,38.3-19.2c21.1,0,38.3,9.6,38.3,19.2c0,11.5-17.2,19.2-38.3,19.2C4097.5,2380.4,4080.3,2372.7,4080.3,2361.2z"/><path d="M4195.2,2361.2c0-9.6,17.2-19.2,38.3-19.2s38.3,9.6,38.3,19.2c0,11.5-17.2,19.2-38.3,19.2S4195.2,2372.7,4195.2,2361.2z"/><path d="M4852.3,1485.7c-13.4-5.7-24.9-23-24.9-40.2c0-28.7,3.8-28.7,32.6,1.9C4894.5,1481.9,4890.7,1499.1,4852.3,1485.7z"/><path d="M4781.5,1372.7c-15.3-40.2-15.3-46,5.7-46c9.6,0,21.1,17.2,26.8,38.3C4825.5,1411,4798.7,1416.7,4781.5,1372.7z"/><path d="M4770,1250.1c0-21.1,9.6-38.3,19.2-38.3c11.5,0,19.2,17.2,19.2,38.3s-7.7,38.3-19.2,38.3C4779.6,1288.4,4770,1271.1,4770,1250.1z"/><path d="M4770,1133.2c0-21.1,9.6-32.6,19.2-26.8c11.5,5.7,19.2,24.9,19.2,40.2c0,15.3-7.7,26.8-19.2,26.8C4779.6,1173.4,4770,1156.2,4770,1133.2z"/><path d="M4773.8,1020.2c0-26.8,3.8-36.4,9.6-23c3.8,11.5,3.8,34.5,0,47.9C4777.6,1056.6,4773.8,1047,4773.8,1020.2z"/><path d="M4750.8,905.2c0-21.1,9.6-38.3,19.2-38.3c11.5,0,19.2,17.2,19.2,38.3c0,21.1-7.7,38.3-19.2,38.3C4760.4,943.5,4750.8,926.3,4750.8,905.2z"/><path d="M4750.8,790.3c0-21.1,9.6-38.3,19.2-38.3c11.5,0,19.2,17.2,19.2,38.3s-7.7,38.3-19.2,38.3C4760.4,828.6,4750.8,811.3,4750.8,790.3z"/><path d="M4750.8,675.3c0-21.1,9.6-38.3,19.2-38.3c11.5,0,19.2,17.2,19.2,38.3c0,21.1-7.7,38.3-19.2,38.3C4760.4,713.6,4750.8,696.4,4750.8,675.3z"/><path d="M4754.6,560.4c0-26.8,3.8-36.4,9.6-23c3.8,11.5,3.8,34.5,0,47.9C4758.5,596.8,4754.6,587.2,4754.6,560.4z"/><path d="M4731.7,445.4c0-21.1,9.6-38.3,19.2-38.3c11.5,0,19.2,17.2,19.2,38.3s-7.7,38.3-19.2,38.3C4741.2,483.7,4731.7,466.5,4731.7,445.4z"/><path d="M4731.7,330.5c0-21.1,9.6-38.3,19.2-38.3c11.5,0,19.2,17.2,19.2,38.3c0,21.1-7.7,38.3-19.2,38.3C4741.2,368.8,4731.7,351.6,4731.7,330.5z"/><path d="M4731.7,215.5c0-21.1,9.6-38.3,19.2-38.3c11.5,0,19.2,17.2,19.2,38.3c0,21.1-7.7,38.3-19.2,38.3C4741.2,253.8,4731.7,236.6,4731.7,215.5z"/><path d="M4735.5,100.6c0-26.8,3.8-36.4,9.6-23c3.8,11.5,3.8,34.5,0,47.9C4739.3,137,4735.5,127.4,4735.5,100.6z"/><path d="M4712.5-14.4c0-21.1,9.6-38.3,19.2-38.3c11.5,0,19.2,17.2,19.2,38.3c0,21.1-7.7,38.3-19.2,38.3C4722.1,24,4712.5,6.7,4712.5-14.4z"/><path d="M4712.5-129.3c0-21.1,9.6-38.3,19.2-38.3c11.5,0,19.2,17.2,19.2,38.3c0,21.1-7.7,38.3-19.2,38.3C4722.1-91,4712.5-108.2,4712.5-129.3z"/><path d="M4712.5-244.3c0-21.1,9.6-38.3,19.2-38.3c11.5,0,19.2,17.2,19.2,38.3c0,21.1-7.7,38.3-19.2,38.3C4722.1-205.9,4712.5-223.2,4712.5-244.3z"/><path d="M4716.3-359.2c0-26.8,3.8-36.4,9.6-23c3.8,11.5,3.8,34.5,0,47.9C4720.2-322.8,4716.3-332.4,4716.3-359.2z"/><path d="M4693.3-474.2c0-21.1,9.6-38.3,19.2-38.3c11.5,0,19.2,17.2,19.2,38.3c0,21.1-7.7,38.3-19.2,38.3C4702.9-435.8,4693.3-453.1,4693.3-474.2z"/><path d="M4693.3-591c0-21.1,9.6-32.6,19.2-26.8c11.5,5.7,19.2,24.9,19.2,40.2c0,15.3-7.7,26.8-19.2,26.8C4702.9-550.8,4693.3-568,4693.3-591z"/><path d="M4666.5-696.4c-17.2-42.1,5.7-61.3,26.8-26.8c23,36.4,23,57.5,1.9,57.5C4685.7-665.7,4672.3-679.2,4666.5-696.4z"/><path d="M4645.4-805.6c-7.7-19.2-9.6-40.2-1.9-46c19.2-19.2,34.5,7.7,24.9,46C4660.8-773,4660.8-773,4645.4-805.6z"/><path d="M4616.7-934c0-21.1,9.6-38.3,19.2-38.3c11.5,0,19.2,17.2,19.2,38.3c0,21.1-7.7,38.3-19.2,38.3C4626.3-895.6,4616.7-912.9,4616.7-934z"/><path d="M4655-1037.4c0-17.3,9.6-30.6,19.2-30.6c11.5,0,19.2,7.6,19.2,17.2c0,11.5-7.7,24.9-19.2,30.7C4664.6-1014.4,4655-1022.1,4655-1037.4z"/><path d="M4693.3-1142.8c0-23,9.6-40.2,19.2-40.2c11.5,0,19.2,11.5,19.2,26.8s-7.7,34.5-19.2,40.2C4702.9-1110.2,4693.3-1121.7,4693.3-1142.8z"/><path d="M4693.3-1263.5c0-36.4,3.8-38.3,19.2-15.3c24.9,36.4,24.9,57.5,0,57.5C4702.9-1221.3,4693.3-1240.5,4693.3-1263.5z"/><path d="M4674.2-1374.6c0-21.1,9.6-38.3,19.2-38.3c11.5,0,19.2,17.2,19.2,38.3c0,21.1-7.7,38.3-19.2,38.3C4683.8-1336.3,4674.2-1353.5,4674.2-1374.6z"/><path d="M4674.2-1491.5c0-21.1,9.6-32.6,19.2-26.8c11.5,5.7,19.2,24.9,19.2,40.2c0,15.3-7.7,26.8-19.2,26.8C4683.8-1451.2,4674.2-1468.5,4674.2-1491.5z"/><path d="M4647.4-1596.8c-15.3-40.2-15.3-46,5.7-46c9.6,0,21.1,17.2,26.8,38.3C4691.4-1558.5,4664.6-1552.8,4647.4-1596.8z"/><path d="M4635.9-1719.4c0-21.1,9.6-38.3,19.2-38.3c11.5,0,19.2,17.2,19.2,38.3c0,21.1-7.7,38.3-19.2,38.3C4645.4-1681.1,4635.9-1698.4,4635.9-1719.4z"/><path d="M4635.9-1822.9c0-15.3,9.6-34.5,19.2-40.2c11.5-5.8,19.2,5.7,19.2,26.8c0,23-7.7,40.2-19.2,40.2C4645.4-1796.1,4635.9-1807.6,4635.9-1822.9z"/><path d="M4655-1949.3c0-21.1,9.6-38.3,19.2-38.3c11.5,0,19.2,17.2,19.2,38.3c0,21.1-7.7,38.3-19.2,38.3C4664.6-1911,4655-1928.3,4655-1949.3z"/><path d="M4658.9-2064.3c0-26.8,3.8-36.4,9.6-23c3.8,11.5,3.8,34.5,0,47.9C4662.7-2027.9,4658.9-2037.5,4658.9-2064.3z"/><path d="M4635.9-2179.2c0-21.1,9.6-38.3,19.2-38.3c11.5,0,19.2,17.2,19.2,38.3c0,21.1-7.7,38.3-19.2,38.3C4645.4-2140.9,4635.9-2158.2,4635.9-2179.2z"/><path d="M4635.9-2294.2c0-21.1,9.6-38.3,19.2-38.3c11.5,0,19.2,17.2,19.2,38.3c0,21.1-7.7,38.3-19.2,38.3C4645.4-2255.9,4635.9-2273.1,4635.9-2294.2z"/><path d="M4635.9-2409.1c0-21.1,9.6-38.3,19.2-38.3c11.5,0,19.2,17.2,19.2,38.3c0,21.1-7.7,38.3-19.2,38.3C4645.4-2370.8,4635.9-2388.1,4635.9-2409.1z"/><path d="M4639.7-2524.1c0-26.8,3.8-36.4,9.6-23c3.8,11.5,3.8,34.5,0,47.9C4643.5-2487.7,4639.7-2497.3,4639.7-2524.1z"/><path d="M4616.7-2639c0-21.1,9.6-38.3,19.2-38.3c11.5,0,19.2,17.3,19.2,38.3s-7.7,38.3-19.2,38.3C4626.3-2600.7,4616.7-2618,4616.7-2639z"/><path d="M4616.7-2754c0-21.1,9.6-38.3,19.2-38.3c11.5,0,19.2,17.2,19.2,38.3s-7.7,38.3-19.2,38.3C4626.3-2715.7,4616.7-2732.9,4616.7-2754z"/><path d="M4616.7-2859.3c0-15.3-7.7-28.7-19.2-28.7c-9.6,0-19.2-7.7-19.2-19.2c0-9.6,13.4-19.2,28.7-19.2s28.7,7.7,28.7,17.3c0,9.6,5.7,30.6,11.5,47.9c5.7,17.2,1.9,30.6-9.6,30.6C4626.3-2830.6,4616.7-2844,4616.7-2859.3z"/><path d="M3658.8-2907.2c0-9.6,17.2-19.2,38.3-19.2c21.1,0,38.3,9.6,38.3,19.2c0,11.5-17.2,19.2-38.3,19.2C3676-2888.1,3658.8-2895.8,3658.8-2907.2z"/><path d="M3773.7-2907.2c0-9.6,17.2-19.2,38.3-19.2c21.1,0,38.3,9.6,38.3,19.2c0,11.5-17.2,19.2-38.3,19.2C3791-2888.1,3773.7-2895.8,3773.7-2907.2z"/><path d="M3888.7-2907.2c0-9.6,17.2-19.2,38.3-19.2c21.1,0,38.3,9.6,38.3,19.2c0,11.5-17.2,19.2-38.3,19.2C3905.9-2888.1,3888.7-2895.8,3888.7-2907.2z"/><path d="M4003.6-2907.2c0-9.6,17.2-19.2,38.3-19.2s38.3,9.6,38.3,19.2c0,11.5-17.2,19.2-38.3,19.2S4003.6-2895.8,4003.6-2907.2z"/><path d="M4118.6-2907.2c0-9.6,17.2-19.2,38.3-19.2c21.1,0,38.3,9.6,38.3,19.2c0,11.5-17.2,19.2-38.3,19.2C4135.8-2888.1,4118.6-2895.8,4118.6-2907.2z"/><path d="M4233.5-2907.2c0-9.6,17.2-19.2,38.3-19.2s38.3,9.6,38.3,19.2c0,11.5-17.2,19.2-38.3,19.2S4233.5-2895.8,4233.5-2907.2z"/><path d="M4348.5-2907.2c0-9.6,17.2-19.2,38.3-19.2c21.1,0,38.3,9.6,38.3,19.2c0,11.5-17.2,19.2-38.3,19.2C4365.7-2888.1,4348.5-2895.8,4348.5-2907.2z"/><path d="M4463.4-2907.2c0-9.6,17.2-19.2,38.3-19.2s38.3,9.6,38.3,19.2c0,11.5-17.2,19.2-38.3,19.2S4463.4-2895.8,4463.4-2907.2z"/><path d="M5459.7,2706.1c0-21.1,9.6-38.3,19.2-38.3c11.5,0,19.2,17.2,19.2,38.3s-7.7,38.3-19.2,38.3C5469.2,2744.4,5459.7,2727.2,5459.7,2706.1z"/><path d="M5478.8,2602.6c0-15.3,9.6-34.5,19.2-40.2c11.5-5.7,19.2,5.7,19.2,26.8c0,23-7.7,40.2-19.2,40.2C5488.4,2629.4,5478.8,2617.9,5478.8,2602.6z"/><path d="M5536.3,2499.2c0-9.6,13.4-28.7,28.7-42.1c15.3-13.4,28.7-15.3,28.7-3.8c0,9.6-13.4,28.7-28.7,42.1C5549.7,2508.8,5536.3,2510.7,5536.3,2499.2z"/><path d="M5658.9,2390c21.1-15.3,42.1-23,47.9-17.2c11.5,11.5-36.4,46-65.1,46C5632.1,2416.8,5639.7,2405.3,5658.9,2390z"/><path d="M5996.1,2380.4c-23-15.3-21.1-19.2,15.3-19.2c23,0,42.2,9.6,42.2,19.2C6053.6,2405.3,6032.5,2405.3,5996.1,2380.4z"/><path d="M6091.9,2380.4c0-9.6,17.3-19.2,38.3-19.2s38.3,9.6,38.3,19.2c0,11.5-17.2,19.2-38.3,19.2S6091.9,2391.9,6091.9,2380.4z"/><path d="M6206.8,2380.4c0-9.6,11.5-19.2,26.8-19.2c15.3,0,34.5,9.6,40.2,19.2c5.7,11.5-5.7,19.2-26.8,19.2C6224.1,2399.6,6206.8,2391.9,6206.8,2380.4z"/><path d="M5747,2361.2c0-9.6,17.2-19.2,38.3-19.2c21.1,0,38.3,9.6,38.3,19.2c0,11.5-17.2,19.2-38.3,19.2C5764.3,2380.4,5747,2372.7,5747,2361.2z"/><path d="M5862,2361.2c0-9.6,17.2-19.2,38.3-19.2c21.1,0,38.3,9.6,38.3,19.2c0,11.5-17.2,19.2-38.3,19.2C5879.2,2380.4,5862,2372.7,5862,2361.2z"/><path d="M5118.7,1478c3.8-13.4,19.2-28.7,32.5-32.6c15.3-5.8,23,1.9,17.3,17.2c-3.8,13.4-19.2,28.7-32.6,32.6C5120.6,1501,5112.9,1493.4,5118.7,1478z"/><path d="M5191.4,1370.8c0-24.9,9.6-44.1,19.2-44.1c24.9,0,24.9,21.1,0,57.5C5195.3,1407.2,5191.4,1405.2,5191.4,1370.8z"/><path d="M5191.4,1250.1c0-21.1,9.6-38.3,19.2-38.3c11.5,0,19.2,17.2,19.2,38.3s-7.7,38.3-19.2,38.3C5201,1288.4,5191.4,1271.1,5191.4,1250.1z"/><path d="M5191.4,1146.6c0-15.3,9.6-34.5,19.2-40.2c11.5-5.7,19.2,5.7,19.2,26.8c0,23-7.7,40.2-19.2,40.2C5201,1173.4,5191.4,1161.9,5191.4,1146.6z"/><path d="M5214.4,1020.2c0-26.8,3.8-36.4,9.6-23c3.8,11.5,3.8,34.5,0,47.9C5218.3,1056.6,5214.4,1047,5214.4,1020.2z"/><path d="M5210.6,905.2c0-21.1,9.6-38.3,19.2-38.3c11.5,0,19.2,17.2,19.2,38.3c0,21.1-7.7,38.3-19.2,38.3C5220.2,943.5,5210.6,926.3,5210.6,905.2z"/><path d="M5210.6,790.3c0-21.1,9.6-38.3,19.2-38.3c11.5,0,19.2,17.2,19.2,38.3s-7.7,38.3-19.2,38.3C5220.2,828.6,5210.6,811.3,5210.6,790.3z"/><path d="M5210.6,686.8c0-15.3,9.6-34.5,19.2-40.2c11.5-5.7,19.2,5.7,19.2,26.8c0,23-7.7,40.2-19.2,40.2C5220.2,713.6,5210.6,702.1,5210.6,686.8z"/><path d="M5233.6,560.4c0-26.8,3.8-36.4,9.6-23c3.8,11.5,3.8,34.5,0,47.9C5237.4,596.8,5233.6,587.2,5233.6,560.4z"/><path d="M5229.8,445.4c0-21.1,9.6-38.3,19.2-38.3c11.5,0,19.2,17.2,19.2,38.3s-7.7,38.3-19.2,38.3C5239.3,483.7,5229.8,466.5,5229.8,445.4z"/><path d="M5229.8,330.5c0-21.1,9.6-38.3,19.2-38.3c11.5,0,19.2,17.2,19.2,38.3c0,21.1-7.7,38.3-19.2,38.3C5239.3,368.8,5229.8,351.6,5229.8,330.5z"/><path d="M5229.8,227c0-15.3,9.6-34.5,19.2-40.2c11.5-5.7,19.2,5.7,19.2,26.8c0,23-7.7,40.2-19.2,40.2C5239.3,253.8,5229.8,242.3,5229.8,227z"/><path d="M5248.9,100.6c0-21.1,7.6-38.3,17.2-38.3s13.4,17.2,7.7,38.3c-5.7,21.1-13.4,38.3-17.2,38.3C5252.8,138.9,5248.9,121.7,5248.9,100.6z"/><path d="M5248.9-14.4c0-21.1,9.6-38.3,19.2-38.3c11.5,0,19.2,17.2,19.2,38.3c0,21.1-7.7,38.3-19.2,38.3C5258.5,24,5248.9,6.7,5248.9-14.4z"/><path d="M5248.9-129.3c0-21.1,9.6-38.3,19.2-38.3c11.5,0,19.2,17.2,19.2,38.3c0,21.1-7.7,38.3-19.2,38.3C5258.5-91,5248.9-108.2,5248.9-129.3z"/><path d="M5248.9-219.4c0-9.6,9.6-28.7,19.2-44c15.3-23,19.2-21.1,19.2,15.3c0,23-7.7,42.2-19.2,42.2C5258.5-205.9,5248.9-211.7,5248.9-219.4z"/><path d="M5268.1-353.5c0-24.9,9.6-44,19.2-44c24.9,0,24.9,21.1,0,57.5C5271.9-317.1,5268.1-319,5268.1-353.5z"/><path d="M5268.1-474.2c0-21.1,9.6-38.3,19.2-38.3c11.5,0,19.2,17.2,19.2,38.3c0,21.1-7.7,38.3-19.2,38.3C5277.7-435.8,5268.1-453.1,5268.1-474.2z"/><path d="M5294.9-581.5c5.8-17.2,11.5-34.5,11.5-38.3c0-3.8,7.6-7.6,17.2-7.6s13.4,17.2,7.7,38.3c-5.7,21.1-19.2,38.3-28.7,38.3C5291.1-550.8,5289.1-564.2,5294.9-581.5z"/><path d="M6360.1-646.6c0-9.6,9.6-19.2,19.2-19.2c11.5,0,19.2,9.6,19.2,19.2c0,11.5-7.7,19.2-19.2,19.2C6369.7-627.4,6360.1-635.1,6360.1-646.6z"/><path d="M5325.6-692.6c0-15.3,9.6-34.5,19.2-40.2c11.5-5.8,19.2,5.7,19.2,26.8c0,23-7.7,40.2-19.2,40.2C5335.1-665.7,5325.6-677.2,5325.6-692.6z"/><path d="M6352.4-1368.9c-5.7-367.8-17.2-837.2-23-1044.1c-7.7-249.1-5.8-379.3,7.7-379.3c11.5,0,23,243.3,30.7,666.7c5.7,365.9,17.2,835.3,23,1044.1c7.7,243.3,5.8,377.4-7.6,377.4C6371.6-704.1,6360.1-953.1,6352.4-1368.9z"/><path d="M5344.7-819c0-21.1,9.6-38.3,19.2-38.3c11.5,0,19.2,17.2,19.2,38.3c0,21.1-7.7,38.3-19.2,38.3C5354.3-780.7,5344.7-797.9,5344.7-819z"/><path d="M5300.7-907.1c-7.7-7.7-13.4-26.8-13.4-44.1c0-21.1,5.7-23,21.1-7.7c11.5,11.5,19.2,30.7,13.4,44.1C5317.9-903.3,5308.3-899.5,5300.7-907.1z"/><path d="M5268.1-1048.9c0-21.1,9.6-38.3,19.2-38.3c11.5,0,19.2,17.2,19.2,38.3c0,21.1-7.7,38.3-19.2,38.3C5277.7-1010.6,5268.1-1027.8,5268.1-1048.9z"/><path d="M5291.1-1163.8c0-26.8,3.8-36.4,9.6-23c3.8,11.5,3.8,34.5,0,47.9C5294.9-1127.5,5291.1-1137,5291.1-1163.8z"/><path d="M5287.2-1267.3c0-15.3,9.6-34.5,19.2-40.2c11.5-5.8,19.2,5.7,19.2,26.8c0,23-7.7,40.2-19.2,40.2C5296.8-1240.5,5287.2-1252,5287.2-1267.3z"/><path d="M5306.4-1368.9c0-26.8,36.4-72.8,47.9-61.3c15.3,15.3-9.6,74.7-30.7,74.7C5314-1355.4,5306.4-1361.2,5306.4-1368.9z"/><path d="M5339-1497.2c-7.7-19.2-9.6-40.2-3.8-46c17.2-17.3,32.6,11.5,24.9,47.9C5354.3-1462.7,5352.4-1462.7,5339-1497.2z"/><path d="M5325.6-1627.5c0-36.4,3.8-38.3,19.2-15.3c24.9,36.4,24.9,57.5,0,57.5C5335.1-1585.3,5325.6-1604.5,5325.6-1627.5z"/><path d="M5306.4-1738.6c0-21.1,9.6-38.3,19.2-38.3c11.5,0,19.2,17.2,19.2,38.3c0,21.1-7.7,38.3-19.2,38.3C5316-1700.3,5306.4-1717.5,5306.4-1738.6z"/><path d="M5306.4-1853.5c0-21.1,9.6-38.3,19.2-38.3c11.5,0,19.2,17.2,19.2,38.3c0,21.1-7.7,38.3-19.2,38.3C5316-1815.2,5306.4-1832.5,5306.4-1853.5z"/><path d="M5306.4-1957c0-15.3,9.6-34.5,19.2-40.2c11.5-5.8,19.2,5.7,19.2,26.8c0,23-7.7,40.2-19.2,40.2C5316-1930.2,5306.4-1941.7,5306.4-1957z"/><path d="M5325.6-2083.4c0-21.1,7.6-38.3,17.2-38.3s13.4,17.2,7.7,38.3c-5.8,21.1-13.4,38.3-17.3,38.3C5329.4-2045.1,5325.6-2062.4,5325.6-2083.4z"/><path d="M5325.6-2198.4c0-21.1,9.6-38.3,19.2-38.3c11.5,0,19.2,17.2,19.2,38.3c0,21.1-7.7,38.3-19.2,38.3C5335.1-2160.1,5325.6-2177.3,5325.6-2198.4z"/><path d="M5325.6-2313.3c0-21.1,9.6-38.3,19.2-38.3c11.5,0,19.2,17.2,19.2,38.3c0,21.1-7.7,38.3-19.2,38.3C5335.1-2275,5325.6-2292.3,5325.6-2313.3z"/><path d="M5339-2428.3c5.7-21.1,13.4-38.3,17.2-38.3s7.7,17.2,7.7,38.3c0,21.1-7.7,38.3-17.2,38.3S5333.2-2407.2,5339-2428.3z"/><path d="M5344.7-2541.3c0-23,9.6-40.2,19.2-40.2c11.5,0,19.2,11.5,19.2,26.8s-7.7,34.5-19.2,40.2C5354.3-2508.8,5344.7-2520.3,5344.7-2541.3z"/><path d="M5344.7-2658.2c0-21.1,9.6-38.3,19.2-38.3c11.5,0,19.2,17.3,19.2,38.3s-7.7,38.3-19.2,38.3C5354.3-2619.9,5344.7-2637.1,5344.7-2658.2z"/><path d="M5344.7-2773.1c0-21.1,9.6-38.3,19.2-38.3c11.5,0,19.2,17.2,19.2,38.3c0,21.1-7.7,38.3-19.2,38.3C5354.3-2734.8,5344.7-2752.1,5344.7-2773.1z"/><path d="M5363.9-2886.2c0-23,11.5-40.2,28.7-40.2c15.3,0,28.7,5.7,28.7,11.5c0,5.8-13.4,23-28.7,38.3C5367.7-2849.8,5363.9-2851.7,5363.9-2886.2z"/><path d="M5459.7-2907.2c0-9.6,17.2-19.2,38.3-19.2c21.1,0,38.3,9.6,38.3,19.2c0,11.5-17.2,19.2-38.3,19.2C5476.9-2888.1,5459.7-2895.8,5459.7-2907.2z"/><path d="M5574.6-2907.2c0-9.6,17.2-19.2,38.3-19.2c21.1,0,38.3,9.6,38.3,19.2c0,11.5-17.2,19.2-38.3,19.2C5591.8-2888.1,5574.6-2895.8,5574.6-2907.2z"/><path d="M5689.6-2907.2c0-9.6,17.2-19.2,38.3-19.2c21.1,0,38.3,9.6,38.3,19.2c0,11.5-17.3,19.2-38.3,19.2C5706.8-2888.1,5689.6-2895.8,5689.6-2907.2z"/><path d="M5804.5-2907.2c0-9.6,17.2-19.2,38.3-19.2c21.1,0,38.3,9.6,38.3,19.2c0,11.5-17.3,19.2-38.3,19.2C5821.7-2888.1,5804.5-2895.8,5804.5-2907.2z"/><path d="M5919.5-2907.2c0-9.6,17.2-19.2,38.3-19.2c21.1,0,38.3,9.6,38.3,19.2c0,11.5-17.2,19.2-38.3,19.2C5936.7-2888.1,5919.5-2895.8,5919.5-2907.2z"/><path d="M6034.4-2907.2c0-9.6,17.2-19.2,38.3-19.2c21.1,0,38.3,9.6,38.3,19.2c0,11.5-17.2,19.2-38.3,19.2C6051.6-2888.1,6034.4-2895.8,6034.4-2907.2z"/><path d="M6149.4-2907.2c0-9.6,17.2-19.2,38.3-19.2s38.3,9.6,38.3,19.2c0,11.5-17.3,19.2-38.3,19.2S6149.4-2895.8,6149.4-2907.2z"/><path d="M6264.3-2907.2c0-9.6,17.3-19.2,38.3-19.2s38.3,9.6,38.3,19.2c0,11.5-17.2,19.2-38.3,19.2S6264.3-2895.8,6264.3-2907.2z"/></g></g>
</svg>