<?xml version="1.0" encoding="utf-8"?>
<!-- Svg Vector Icons : http://www.onlinewebfonts.com/icon -->
<!DOCTYPE svg PUBLIC "-//W3C//DTD SVG 1.1//EN" "http://www.w3.org/Graphics/SVG/1.1/DTD/svg11.dtd">
<svg version="1.1" xmlns="http://www.w3.org/2000/svg" xmlns:xlink="http://www.w3.org/1999/xlink" x="0px" y="0px" viewBox="0 0 1000 1000" enable-background="new 0 0 1000 1000" xml:space="preserve">
<metadata> Svg Vector Icons : http://www.onlinewebfonts.com/icon </metadata>
<g><g transform="translate(0.000000,512.000000) scale(0.100000,-0.100000)"><path d="M4563.1,5003.1c-252.9-23-509.6-69-800.8-141.8c-335.3-86.2-570.9-174.3-917.7-344.8c-536.4-262.5-862.1-496.2-1302.8-938.7c-442.6-440.6-676.3-766.3-938.7-1302.7C304.2,1667.7,160.5,1125.5,110.7,430.1c-46-641.8,57.5-1377.5,281.6-1988.6c101.5-279.7,350.6-772.1,515.4-1019.2c641.8-965.6,1626.5-1693.6,2716.6-2005.8c1557.5-450.2,3193.7-120.7,4460,896.6c396.6,318,833.4,816.2,1097.8,1249.1c883.2,1452.2,956,3245.4,193.5,4762.7c-373.6,745.2-971.3,1417.7-1678.3,1887.1c-247.1,164.8-739.5,413.8-1019.2,515.4C6030.6,4964.8,5258.5,5064.4,4563.1,5003.1z M5471.2,4926.5c1415.8-139.8,2693.6-894.7,3509.8-2074.8c846.8-1222.3,1074.8-2816.2,607.3-4235.9c-480.9-1463.7-1622.7-2603.6-3084.5-3084.5c-603.5-199.2-1310.4-279.7-1936.9-222.2C2074.4-4460.9,172-2378.5,172,119.7c0,2128.5,1392.8,4006,3431.2,4624.8c251,74.7,653.3,157.1,898.5,182C4741.2,4949.5,5229.8,4951.4,5471.2,4926.5z"/><path d="M4271.9,2671.6l-61.3-149.4l-482.8-157.1c-274-88.1-496.2-170.5-513.4-189.7c-17.2-19.2-205-496.2-415.7-1061.4C2455.7,198.3,2413.5,73.8,2413.5-27.8c0-63.2,69-588.1,153.3-1164.8c84.3-576.7,153.3-1061.4,153.3-1074.8c0-13.4,15.3-38.3,32.6-57.5c26.8-26.8,55.6-30.7,187.7-19.2c191.6,15.3,367.8,55.6,406.2,93.9c26.8,26.8,21.1,132.2-49.8,994.3c-44.1,528.7-78.5,998.1-78.5,1038.4c0,70.9,226.1,720.3,251,720.3c17.2,0,53.6-379.3,78.5-812.3c24.9-433,3.8-1009.6-53.6-1594c-30.7-318-26.8-379.3,26.8-406.2c65.1-34.5,706.9-174.3,929.2-205c293.1-36.4,806.5-36.4,1103.5,1.9c329.5,42.1,921.5,185.8,956,229.9c19.2,26.8,23,70.9,15.3,170.5c-7.7,74.7-24.9,275.9-40.2,450.2c-44.1,480.9-55.6,1078.6-30.6,1436.9c30.6,442.6,63.2,731.8,80.4,714.6c34.5-36.4,247.1-645.6,247.1-710.8c0-38.3-34.5-505.8-78.5-1034.5c-70.9-862.1-76.6-967.5-49.8-994.3c67.1-69,538.4-130.3,590.1-78.5c32.6,32.6,344.8,2136.1,342.9,2312.4c0,86.2-63.2,270.1-385.1,1130.3c-256.7,689.7-396.6,1040.3-425.3,1065.2c-24.9,23-245.2,101.5-524.9,189.7L5770,2520.2l-53.7,126.4c-28.7,69-59.4,134.1-67.1,143.7c-7.7,9.6-90,1.9-193.5-19.2c-254.8-51.7-685.8-47.9-934.9,7.7c-99.6,23-182,42.2-183.9,42.2S4306.3,2754,4271.9,2671.6z M4538.2,2704.2c251-57.5,754.8-57.5,959.8,1.9c61.3,17.2,61.3,17.2,49.8-44.1c-7.7-32.6-23-70.9-36.4-84.3c-46-46-373.6-88.1-597.7-76.6c-371.7,17.3-457.9,49.8-498.1,182C4402.1,2731,4413.6,2732.9,4538.2,2704.2z M4411.7,2510.7c80.5-174.3,201.2-321.9,364-446.4c69-51.7,126.4-101.5,126.4-107.3c1.9-7.7-61.3-65.1-139.8-130.3l-141.8-116.9l-67.1,92c-153.3,206.9-281.6,498.1-281.6,636.1c0,40.2,57.5,210.7,70.9,210.7C4344.7,2648.6,4377.2,2585.4,4411.7,2510.7z M5680,2547.1c28.7-84.3,30.6-114.9,11.5-206.9c-28.7-136-107.3-302.7-231.8-486.6l-97.7-145.6l-134.1,118.8c-72.8,63.2-132.2,122.6-132.2,130.3s57.5,61.3,126.4,118.8c69,55.6,159,147.5,199.3,201.2c78.5,99.6,191.6,306.5,191.6,348.7C5612.9,2681.2,5647.4,2640.9,5680,2547.1z M4779.6,2474.3c159-21.1,427.2-11.5,590.1,23c49.8,11.5,97.7,15.3,103.5,9.6c23-21.1-118.8-208.8-251-329.5c-216.5-201.2-205-197.3-327.6-113c-116.9,80.5-325.7,295-381.2,392.7l-36.4,63.2l74.7-13.4C4591.8,2501.1,4695.3,2485.8,4779.6,2474.3z M4204.8,2378.5c7.7-32.6,7.7-63.2,0-70.9c-5.7-7.7-199.2-82.4-427.2-168.6l-415.7-155.2l-44.1,78.6c-34.5,59.4-38.3,80.5-19.2,86.2c57.5,21.1,869.8,285.4,881.3,287.4C4185.6,2437.9,4197.1,2411,4204.8,2378.5z M6283.5,2284.6c235.6-74.7,431.1-137.9,433-139.8c1.9-1.9-15.3-40.2-36.4-82.4l-42.2-78.6L6203,2144.8c-348.7,130.3-436.8,170.5-436.8,197.3c0,61.3,23,97.7,55.5,86.2C5839,2424.4,6045.9,2357.4,6283.5,2284.6z M4269.9,2154.3c36.4-105.4,285.5-503.9,327.6-530.7c11.5-7.7,65.1,26.8,122.6,74.7c55.6,47.9,107.3,88.1,115,88.1c5.8,0,11.5-957.9,11.5-2130.4v-2128.5l-195.4,11.5c-109.2,5.8-270.1,24.9-360.2,42.2c-274,51.7-737.6,164.8-749.1,183.9c-5.7,9.6-3.8,70.9,3.8,137.9c97.7,816.2,107.3,1710.8,24.9,2398.6c-17.2,137.9-38.3,456-46,708.8c-17.2,463.6-38.3,611.1-124.5,850.6c-15.3,46-26.8,86.2-24.9,90c7.7,5.7,825.7,312.3,841,312.3C4224,2265.4,4247,2215.6,4269.9,2154.3z M6203,2108.3c346.8-126.4,425.3-160.9,415.7-185.8c-97.7-251-143.7-551.8-143.7-933c0-149.4-17.2-417.6-38.3-595.8c-86.2-739.5-88.1-1358.3-5.7-2270.2c17.2-199.2,28.7-364,23-367.8c-13.4-13.4-647.6-159-795.1-183.9c-76.6-11.5-220.3-28.7-321.9-34.5l-183.9-13.4v2132.3v2134.2l107.3-92l107.3-90l38.3,46c126.4,160.9,260.5,383.2,312.3,521.1c19.2,49.8,38.3,90,46,90C5770,2265.4,5967.4,2196.5,6203,2108.3z M3331.2,1951.3c116.9-279.7,143.7-440.6,145.6-844.9v-364l-170.5-450.2L3135.8-158l67.1-814.2c46-567.1,59.4-818.1,46-827.7c-36.4-24.9-206.9-55.5-360.2-67.1l-147.5-11.5l-11.5,65.1C2666.4-1447.4,2474.8-22,2482.5,27.8c17.2,90,756.7,2065.2,774,2065.2C3266.1,2093,3298.6,2029.8,3331.2,1951.3z M7130.3,1093C7337.1,541.2,7509.6,60.3,7515.3,24c7.7-51.7-185.8-1490.5-245.2-1837.3l-11.5-65.1l-147.5,11.5c-153.3,11.5-323.8,42.2-360.2,67.1c-13.4,9.6,0,262.5,46,827.7l67.1,814.2l-178.2,475.1l-176.3,475.1l9.6,348.7c7.7,266.3,19.2,387,49.8,507.7C6613,1821,6718.3,2093,6741.3,2093C6749,2093,6925.3,1642.8,7130.3,1093z M5042,1888c32.5-28.7,34.5-122.6,34.5-2203.2v-2170.6h-76.6h-76.6v2176.4c0,2051.8,1.9,2180.2,34.5,2203.2C4999.9,1926.3,4999.9,1926.3,5042,1888z M3283.3-1960.8c5.8-49.8,11.5-126.5,11.5-170.5v-80.5l-99.6-23c-55.6-13.4-166.7-28.7-247.1-34.5l-145.6-11.5l-23,124.5c-36.4,208.8-40.2,199.2,118.8,214.6c74.7,7.7,185.8,24.9,243.3,38.3c57.5,15.3,111.1,26.8,116.9,28.7C3266.1-1872.7,3275.6-1912.9,3283.3-1960.8z M6950.2-1920.6c88.1-15.3,191.6-28.7,226.1-28.7c74.7,0,78.6-11.5,44.1-206.9l-23-124.5l-145.6,11.5c-80.4,5.8-191.6,21.1-245.2,34.5l-101.5,23v80.5c0,157.1,23,262.5,53.6,249.1C6773.9-1888,6860.1-1905.3,6950.2-1920.6z"/><path d="M5632.1,2399.6c0-9.6,9.6-19.2,21.1-19.2c9.6,0,13.4,9.6,7.7,19.2c-5.7,11.5-15.3,19.2-21.1,19.2C5635.9,2418.7,5632.1,2411,5632.1,2399.6z"/><path d="M5576.5,2229c-23-61.3-84.3-180.1-137.9-260.6c-51.7-82.4-90-153.3-84.3-159c5.8-7.7,17.2-3.8,24.9,7.7c7.7,9.6,42.2,59.4,76.6,111.1c97.7,137.9,218.4,413.8,180.1,413.8C5626.3,2342.1,5599.5,2290.3,5576.5,2229z"/><path d="M3965.3,77.6c0-3.8,13.4-78.5,30.7-168.6c46-260.6,57.5-973.2,19.2-1274c-17.2-136-36.4-268.2-42.2-291.2c-7.7-24.9-3.8-44,7.7-44c42.2,0,97.7,490.4,99.6,871.7c0,375.5-57.5,910-97.7,910C3973,81.4,3965.3,79.5,3965.3,77.6z"/><path d="M5478.8,832.4V531.6l176.3-78.5l178.2-76.6l176.3,76.6l178.2,74.7v304.6v302.7h-354.4h-354.4V832.4z M6149.4,1029.7v-67.1h-316.1h-316.1v67.1v67.1h316.1h316.1V1029.7z M6149.4,736.6V548.9l-143.7-61.3c-78.6-34.5-155.2-61.3-172.4-61.3c-17.2,0-93.9,26.8-172.4,61.3l-143.7,61.3v187.8v187.7h316.1h316.1V736.6z"/><path d="M5978.8-37.4c-46-272-65.1-590-53.6-934.9c9.6-306.5,53.6-697.4,80.5-726.1c24.9-24.9,24.9,24.9-3.8,170.5c-59.4,308.4-42.1,1277.8,26.8,1567.1c5.7,23,1.9,42.2-9.6,42.2C6009.5,81.4,5990.3,27.8,5978.8-37.4z"/><path d="M6340.9-1778.8c0-9.6,9.6-13.4,19.2-7.6c11.5,5.7,19.2,15.3,19.2,21.1c0,3.8-7.7,7.7-19.2,7.7C6350.5-1757.8,6340.9-1767.3,6340.9-1778.8z"/><path d="M6371.6-2001.1l11.5-195.4l-84.3-21.1c-46-11.5-95.8-24.9-111.1-28.7c-159-40.2-191.6-51.7-191.6-65.1c0-21.1,364,69,398.5,99.6c19.2,15.3,23,55.6,11.5,164.8C6385-1815.2,6360.1-1782.7,6371.6-2001.1z"/><path d="M5919.5-2332.5c0-9.6,9.6-19.2,19.2-19.2c11.5,0,19.2,9.6,19.2,19.2c0,11.5-7.7,19.2-19.2,19.2C5929-2313.3,5919.5-2321,5919.5-2332.5z"/><path d="M2758.4,675.3c0-9.6,9.6-19.2,19.2-19.2c11.5,0,19.2,9.6,19.2,19.2c0,11.5-7.7,19.2-19.2,19.2C2767.9,694.5,2758.4,686.8,2758.4,675.3z"/><path d="M2725.8,589.1c-136-339.1-197.3-536.4-195.4-638c0-116.9,42.1-379.3,63.2-400.4c19.2-19.2,13.4,70.9-17.2,243.3c-15.3,90-24.9,189.7-17.2,220.3c5.7,32.5,53.6,172.4,105.4,314.2c53.6,141.8,93.9,270.1,90,287.4C2750.7,637,2741.1,627.4,2725.8,589.1z"/><path d="M2585.9-493.3c0-9.6,9.6-19.2,19.2-19.2c11.5,0,19.2,9.6,19.2,19.2c0,11.5-7.7,19.2-19.2,19.2C2595.5-474.2,2585.9-481.8,2585.9-493.3z"/><path d="M4961.6,1640.9c-21.1-23-19.2-34.5,5.7-61.3c30.7-28.7,34.5-28.7,65.1,0c24.9,26.8,26.8,38.3,5.7,61.3c-13.4,17.2-30.7,30.7-38.3,30.7S4975,1658.1,4961.6,1640.9z M5019,1614.1c0-9.6-7.7-19.2-19.2-19.2c-9.6,0-19.2,9.6-19.2,19.2c0,11.5,9.6,19.2,19.2,19.2C5011.4,1633.2,5019,1625.6,5019,1614.1z"/><path d="M4961.6,912.9c-21.1-23-19.2-34.5,5.7-61.3c30.7-28.7,34.5-28.7,65.1,0c24.9,26.8,26.8,38.3,5.7,61.3c-13.4,17.2-30.7,30.7-38.3,30.7S4975,930.1,4961.6,912.9z M5019,886.1c0-9.6-7.7-19.2-19.2-19.2c-9.6,0-19.2,9.6-19.2,19.2c0,11.5,9.6,19.2,19.2,19.2C5011.4,905.2,5019,897.6,5019,886.1z"/><path d="M4961.6,184.9c-21.1-23-19.2-34.5,5.7-61.3c30.7-28.7,34.5-28.7,65.1,0c24.9,26.8,26.8,38.3,5.7,61.3c-13.4,17.2-30.7,30.7-38.3,30.7S4975,202.1,4961.6,184.9z M5019,158.1c0-9.6-7.7-19.2-19.2-19.2c-9.6,0-19.2,9.6-19.2,19.2c0,11.5,9.6,19.2,19.2,19.2C5011.4,177.2,5019,169.6,5019,158.1z"/><path d="M4961.6-543.1c-21.1-23-19.2-34.5,5.7-61.3c30.7-28.7,34.5-28.7,65.1,0c24.9,26.8,26.8,38.3,5.7,61.3c-13.4,17.2-30.7,30.7-38.3,30.7S4975-525.9,4961.6-543.1z M5019-570c0-9.6-7.7-19.2-19.2-19.2c-9.6,0-19.2,9.6-19.2,19.2c0,11.5,9.6,19.2,19.2,19.2C5011.4-550.8,5019-558.5,5019-570z"/><path d="M4961.6-1271.1c-21.1-23-19.2-34.5,5.7-61.3c30.7-28.7,34.5-28.7,65.1,0c24.9,26.8,26.8,38.3,5.7,61.3c-13.4,17.2-30.7,30.7-38.3,30.7S4975-1253.9,4961.6-1271.1z M5019-1298c0-9.6-7.7-19.2-19.2-19.2c-9.6,0-19.2,9.6-19.2,19.2c0,11.5,9.6,19.2,19.2,19.2C5011.4-1278.8,5019-1286.5,5019-1298z"/><path d="M4961.6-1999.2c-21.1-23-19.2-34.5,5.7-61.3c30.7-28.7,34.5-28.7,65.1,0c24.9,26.8,26.8,38.3,5.7,61.3c-13.4,17.2-30.7,30.7-38.3,30.7S4975-1981.9,4961.6-1999.2z M5019-2026c0-9.6-7.7-19.2-19.2-19.2c-9.6,0-19.2,9.6-19.2,19.2c0,11.5,9.6,19.2,19.2,19.2C5011.4-2006.8,5019-2014.5,5019-2026z"/><path d="M2815.8-2027.9c0-72.8,21.1-170.5,38.3-170.5c19.2,0,1.9,151.3-21.1,191.6C2821.6-1985.7,2817.8-1991.5,2815.8-2027.9z"/></g></g>
</svg>