<?xml version="1.0" encoding="utf-8"?>
<!-- Svg Vector Icons : http://www.onlinewebfonts.com/icon -->
<!DOCTYPE svg PUBLIC "-//W3C//DTD SVG 1.1//EN" "http://www.w3.org/Graphics/SVG/1.1/DTD/svg11.dtd">
<svg version="1.1" xmlns="http://www.w3.org/2000/svg" xmlns:xlink="http://www.w3.org/1999/xlink" x="0px" y="0px" viewBox="0 0 1000 1000" enable-background="new 0 0 1000 1000" xml:space="preserve">
<metadata> Svg Vector Icons : http://www.onlinewebfonts.com/icon </metadata>
<g><g transform="translate(0.000000,512.000000) scale(0.100000,-0.100000)"><path d="M4563.1,5003.1c-252.9-23-509.6-69-800.8-141.8c-335.3-86.2-570.9-174.3-917.7-344.8c-536.4-262.5-862.1-496.2-1302.8-938.7c-442.6-440.6-676.3-766.3-938.7-1302.7C304.2,1667.7,160.5,1125.5,110.7,430.1c-46-641.8,57.5-1377.5,281.6-1988.6c101.5-279.7,350.6-772.1,515.4-1019.2c641.8-965.6,1626.5-1693.6,2716.6-2005.8c1557.5-450.2,3193.7-120.7,4460,896.6c396.6,318,833.4,816.2,1097.8,1249.1c883.2,1452.2,956,3245.4,193.5,4762.7c-373.6,745.2-971.3,1417.7-1678.3,1887.1c-247.1,164.8-739.5,413.8-1019.2,515.4C6030.6,4964.8,5258.5,5064.4,4563.1,5003.1z M5471.2,4926.5c1415.8-139.8,2693.6-894.7,3509.8-2074.8c846.8-1222.3,1074.8-2816.2,607.3-4235.9c-480.9-1463.7-1622.7-2603.6-3084.5-3084.5c-603.5-199.2-1310.4-279.7-1936.9-222.2C2074.4-4460.9,172-2378.5,172,119.7c0,2128.5,1392.8,4006,3431.2,4624.8c251,74.7,653.3,157.1,898.5,182C4741.2,4949.5,5229.8,4951.4,5471.2,4926.5z"/><path d="M4271.9,2671.6l-61.3-149.4l-482.8-157.1c-281.6-90-496.2-170.5-513.4-189.7c-15.3-19.2-172.4-270.1-348.7-559.4c-241.4-392.7-318-534.5-310.4-565.2c7.7-24.9,149.4-132.2,396.6-298.9c210.7-141.8,396.6-262.5,413.8-264.4c15.3-3.8,44.1,7.7,65.1,24.9c28.7,26.8,36.4,28.7,44.1,7.7c17.2-55.6,51.7-444.5,72.8-829.5c24.9-433,3.8-1011.6-53.6-1594c-30.7-318-26.8-379.3,26.8-406.2c65.1-34.5,706.9-174.3,929.2-205c293.1-36.4,806.5-36.4,1103.5,1.9c329.5,42.1,921.5,185.8,956,229.9c19.2,26.8,23,70.9,15.3,170.5c-7.7,74.7-24.9,275.9-40.2,450.2c-61.3,683.9-57.5,1279.7,11.5,1954.1c26.8,258.6,26.8,262.5,72.8,220.3c21.1-17.2,49.8-28.7,65.1-24.9c15.3,1.9,201.2,122.6,411.9,264.4c245.2,164.8,390.8,274,398.5,298.9c7.7,30.7-72.8,176.3-308.4,565.2c-176.3,289.3-339.1,542.2-362.1,563.2c-24.9,23-237.5,99.6-523,189.7L5770,2520.2l-53.7,126.4c-28.7,69-59.4,134.1-67.1,143.7c-7.7,9.6-90,1.9-193.5-19.2c-254.8-51.7-685.8-47.9-934.9,7.7c-99.6,23-182,42.2-183.9,42.2S4306.3,2754,4271.9,2671.6z M4538.2,2704.2c251-57.5,754.8-57.5,959.8,1.9c61.3,17.2,61.3,17.2,49.8-44.1c-7.7-32.6-23-70.9-36.4-84.3c-46-46-373.6-88.1-597.7-76.6c-371.7,17.3-457.9,49.8-498.1,182C4402.1,2731,4413.6,2732.9,4538.2,2704.2z M4411.7,2510.7c80.5-174.3,201.2-321.9,364-446.4c69-51.7,126.4-101.5,126.4-107.3c1.9-7.7-61.3-65.1-139.8-130.3l-141.8-116.9l-67.1,92c-153.3,206.9-281.6,498.1-281.6,636.1c0,40.2,57.5,210.7,70.9,210.7C4344.7,2648.6,4377.2,2585.4,4411.7,2510.7z M5680,2547.1c28.7-84.3,30.6-114.9,11.5-206.9c-28.7-136-107.3-302.7-231.8-486.6l-97.7-145.6l-134.1,118.8c-72.8,63.2-132.2,122.6-132.2,130.3s57.5,61.3,126.4,118.8c69,55.6,159,147.5,199.3,201.2c78.5,99.6,191.6,306.5,191.6,348.7C5612.9,2681.2,5647.4,2640.9,5680,2547.1z M4779.6,2474.3c159-21.1,427.2-11.5,590.1,23c49.8,11.5,97.7,15.3,103.5,9.6c23-21.1-118.8-208.8-251-329.5c-216.5-201.2-205-197.3-327.6-113c-116.9,80.5-325.7,295-381.2,392.7l-36.4,63.2l74.7-13.4C4591.8,2501.1,4695.3,2485.8,4779.6,2474.3z M4204.8,2378.5c7.7-32.6,7.7-63.2,0-70.9c-5.7-7.7-199.2-82.4-427.2-168.6l-415.7-155.2l-44.1,78.6c-34.5,59.4-38.3,80.5-19.2,86.2c57.5,21.1,869.8,285.4,881.3,287.4C4185.6,2437.9,4197.1,2411,4204.8,2378.5z M6283.5,2284.6c235.6-74.7,431.1-137.9,433-139.8c1.9-1.9-15.3-40.2-36.4-82.4l-42.2-78.6L6203,2144.8c-348.7,130.3-436.8,170.5-436.8,197.3c0,61.3,23,97.7,55.5,86.2C5839,2424.4,6045.9,2357.4,6283.5,2284.6z M4269.9,2154.3c36.4-105.4,285.5-503.9,327.6-530.7c11.5-7.7,65.1,26.8,122.6,74.7c55.6,47.9,107.3,88.1,115,88.1c5.8,0,11.5-957.9,11.5-2130.4v-2128.5l-205,13.4c-220.3,13.4-436.8,51.7-846.8,149.4l-256.7,61.3l11.5,153.3c7.7,86.2,21.1,245.2,32.6,356.3c63.2,664.8,59.4,1448.3-11.5,2040.3c-17.2,137.9-38.3,456-46,708.8c-17.2,463.6-38.3,611.1-124.5,850.6c-15.3,46-26.8,86.2-24.9,90c7.7,5.7,825.7,312.3,841,312.3C4224,2265.4,4247,2215.6,4269.9,2154.3z M6203,2108.3c346.8-126.4,425.3-160.9,415.7-185.8c-97.7-251-143.7-551.8-143.7-933c0-149.4-17.2-417.6-38.3-595.8c-86.2-739.5-88.1-1358.3-5.7-2270.2c17.2-199.2,28.7-364,23-367.8c-13.4-13.4-647.6-159-795.1-183.9c-76.6-11.5-220.3-28.7-321.9-34.5l-183.9-13.4v2132.3v2134.2l107.3-92l107.3-90l38.3,46c126.4,160.9,260.5,383.2,312.3,521.1c19.2,49.8,38.3,90,46,90C5770,2265.4,5967.4,2196.5,6203,2108.3z M3331.2,1951.3c105.4-254.8,137.9-429.1,149.4-791.2c9.6-319.9,3.8-429.1-30.7-480.9c-11.5-21.1-103.5,32.6-377.4,218.4c-199.2,134.1-369.8,251-379.3,258.6c-17.2,15.3,538.3,936.8,565.2,936.8C3266.1,2093,3298.6,2029.8,3331.2,1951.3z M7040.2,1631.3c155.2-252.9,274-467.5,266.3-475.1c-9.6-7.7-180.1-124.5-379.3-258.6c-385.1-258.6-381.2-258.6-406.1-130.3c-24.9,134.1,5.7,714.6,47.9,881.3C6613,1821,6718.3,2093,6741.3,2093C6750.9,2093,6883.1,1886.1,7040.2,1631.3z M5042,1888c32.5-28.7,34.5-122.6,34.5-2203.2v-2170.6h-76.6h-76.6v2176.4c0,2051.8,1.9,2180.2,34.5,2203.2C4999.9,1926.3,4999.9,1926.3,5042,1888z M3030.4,884.1c203.1-136,371.7-254.8,373.6-262.5c3.8-7.7-1.9-24.9-11.5-40.2c-13.4-21.1-97.7,26.8-377.4,218.4c-199.2,134.1-369.7,251-377.4,258.6c-13.4,11.5,0,76.6,17.2,76.6C2658.7,1135.1,2827.3,1022.1,3030.4,884.1z M7364,1102.5c15.3-38.3,47.9-13.4-379.3-302.7c-279.7-189.7-364-239.5-377.4-218.4c-9.6,15.3-15.3,32.6-11.5,40.2c3.8,15.3,724.2,509.6,743.3,511.5C7346.7,1135.1,7358.2,1119.8,7364,1102.5z"/><path d="M5632.1,2399.6c0-9.6,9.6-19.2,21.1-19.2c9.6,0,13.4,9.6,7.7,19.2c-5.7,11.5-15.3,19.2-21.1,19.2C5635.9,2418.7,5632.1,2411,5632.1,2399.6z"/><path d="M5576.5,2229c-23-61.3-84.3-180.1-137.9-260.6c-51.7-82.4-90-153.3-84.3-159c5.8-7.7,17.2-3.8,24.9,7.7c7.7,9.6,42.2,59.4,76.6,111.1c97.7,137.9,218.4,413.8,180.1,413.8C5626.3,2342.1,5599.5,2290.3,5576.5,2229z"/><path d="M3965.3,77.6c0-3.8,13.4-78.5,30.7-168.6c46-260.6,57.5-973.2,19.2-1274c-17.2-136-36.4-268.2-42.2-291.2c-7.7-24.9-3.8-44,7.7-44c42.2,0,97.7,490.4,99.6,871.7c0,375.5-57.5,910-97.7,910C3973,81.4,3965.3,79.5,3965.3,77.6z"/><path d="M5478.8,832.4V531.6l176.3-78.5l178.2-76.6l176.3,76.6l178.2,74.7v304.6v302.7h-354.4h-354.4V832.4z M6149.4,1029.7v-67.1h-316.1h-316.1v67.1v67.1h316.1h316.1V1029.7z M6149.4,736.6V548.9l-143.7-61.3c-78.6-34.5-155.2-61.3-172.4-61.3c-17.2,0-93.9,26.8-172.4,61.3l-143.7,61.3v187.8v187.7h316.1h316.1V736.6z"/><path d="M5978.8-37.4c-46-272-65.1-590-53.6-934.9c9.6-306.5,53.6-697.4,80.5-726.1c24.9-24.9,24.9,24.9-3.8,170.5c-59.4,308.4-42.1,1277.8,26.8,1567.1c5.7,23,1.9,42.2-9.6,42.2C6009.5,81.4,5990.3,27.8,5978.8-37.4z"/><path d="M6340.9-1778.8c0-9.6,9.6-13.4,19.2-7.6c11.5,5.7,19.2,15.3,19.2,21.1c0,3.8-7.7,7.7-19.2,7.7C6350.5-1757.8,6340.9-1767.3,6340.9-1778.8z"/><path d="M6371.6-2001.1l11.5-195.4l-84.3-21.1c-46-11.5-95.8-24.9-111.1-28.7c-159-40.2-191.6-51.7-191.6-65.1c0-21.1,364,69,398.5,99.6c19.2,15.3,23,55.6,11.5,164.8C6385-1815.2,6360.1-1782.7,6371.6-2001.1z"/><path d="M5919.5-2332.5c0-9.6,9.6-19.2,19.2-19.2c11.5,0,19.2,9.6,19.2,19.2c0,11.5-7.7,19.2-19.2,19.2C5929-2313.3,5919.5-2321,5919.5-2332.5z"/><path d="M3116.6,1801.8c-15.3-23-93.9-149.4-174.3-279.7c-136-220.3-168.6-289.3-130.3-264.4c28.7,17.2,354.4,567.1,342.9,578.6C3149.2,1842,3132,1826.7,3116.6,1801.8z"/><path d="M4961.6,1640.9c-21.1-23-19.2-34.5,5.7-61.3c30.7-28.7,34.5-28.7,65.1,0c24.9,26.8,26.8,38.3,5.7,61.3c-13.4,17.2-30.7,30.7-38.3,30.7S4975,1658.1,4961.6,1640.9z M5019,1614.1c0-9.6-7.7-19.2-19.2-19.2c-9.6,0-19.2,9.6-19.2,19.2c0,11.5,9.6,19.2,19.2,19.2C5011.4,1633.2,5019,1625.6,5019,1614.1z"/><path d="M4961.6,912.9c-21.1-23-19.2-34.5,5.7-61.3c30.7-28.7,34.5-28.7,65.1,0c24.9,26.8,26.8,38.3,5.7,61.3c-13.4,17.2-30.7,30.7-38.3,30.7S4975,930.1,4961.6,912.9z M5019,886.1c0-9.6-7.7-19.2-19.2-19.2c-9.6,0-19.2,9.6-19.2,19.2c0,11.5,9.6,19.2,19.2,19.2C5011.4,905.2,5019,897.6,5019,886.1z"/><path d="M4961.6,184.9c-21.1-23-19.2-34.5,5.7-61.3c30.7-28.7,34.5-28.7,65.1,0c24.9,26.8,26.8,38.3,5.7,61.3c-13.4,17.2-30.7,30.7-38.3,30.7S4975,202.1,4961.6,184.9z M5019,158.1c0-9.6-7.7-19.2-19.2-19.2c-9.6,0-19.2,9.6-19.2,19.2c0,11.5,9.6,19.2,19.2,19.2C5011.4,177.2,5019,169.6,5019,158.1z"/><path d="M4961.6-543.1c-21.1-23-19.2-34.5,5.7-61.3c30.7-28.7,34.5-28.7,65.1,0c24.9,26.8,26.8,38.3,5.7,61.3c-13.4,17.2-30.7,30.7-38.3,30.7S4975-525.9,4961.6-543.1z M5019-570c0-9.6-7.7-19.2-19.2-19.2c-9.6,0-19.2,9.6-19.2,19.2c0,11.5,9.6,19.2,19.2,19.2C5011.4-550.8,5019-558.5,5019-570z"/><path d="M4961.6-1271.1c-21.1-23-19.2-34.5,5.7-61.3c30.7-28.7,34.5-28.7,65.1,0c24.9,26.8,26.8,38.3,5.7,61.3c-13.4,17.2-30.7,30.7-38.3,30.7S4975-1253.9,4961.6-1271.1z M5019-1298c0-9.6-7.7-19.2-19.2-19.2c-9.6,0-19.2,9.6-19.2,19.2c0,11.5,9.6,19.2,19.2,19.2C5011.4-1278.8,5019-1286.5,5019-1298z"/><path d="M4961.6-1999.2c-21.1-23-19.2-34.5,5.7-61.3c30.7-28.7,34.5-28.7,65.1,0c24.9,26.8,26.8,38.3,5.7,61.3c-13.4,17.2-30.7,30.7-38.3,30.7S4975-1981.9,4961.6-1999.2z M5019-2026c0-9.6-7.7-19.2-19.2-19.2c-9.6,0-19.2,9.6-19.2,19.2c0,11.5,9.6,19.2,19.2,19.2C5011.4-2006.8,5019-2014.5,5019-2026z"/></g></g>
</svg>