<?xml version="1.0" encoding="utf-8"?>
<!-- Svg Vector Icons : http://www.onlinewebfonts.com/icon -->
<!DOCTYPE svg PUBLIC "-//W3C//DTD SVG 1.1//EN" "http://www.w3.org/Graphics/SVG/1.1/DTD/svg11.dtd">
<svg version="1.1" xmlns="http://www.w3.org/2000/svg" xmlns:xlink="http://www.w3.org/1999/xlink" x="0px" y="0px" viewBox="0 0 1000 1000" enable-background="new 0 0 1000 1000" xml:space="preserve">
<metadata> Svg Vector Icons : http://www.onlinewebfonts.com/icon </metadata>
<g><g transform="translate(0.000000,512.000000) scale(0.100000,-0.100000)"><path d="M4563.1,5003.1c-252.9-23-509.6-69-800.8-141.8c-335.3-86.2-570.9-174.3-917.7-344.8c-536.4-262.5-862.1-496.2-1302.8-938.7c-442.6-440.6-676.3-766.3-938.7-1302.7C304.2,1667.7,160.5,1125.5,110.7,430.1c-46-641.8,57.5-1377.5,281.6-1988.6c101.5-279.7,350.6-772.1,515.4-1019.2c641.8-965.6,1626.5-1693.6,2716.6-2005.8c1557.5-450.2,3193.7-120.7,4460,896.6c396.6,318,833.4,816.2,1097.8,1249.1c883.2,1452.2,956,3245.4,193.5,4762.7c-373.6,745.2-971.3,1417.7-1678.3,1887.1c-247.1,164.8-739.5,413.8-1019.2,515.4C6030.6,4964.8,5258.5,5064.4,4563.1,5003.1z M5471.2,4926.5c1415.8-139.8,2693.6-894.7,3509.8-2074.8c846.8-1222.3,1074.8-2816.2,607.3-4235.9c-480.9-1463.7-1622.7-2603.6-3084.5-3084.5c-603.5-199.2-1310.4-279.7-1936.9-222.2C2074.4-4460.9,172-2378.5,172,119.7c0,2128.5,1392.8,4006,3431.2,4624.8c251,74.7,653.3,157.1,898.5,182C4741.2,4949.5,5229.8,4951.4,5471.2,4926.5z"/><path d="M3026.6,2510.7c0-136-17.2-346.8-38.3-494.3c-59.4-398.5-114.9-2178.3-114.9-3651.5c0-775.9,1.9-827.6,34.5-856.4c32.6-28.7,126.4-32.5,967.5-32.5h933l26.8,42.1c21.1,34.5,34.5,297,67.1,1241.5c23,659,46,1226.1,51.7,1260.6c7.7,44.1,19.2,61.3,46,61.3c49.8,0,49.8-3.9,95.8-1178.2c47.9-1262.5,55.5-1364.1,90-1400.5c23-23,174.3-26.8,940.7-26.8c797,0,919.6,3.8,957.9,30.6l42.1,28.7v837.2c0,839.1-21.1,1892.8-57.5,2877.6c-15.3,417.6-28.7,565.2-61.3,708.8c-28.7,130.3-42.1,268.2-47.9,484.7l-7.7,300.8H4988.4H3026.6V2510.7z M4195.2,2476.2v-191.6h-546h-546v191.6v191.6h546h546V2476.2z M5747,2476.2v-191.6h-737.6h-737.6v191.6v191.6h737.6H5747V2476.2z M6877.4,2476.2v-191.6h-526.9h-526.8v191.6v191.6h526.8h526.9V2476.2z M4195.2,2089.2c0-151.3-26.8-247.1-88.1-321.9c-78.5-92-139.8-99.6-630.3-72.8l-440.6,24.9l3.8,95.8c1.9,53.6,13.4,162.8,24.9,245.2l23,147.5h553.7h553.7V2089.2z M4310.2,2179.2c0-15.3,9.6-28.7,19.2-28.7c11.5,0,19.2,13.4,19.2,28.7c0,24.9,46,28.7,306.5,28.7h306.5v-973.2c0-731.8-5.7-979-23-996.2c-17.2-17.3-17.2-23,0-23c13.4,0,23-17.2,23-38.3s-7.7-38.3-19.2-38.3c-51.7,0-61.3-128.4-105.4-1279.8c-26.8-660.9-47.9-1224.2-47.9-1252.9v-53.6h-919.6c-804.6,0-919.6,3.8-919.6,28.7c0,15.3,13.4,28.7,28.7,28.7s28.7,9.6,28.7,19.2c0,11.5-11.5,19.2-26.8,19.2c-42.1,0-46,212.6-28.7,1427.3c19.2,1396.6,53.6,2544.2,76.6,2567.2c5.7,3.8,141.8,0,306.5-9.6c657.1-40.2,708.8-34.5,825.7,90c69,72.8,86.2,122.6,101.5,318c7.7,92,21.1,166.7,30.7,166.7C4302.5,2208,4310.2,2194.6,4310.2,2179.2z M5268.1,1518.3c0-766.3-1.9-774-122.6-831.5c-36.4-17.2-74.7-30.7-86.2-30.7c-15.3,0-21.1,224.2-21.1,775.9V2208h115h114.9V1518.3z M5670.4,2169.7c0-21.1,9.6-38.3,19.2-38.3c11.5,0,19.2,17.2,19.2,40.2s9.6,36.4,24.9,32.6c15.3-5.7,26.8-67.1,32.6-180.1c13.4-191.6,44.1-268.2,139.8-341c101.5-76.6,178.2-84.3,643.7-57.5c237.5,15.3,434.9,23,438.7,17.2c5.7-3.8-1.9-23-15.3-40.2c-19.2-19.2-19.2-34.5-5.8-42.1c32.6-21.1,69-1314.2,90-3193.7c7.7-645.7,3.8-718.4-38.3-718.4c-15.3,0-26.8-7.7-26.8-19.2c0-9.6,13.4-19.2,28.7-19.2s28.7-13.4,28.7-28.7c0-24.9-113-28.7-908.1-28.7h-910l-9.6,82.4c-5.7,44.1-28.7,538.4-49.8,1095.9c-49.8,1297-53.6,1346.8-97.7,1390.9c-40.2,40.2-47.9,93.9-13.4,93.9c17.2,0,17.2,5.7,0,23c-13.4,13.4-23,84.3-23,182v157.1l72.8,19.2c38.3,11.5,95.8,44.1,126.4,70.9c105.4,97.7,107.3,118.8,107.3,860.2V2208h162.9C5657,2208,5670.4,2204.1,5670.4,2169.7z M6902.3,2117.9c51.7-174.3,80.5-371.7,55.6-387c-13.4-7.7-214.6-23-448.3-36.4c-425.3-23-427.2-23-511.5,21.1c-111.1,53.7-147.5,130.3-162.9,335.3l-11.5,157.1h524.9h526.8L6902.3,2117.9z"/><path d="M3141.5,2524.1c0-57.5,9.6-105.4,19.2-105.4c11.5,0,19.2,38.3,19.2,86.2v86.2h162.8c95.8,0,162.8,7.7,162.8,19.2s-72.8,19.2-182,19.2h-182V2524.1z"/><path d="M3543.9,2610.3c0-9.6,9.6-19.2,19.2-19.2c11.5,0,19.2,9.6,19.2,19.2c0,11.5-7.7,19.2-19.2,19.2C3553.4,2629.4,3543.9,2621.8,3543.9,2610.3z"/><path d="M5089.9,2537.5c-42.1-46-40.2-86.2,1.9-124.5c46-42.2,86.2-40.2,124.5,1.9c42.1,46,40.2,86.2-1.9,124.5C5168.5,2581.6,5128.2,2579.6,5089.9,2537.5z M5172.3,2476.2c0-9.6-7.7-19.2-19.2-19.2c-9.6,0-19.2,9.6-19.2,19.2c0,11.5,9.6,19.2,19.2,19.2C5164.6,2495.3,5172.3,2487.7,5172.3,2476.2z"/><path d="M6187.7,2610.3c0-9.6,9.6-19.2,19.2-19.2c11.5,0,19.2,9.6,19.2,19.2c0,11.5-7.7,19.2-19.2,19.2C6197.2,2629.4,6187.7,2621.8,6187.7,2610.3z"/><path d="M6264.3,2610.3c0-11.5,109.2-19.2,287.4-19.2s287.4,7.7,287.4,19.2s-109.2,19.2-287.4,19.2S6264.3,2621.8,6264.3,2610.3z"/><path d="M6340.9,2533.7c0-9.6,9.6-19.2,19.2-19.2c11.5,0,19.2,9.6,19.2,19.2c0,11.5-7.7,19.2-19.2,19.2C6350.5,2552.8,6340.9,2545.2,6340.9,2533.7z"/><path d="M6417.6,2533.7c0-11.5,82.4-19.2,210.7-19.2c128.4,0,210.7,7.7,210.7,19.2c0,11.5-82.4,19.2-210.7,19.2C6499.9,2552.8,6417.6,2545.2,6417.6,2533.7z"/><path d="M4310.2,2073.9c0-21.1,9.6-38.3,19.2-38.3c11.5,0,19.2,17.2,19.2,38.3s-7.7,38.3-19.2,38.3C4319.8,2112.2,4310.2,2094.9,4310.2,2073.9z"/><path d="M4310.2,1958.9c0-21.1,9.6-38.3,19.2-38.3c11.5,0,19.2,17.2,19.2,38.3c0,21.1-7.7,38.3-19.2,38.3C4319.8,1997.2,4310.2,1980,4310.2,1958.9z"/><path d="M4300.6,1857.4c-7.7-19.2-9.6-40.2-1.9-46c19.2-19.2,34.5,7.7,24.9,46C4315.9,1889.9,4315.9,1889.9,4300.6,1857.4z"/><path d="M4245,1736.7c-17.2-42.1,5.7-61.3,26.8-26.8c23,36.4,23,57.5,1.9,57.5C4264.2,1767.3,4250.8,1753.9,4245,1736.7z"/><path d="M4137.8,1623.6c-19.2-23-19.2-28.7,5.7-28.7c15.3,0,38.3,13.4,51.7,28.7c19.2,23,19.2,28.7-5.7,28.7C4174.1,1652.4,4151.2,1639,4137.8,1623.6z"/><path d="M3064.9,1575.8c0-9.6,17.2-19.2,38.3-19.2s38.3,9.6,38.3,19.2c0,11.5-17.2,19.2-38.3,19.2S3064.9,1587.3,3064.9,1575.8z"/><path d="M3179.8,1575.8c0-9.6,17.2-19.2,38.3-19.2c21.1,0,38.3,9.6,38.3,19.2c0,11.5-17.2,19.2-38.3,19.2C3197.1,1594.9,3179.8,1587.3,3179.8,1575.8z"/><path d="M4038.1,1581.5c-38.3-9.6-46-44.1-9.6-44.1c32.6,0,78.5,32.6,59.4,42.1C4078.4,1583.4,4055.4,1585.3,4038.1,1581.5z"/><path d="M3310.1,1562.3c11.5-3.8,34.5-3.8,47.9,0c11.5,5.8,1.9,9.6-24.9,9.6C3306.3,1571.9,3296.7,1568.1,3310.1,1562.3z"/><path d="M3409.7,1556.6c0-9.6,17.2-19.2,38.3-19.2c21.1,0,38.3,9.6,38.3,19.2c0,11.5-17.2,19.2-38.3,19.2C3427,1575.8,3409.7,1568.1,3409.7,1556.6z"/><path d="M3524.7,1556.6c0-9.6,17.2-19.2,38.3-19.2c21.1,0,38.3,9.6,38.3,19.2c0,11.5-17.2,19.2-38.3,19.2C3541.9,1575.8,3524.7,1568.1,3524.7,1556.6z"/><path d="M3639.6,1556.6c0-9.6,19.2-19.2,44.1-19.2c34.5,0,36.4,3.8,13.4,19.2C3660.7,1581.5,3639.6,1581.5,3639.6,1556.6z"/><path d="M3764.2,1537.4c5.7-9.6,24.9-19.2,40.2-19.2c15.3,0,26.8,9.6,26.8,19.2c0,11.5-17.2,19.2-40.2,19.2C3769.9,1556.6,3758.4,1548.9,3764.2,1537.4z"/><path d="M3869.5,1537.4c0-9.6,21.1-19.2,47.9-19.2s47.9,9.6,47.9,19.2c0,11.5-21.1,19.2-47.9,19.2S3869.5,1548.9,3869.5,1537.4z"/><path d="M4850.4,192.5c-26.8-26.8-30.7-53.6-5.8-53.6c17.2,0,46,57.5,34.5,69C4875.3,211.7,4861.9,204,4850.4,192.5z"/><path d="M4789.1,62.3c0-21.1,9.6-38.3,19.2-38.3c11.5,0,19.2,17.2,19.2,38.3c0,21.1-7.7,38.3-19.2,38.3C4798.7,100.6,4789.1,83.3,4789.1,62.3z"/><path d="M4789.1-52.7c0-21.1,9.6-38.3,19.2-38.3c11.5,0,19.2,17.2,19.2,38.3c0,21.1-7.7,38.3-19.2,38.3C4798.7-14.4,4789.1-31.6,4789.1-52.7z"/><path d="M4793-167.6c0-26.8,3.8-36.4,9.6-23c3.8,11.5,3.8,34.5,0,47.9C4796.8-131.2,4793-140.8,4793-167.6z"/><path d="M4770-282.6c0-21.1,9.6-38.3,19.2-38.3c11.5,0,19.2,17.2,19.2,38.3c0,21.1-7.7,38.3-19.2,38.3C4779.6-244.3,4770-261.5,4770-282.6z"/><path d="M4770-397.5c0-21.1,9.6-38.3,19.2-38.3c11.5,0,19.2,17.2,19.2,38.3c0,21.1-7.7,38.3-19.2,38.3C4779.6-359.2,4770-376.5,4770-397.5z"/><path d="M4770-512.5c0-21.1,9.6-38.3,19.2-38.3c11.5,0,19.2,17.2,19.2,38.3c0,21.1-7.7,38.3-19.2,38.3C4779.6-474.2,4770-491.4,4770-512.5z"/><path d="M4770-627.4c0-21.1,3.8-38.3,7.7-38.3c3.8,0,11.5,17.2,17.2,38.3c5.8,21.1,1.9,38.3-7.7,38.3S4770-606.4,4770-627.4z"/><path d="M4760.4-729c-7.7-19.2-9.6-40.2-1.9-46c19.2-19.2,34.5,7.7,24.9,46C4775.7-696.4,4775.7-696.4,4760.4-729z"/><path d="M4750.8-857.3c0-21.1,9.6-38.3,19.2-38.3c11.5,0,19.2,17.2,19.2,38.3c0,21.1-7.7,38.3-19.2,38.3C4760.4-819,4750.8-836.3,4750.8-857.3z"/><path d="M4750.8-972.3c0-21.1,9.6-38.3,19.2-38.3c11.5,0,19.2,17.2,19.2,38.3c0,21.1-7.7,38.3-19.2,38.3C4760.4-934,4750.8-951.2,4750.8-972.3z"/><path d="M4750.8-1091.1c0-36.4,3.8-38.3,19.2-15.3c24.9,36.4,24.9,57.5,0,57.5C4760.4-1048.9,4750.8-1068.1,4750.8-1091.1z"/><path d="M4745.1-1202.2c-5.8-21.1-1.9-38.3,7.7-38.3c9.6,0,17.2,17.2,17.2,38.3c0,21.1-3.8,38.3-7.7,38.3C4758.5-1163.8,4750.8-1181.1,4745.1-1202.2z"/><path d="M4731.7-1317.1c0-21.1,9.6-38.3,19.2-38.3c11.5,0,19.2,17.2,19.2,38.3c0,21.1-7.7,38.3-19.2,38.3C4741.2-1278.8,4731.7-1296,4731.7-1317.1z"/><path d="M4731.7-1432.1c0-21.1,9.6-38.3,19.2-38.3c11.5,0,19.2,17.2,19.2,38.3c0,21.1-7.7,38.3-19.2,38.3C4741.2-1393.7,4731.7-1411,4731.7-1432.1z"/><path d="M4731.7-1548.9c0-21.1,9.6-32.6,19.2-26.8c11.5,5.7,19.2,24.9,19.2,40.2c0,15.3-7.7,26.8-19.2,26.8C4741.2-1508.7,4731.7-1525.9,4731.7-1548.9z"/><path d="M4735.5-1662c0-26.8,3.8-36.4,9.6-23c3.8,11.5,3.8,34.5,0,47.9C4739.3-1625.6,4735.5-1635.1,4735.5-1662z"/><path d="M4712.5-1776.9c0-21.1,9.6-38.3,19.2-38.3c11.5,0,19.2,17.2,19.2,38.3c0,21.1-7.7,38.3-19.2,38.3C4722.1-1738.6,4712.5-1755.8,4712.5-1776.9z"/><path d="M4712.5-1891.9c0-21.1,9.6-38.3,19.2-38.3c11.5,0,19.2,17.2,19.2,38.3c0,21.1-7.7,38.3-19.2,38.3C4722.1-1853.5,4712.5-1870.8,4712.5-1891.9z"/><path d="M4712.5-2006.8c0-21.1,9.6-38.3,19.2-38.3c11.5,0,19.2,17.2,19.2,38.3c0,21.1-7.7,38.3-19.2,38.3C4722.1-1968.5,4712.5-1985.7,4712.5-2006.8z"/><path d="M4716.3-2121.8c0-26.8,3.8-36.4,9.6-23c3.8,11.5,3.8,34.5,0,47.9C4720.2-2085.4,4716.3-2094.9,4716.3-2121.8z"/><path d="M4693.3-2236.7c0-21.1,9.6-38.3,19.2-38.3c11.5,0,19.2,17.2,19.2,38.3c0,21.1-7.7,38.3-19.2,38.3C4702.9-2198.4,4693.3-2215.6,4693.3-2236.7z"/><path d="M4679.9-2342.1c-34.5-38.3-30.6-47.9,13.4-47.9c24.9,0,38.3,13.4,38.3,38.3C4731.7-2307.6,4712.5-2303.8,4679.9-2342.1z"/><path d="M3045.7-2370.8c0-9.6,17.2-19.2,38.3-19.2c21.1,0,38.3,9.6,38.3,19.2c0,11.5-17.2,19.2-38.3,19.2C3063-2351.7,3045.7-2359.3,3045.7-2370.8z"/><path d="M3160.7-2370.8c0-9.6,17.2-19.2,38.3-19.2c21.1,0,38.3,9.6,38.3,19.2c0,11.5-17.2,19.2-38.3,19.2C3177.9-2351.7,3160.7-2359.3,3160.7-2370.8z"/><path d="M3275.6-2370.8c0-9.6,17.2-19.2,38.3-19.2c21.1,0,38.3,9.6,38.3,19.2c0,11.5-17.2,19.2-38.3,19.2C3292.9-2351.7,3275.6-2359.3,3275.6-2370.8z"/><path d="M3390.6-2370.8c0-9.6,17.2-19.2,38.3-19.2c21.1,0,38.3,9.6,38.3,19.2c0,11.5-17.2,19.2-38.3,19.2C3407.8-2351.7,3390.6-2359.3,3390.6-2370.8z"/><path d="M3505.5-2370.8c0-9.6,17.2-19.2,38.3-19.2c21.1,0,38.3,9.6,38.3,19.2c0,11.5-17.2,19.2-38.3,19.2C3522.8-2351.7,3505.5-2359.3,3505.5-2370.8z"/><path d="M3620.5-2370.8c0-9.6,17.2-19.2,38.3-19.2c21.1,0,38.3,9.6,38.3,19.2c0,11.5-17.2,19.2-38.3,19.2C3637.7-2351.7,3620.5-2359.3,3620.5-2370.8z"/><path d="M3735.4-2370.8c0-9.6,17.2-19.2,38.3-19.2s38.3,9.6,38.3,19.2c0,11.5-17.2,19.2-38.3,19.2S3735.4-2359.3,3735.4-2370.8z"/><path d="M3850.4-2370.8c0-9.6,17.2-19.2,38.3-19.2c21.1,0,38.3,9.6,38.3,19.2c0,11.5-17.2,19.2-38.3,19.2C3867.6-2351.7,3850.4-2359.3,3850.4-2370.8z"/><path d="M3965.3-2370.8c0-9.6,17.2-19.2,38.3-19.2s38.3,9.6,38.3,19.2c0,11.5-17.2,19.2-38.3,19.2S3965.3-2359.3,3965.3-2370.8z"/><path d="M4080.3-2370.8c0-9.6,17.2-19.2,38.3-19.2c21.1,0,38.3,9.6,38.3,19.2c0,11.5-17.2,19.2-38.3,19.2C4097.5-2351.7,4080.3-2359.3,4080.3-2370.8z"/><path d="M4195.2-2370.8c0-9.6,17.2-19.2,38.3-19.2s38.3,9.6,38.3,19.2c0,11.5-17.2,19.2-38.3,19.2S4195.2-2359.3,4195.2-2370.8z"/><path d="M4310.2-2370.8c0-9.6,17.2-19.2,38.3-19.2c21.1,0,38.3,9.6,38.3,19.2c0,11.5-17.2,19.2-38.3,19.2C4327.4-2351.7,4310.2-2359.3,4310.2-2370.8z"/><path d="M4425.1-2370.8c0-9.6,17.2-19.2,38.3-19.2s38.3,9.6,38.3,19.2c0,11.5-17.2,19.2-38.3,19.2S4425.1-2359.3,4425.1-2370.8z"/><path d="M4540.1-2370.8c0-9.6,17.2-19.2,38.3-19.2c21.1,0,38.3,9.6,38.3,19.2c0,11.5-17.2,19.2-38.3,19.2C4557.3-2351.7,4540.1-2359.3,4540.1-2370.8z"/><path d="M5670.4,2066.2c0-15.3,9.6-34.5,19.2-40.2c11.5-5.7,19.2,5.7,19.2,26.8c0,23-7.7,40.2-19.2,40.2C5680,2093,5670.4,2081.5,5670.4,2066.2z"/><path d="M5693.4,1939.8c0-26.8,3.8-36.4,9.6-23c3.8,11.5,3.8,34.5,0,47.9C5697.2,1976.2,5693.4,1966.6,5693.4,1939.8z"/><path d="M5689.6,1849.7c0-26.8,36.4-72.8,47.9-61.3c15.3,15.3-9.6,74.7-30.7,74.7C5697.2,1863.1,5689.6,1857.4,5689.6,1849.7z"/><path d="M5747,1719.4c13.4-15.3,32.6-28.7,42.1-28.7c11.5,0,9.6,13.4-3.8,28.7c-13.4,15.3-32.6,28.7-42.2,28.7C5731.7,1748.2,5733.6,1734.8,5747,1719.4z"/><path d="M5823.7,1637.1c0-9.6,13.4-24.9,30.6-30.7c19.2-7.7,26.8-1.9,23,11.5C5867.7,1646.6,5823.7,1662,5823.7,1637.1z"/><path d="M5919.5,1577.7c0-21.1,59.4-46,74.7-30.7c5.7,5.7-1.9,19.2-17.3,28.7C5940.5,1598.7,5919.5,1598.7,5919.5,1577.7z"/><path d="M6724.1,1575.8c0-9.6,17.3-19.2,38.3-19.2s38.3,9.6,38.3,19.2c0,11.5-17.2,19.2-38.3,19.2S6724.1,1587.3,6724.1,1575.8z"/><path d="M6839,1575.8c0-9.6,17.2-19.2,38.3-19.2c21.1,0,38.3,9.6,38.3,19.2c0,11.5-17.2,19.2-38.3,19.2C6856.3,1594.9,6839,1587.3,6839,1575.8z"/><path d="M6379.2,1556.6c0-9.6,17.2-19.2,38.3-19.2c21.1,0,38.3,9.6,38.3,19.2c0,11.5-17.2,19.2-38.3,19.2C6396.5,1575.8,6379.2,1568.1,6379.2,1556.6z"/><path d="M6494.2,1556.6c0-9.6,17.2-19.2,38.3-19.2c21.1,0,38.3,9.6,38.3,19.2c0,11.5-17.2,19.2-38.3,19.2C6511.4,1575.8,6494.2,1568.1,6494.2,1556.6z"/><path d="M6609.1,1558.5c0-9.6,17.2-13.4,38.3-7.7c21.1,5.7,38.3,13.4,38.3,17.2c0,3.8-17.3,7.7-38.3,7.7S6609.1,1568.1,6609.1,1558.5z"/><path d="M6034.4,1537.4c0-9.6,17.2-19.2,38.3-19.2c21.1,0,38.3,9.6,38.3,19.2c0,11.5-17.2,19.2-38.3,19.2C6051.6,1556.6,6034.4,1548.9,6034.4,1537.4z"/><path d="M6149.4,1537.4c0-9.6,17.2-19.2,38.3-19.2s38.3,9.6,38.3,19.2c0,11.5-17.3,19.2-38.3,19.2S6149.4,1548.9,6149.4,1537.4z"/><path d="M6279.6,1543.2c11.5-3.8,34.5-3.8,47.9,0c11.5,5.8,1.9,9.6-24.9,9.6S6266.2,1548.9,6279.6,1543.2z"/><path d="M6965.5-554.6c7.7-551.7,21.1-1019.2,30.7-1040.3c9.6-23,11.5,262.5,5.7,687.8c-5.7,400.4-9.6,867.9-9.6,1040.3c0,206.9-7.7,312.3-21.1,312.3C6957.8,445.4,6955.9,144.6,6965.5-554.6z"/><path d="M5114.8,205.9c0-34.5,36.4-76.6,49.8-61.3c7.7,7.7,0,28.7-17.2,46C5130.1,209.8,5114.8,215.5,5114.8,205.9z"/><path d="M5172.3,62.3c0-21.1,9.6-38.3,19.2-38.3c11.5,0,19.2,17.2,19.2,38.3c0,21.1-7.7,38.3-19.2,38.3C5181.9,100.6,5172.3,83.3,5172.3,62.3z"/><path d="M5172.3-52.7c0-21.1,9.6-38.3,19.2-38.3c11.5,0,19.2,17.2,19.2,38.3c0,21.1-7.7,38.3-19.2,38.3C5181.9-14.4,5172.3-31.6,5172.3-52.7z"/><path d="M5195.3-167.6c0-26.8,3.8-36.4,9.6-23c3.8,11.5,3.8,34.5,0,47.9C5199.1-131.2,5195.3-140.8,5195.3-167.6z"/><path d="M5191.4-282.6c0-21.1,9.6-38.3,19.2-38.3c11.5,0,19.2,17.2,19.2,38.3c0,21.1-7.7,38.3-19.2,38.3C5201-244.3,5191.4-261.5,5191.4-282.6z"/><path d="M5191.4-397.5c0-21.1,9.6-38.3,19.2-38.3c11.5,0,19.2,17.2,19.2,38.3c0,21.1-7.7,38.3-19.2,38.3C5201-359.2,5191.4-376.5,5191.4-397.5z"/><path d="M5191.4-501c0-15.3,9.6-34.5,19.2-40.2c11.5-5.8,19.2,5.7,19.2,26.8c0,23-7.7,40.2-19.2,40.2C5201-474.2,5191.4-485.7,5191.4-501z"/><path d="M5214.4-627.4c0-26.8,3.8-36.4,9.6-23c3.8,11.5,3.8,34.5,0,47.9C5218.3-591,5214.4-600.6,5214.4-627.4z"/><path d="M5210.6-742.4c0-21.1,9.6-38.3,19.2-38.3c11.5,0,19.2,17.2,19.2,38.3c0,21.1-7.7,38.3-19.2,38.3C5220.2-704.1,5210.6-721.3,5210.6-742.4z"/><path d="M5210.6-857.3c0-21.1,9.6-38.3,19.2-38.3c11.5,0,19.2,17.2,19.2,38.3c0,21.1-7.7,38.3-19.2,38.3C5220.2-819,5210.6-836.3,5210.6-857.3z"/><path d="M5210.6-947.4c0-9.6,9.6-28.7,19.2-44c15.3-23,19.2-21.1,19.2,15.3c0,23-7.7,42.2-19.2,42.2C5220.2-934,5210.6-939.7,5210.6-947.4z"/><path d="M5229.8-1081.5c0-24.9,9.6-44,19.2-44c24.9,0,24.9,21.1,0,57.5C5233.6-1045.1,5229.8-1047,5229.8-1081.5z"/><path d="M5229.8-1202.2c0-21.1,9.6-38.3,19.2-38.3c11.5,0,19.2,17.2,19.2,38.3c0,21.1-7.7,38.3-19.2,38.3C5239.3-1163.8,5229.8-1181.1,5229.8-1202.2z"/><path d="M5229.8-1317.1c0-21.1,9.6-38.3,19.2-38.3c11.5,0,19.2,17.2,19.2,38.3c0,21.1-7.7,38.3-19.2,38.3C5239.3-1278.8,5229.8-1296,5229.8-1317.1z"/><path d="M5252.8-1432.1c0-26.8,3.8-36.4,9.6-23c3.8,11.5,3.8,34.5,0,47.9C5256.6-1395.7,5252.8-1405.3,5252.8-1432.1z"/><path d="M5248.9-1545.1c0-23,9.6-40.2,19.2-40.2c11.5,0,19.2,11.5,19.2,26.8s-7.7,34.5-19.2,40.2C5258.5-1512.5,5248.9-1524,5248.9-1545.1z"/><path d="M5248.9-1662c0-21.1,9.6-38.3,19.2-38.3c11.5,0,19.2,17.2,19.2,38.3c0,21.1-7.7,38.3-19.2,38.3C5258.5-1623.6,5248.9-1640.9,5248.9-1662z"/><path d="M5248.9-1776.9c0-21.1,9.6-38.3,19.2-38.3c11.5,0,19.2,17.2,19.2,38.3c0,21.1-7.7,38.3-19.2,38.3C5258.5-1738.6,5248.9-1755.8,5248.9-1776.9z"/><path d="M5271.9-1891.9c0-26.8,3.8-36.4,9.6-23c3.8,11.5,3.8,34.5,0,47.9C5275.7-1855.5,5271.9-1865,5271.9-1891.9z"/><path d="M5268.1-2006.8c0-21.1,9.6-38.3,19.2-38.3c11.5,0,19.2,17.2,19.2,38.3c0,21.1-7.7,38.3-19.2,38.3C5277.7-1968.5,5268.1-1985.7,5268.1-2006.8z"/><path d="M5268.1-2121.8c0-21.1,9.6-38.3,19.2-38.3c11.5,0,19.2,17.2,19.2,38.3c0,21.1-7.7,38.3-19.2,38.3C5277.7-2083.4,5268.1-2100.7,5268.1-2121.8z"/><path d="M5268.1-2236.7c0-21.1,9.6-38.3,19.2-38.3c11.5,0,19.2,17.2,19.2,38.3c0,21.1-7.7,38.3-19.2,38.3C5277.7-2198.4,5268.1-2215.6,5268.1-2236.7z"/><path d="M5287.2-2349.7c0-23,11.5-40.2,28.7-40.2c15.3,0,28.7,5.7,28.7,11.5c0,5.7-13.4,23-28.7,38.3C5291.1-2313.3,5287.2-2315.3,5287.2-2349.7z"/><path d="M5383-2370.8c0-9.6,17.2-19.2,38.3-19.2c21.1,0,38.3,9.6,38.3,19.2c0,11.5-17.2,19.2-38.3,19.2C5400.3-2351.7,5383-2359.3,5383-2370.8z"/><path d="M5498-2370.8c0-9.6,17.2-19.2,38.3-19.2c21.1,0,38.3,9.6,38.3,19.2c0,11.5-17.2,19.2-38.3,19.2C5515.2-2351.7,5498-2359.3,5498-2370.8z"/><path d="M5612.9-2370.8c0-9.6,17.2-19.2,38.3-19.2c21.1,0,38.3,9.6,38.3,19.2c0,11.5-17.3,19.2-38.3,19.2C5630.2-2351.7,5612.9-2359.3,5612.9-2370.8z"/><path d="M5727.9-2370.8c0-9.6,17.2-19.2,38.3-19.2c21.1,0,38.3,9.6,38.3,19.2c0,11.5-17.2,19.2-38.3,19.2C5745.1-2351.7,5727.9-2359.3,5727.9-2370.8z"/><path d="M5842.8-2370.8c0-9.6,17.2-19.2,38.3-19.2c21.1,0,38.3,9.6,38.3,19.2c0,11.5-17.2,19.2-38.3,19.2C5860-2351.7,5842.8-2359.3,5842.8-2370.8z"/><path d="M5957.8-2370.8c0-9.6,17.2-19.2,38.3-19.2c21.1,0,38.3,9.6,38.3,19.2c0,11.5-17.3,19.2-38.3,19.2C5975-2351.7,5957.8-2359.3,5957.8-2370.8z"/><path d="M6072.7-2370.8c0-9.6,17.3-19.2,38.3-19.2s38.3,9.6,38.3,19.2c0,11.5-17.3,19.2-38.3,19.2S6072.7-2359.3,6072.7-2370.8z"/><path d="M6187.7-2370.8c0-9.6,17.3-19.2,38.3-19.2s38.3,9.6,38.3,19.2c0,11.5-17.2,19.2-38.3,19.2S6187.7-2359.3,6187.7-2370.8z"/><path d="M6302.6-2370.8c0-9.6,17.2-19.2,38.3-19.2c21.1,0,38.3,9.6,38.3,19.2c0,11.5-17.2,19.2-38.3,19.2C6319.9-2351.7,6302.6-2359.3,6302.6-2370.8z"/><path d="M6417.6-2370.8c0-9.6,17.2-19.2,38.3-19.2s38.3,9.6,38.3,19.2c0,11.5-17.3,19.2-38.3,19.2S6417.6-2359.3,6417.6-2370.8z"/><path d="M6532.5-2370.8c0-9.6,17.3-19.2,38.3-19.2s38.3,9.6,38.3,19.2c0,11.5-17.3,19.2-38.3,19.2S6532.5-2359.3,6532.5-2370.8z"/><path d="M6647.5-2370.8c0-9.6,17.2-19.2,38.3-19.2c21.1,0,38.3,9.6,38.3,19.2c0,11.5-17.2,19.2-38.3,19.2C6664.7-2351.7,6647.5-2359.3,6647.5-2370.8z"/><path d="M6762.4-2370.8c0-9.6,17.2-19.2,38.3-19.2c21.1,0,38.3,9.6,38.3,19.2c0,11.5-17.2,19.2-38.3,19.2C6779.7-2351.7,6762.4-2359.3,6762.4-2370.8z"/><path d="M6877.4-2370.8c0-9.6,17.2-19.2,38.3-19.2s38.3,9.6,38.3,19.2c0,11.5-17.3,19.2-38.3,19.2S6877.4-2359.3,6877.4-2370.8z"/></g></g>
</svg>