<?xml version="1.0" encoding="utf-8"?>
<!-- Svg Vector Icons : http://www.onlinewebfonts.com/icon -->
<!DOCTYPE svg PUBLIC "-//W3C//DTD SVG 1.1//EN" "http://www.w3.org/Graphics/SVG/1.1/DTD/svg11.dtd">
<svg version="1.1" xmlns="http://www.w3.org/2000/svg" xmlns:xlink="http://www.w3.org/1999/xlink" x="0px" y="0px" viewBox="0 0 1000 1000" enable-background="new 0 0 1000 1000" xml:space="preserve">
<metadata> Svg Vector Icons : http://www.onlinewebfonts.com/icon </metadata>
<g><g transform="translate(0.000000,512.000000) scale(0.100000,-0.100000)"><path d="M4563.1,5003.1c-252.9-23-509.6-69-800.8-141.8c-335.3-86.2-570.9-174.3-917.7-344.8c-536.4-262.5-862.1-496.2-1302.8-938.7c-442.6-440.6-676.3-766.3-938.7-1302.7C304.2,1667.7,160.5,1125.5,110.7,430.1c-46-641.8,57.5-1377.5,281.6-1988.6c101.5-279.7,350.6-772.1,515.4-1019.2c641.8-965.6,1626.5-1693.6,2716.6-2005.8c1557.5-450.2,3193.7-120.7,4460,896.6c396.6,318,833.4,816.2,1097.8,1249.1c883.2,1452.2,956,3245.4,193.5,4762.7c-373.6,745.2-971.3,1417.7-1678.3,1887.1c-247.1,164.8-739.5,413.8-1019.2,515.4C6030.6,4964.8,5258.5,5064.4,4563.1,5003.1z M5471.2,4926.5c1415.8-139.8,2693.6-894.7,3509.8-2074.8c846.8-1222.3,1074.8-2816.2,607.3-4235.9c-480.9-1463.7-1622.7-2603.6-3084.5-3084.5c-603.5-199.2-1310.4-279.7-1936.9-222.2C2074.4-4460.9,172-2378.5,172,119.7c0,2128.5,1392.8,4006,3431.2,4624.8c251,74.7,653.3,157.1,898.5,182C4741.2,4949.5,5229.8,4951.4,5471.2,4926.5z"/><path d="M3459.6,2702.2c-256.7-687.8-310.4-879.4-365.9-1262.5c-42.2-300.8-55.6-705-30.7-969.4c23-245.2,415.7-2936.9,433-2952.3c30.7-32.5,808.5-65.1,1503.9-65.1c699.3,0,1473.3,32.6,1505.8,65.1c3.8,5.8,86.2,534.5,182,1176.3c93.9,641.8,189.7,1287.4,212.7,1434.9c30.6,205,40.2,362.1,42.1,670.5c0,624.6-69,1002-302.7,1634.2c-69,183.9-126.4,335.3-130.3,337.2c-3.8,3.8-122.6-13.4-264.4-38.3c-141.8-23-341-53.6-440.6-65.1c-291.2-34.5-1030.7-46-1350.6-21.1c-262.5,21.1-875.5,105.4-936.8,128.4C3499.8,2782.7,3480.6,2755.9,3459.6,2702.2z M3846.5,2644.8c197.3-30.6,291.2-51.7,291.2-67.1c0-13.4-17.2-24.9-38.3-24.9s-38.3-7.7-38.3-19.2c0-9.6,17.2-19.2,36.4-19.2c34.5,0,36.4-9.6,26.8-109.2c-5.7-61.3-19.2-113-26.8-116.9c-9.6-3.8-11.5-28.7-5.7-53.6c11.5-42.1,7.7-46-32.6-38.3c-24.9,5.8-93.9,13.4-151.3,21.1c-57.5,5.7-197.3,24.9-310.4,42.2c-197.3,30.6-251,55.6-168.6,76.6c42.1,11.5,49.8,36.4,15.3,47.9c-34.5,11.5,42.1,208.8,88.1,226.1c24.9,7.7,30.7,17.2,15.3,26.8c-24.9,15.3-30.7,49.8-7.7,49.8C3547.7,2686.9,3685.6,2667.8,3846.5,2644.8z M6475,2658.2c0-15.3-13.4-28.7-28.7-28.7s-28.7-7.7-28.7-19.2c0-9.6,19.2-17.2,40.2-13.4c36.4,3.8,47.9-15.3,80.5-111.1c21.1-63.2,46-130.3,53.6-147.5c9.6-17.2,9.6-36.4,1.9-42.1c-13.4-7.7-176.3-32.6-630.3-95.8c-69-9.6-82.4,17.2-28.7,57.5c30.6,23,28.7,24.9-9.6,26.8c-38.3,0-44.1,9.6-44.1,72.8c0,38.3-5.8,90-11.5,115c-9.6,30.7-3.8,42.1,19.2,42.1c17.2,0,30.7,9.6,30.7,19.2c0,11.5-13.4,19.2-28.7,19.2s-28.7,11.5-28.7,24.9c0,15.3,82.4,36.4,254.8,63.2C6440.6,2692.7,6475,2694.6,6475,2658.2z M4264.2,2539.4c-5.8-30.6-15.3-120.7-23-201.2c-9.6-114.9-19.2-149.4-40.2-149.4c-24.9,0-26.8,21.1-17.2,130.3c23,228,32.6,272,63.2,272C4268,2591.1,4271.9,2577.7,4264.2,2539.4z M4999.9,2556.7c162.8,0,377.4,5.7,475.1,11.5c99.6,7.7,182,9.6,185.8,3.8c1.9-5.7,11.5-76.6,19.2-157.1c11.5-130.3,9.6-149.4-17.3-149.4c-46,0-36.4-32.6,11.5-46c34.5-7.7,38.3-15.3,19.2-34.5c-19.2-19.2-172.4-24.9-680.1-24.9c-360.2,0-670.5,5.7-691.6,15.3c-28.7,11.5-30.7,19.2-11.5,42.2c11.5,15.3,17.2,36.4,9.6,47.9c-7.7,11.5-7.7,69,0,126.4c9.6,76.6,21.1,103.4,44.1,103.4c24.9,0,24.9,3.8-5.7,24.9c-63.2,47.9-17.2,61.3,166.7,47.9C4622.5,2562.4,4837,2556.7,4999.9,2556.7z M5793,2520.2c5.8-40.2,15.3-130.3,23-201.2c9.6-109.2,7.7-130.3-17.2-130.3c-21.1,0-30.7,34.5-40.2,149.4c-7.6,80.5-17.2,170.5-23,201.2c-7.7,38.3-3.8,51.7,17.2,51.7C5771.9,2591.1,5785.4,2566.2,5793,2520.2z M3461.5,2202.2c7.7-9.6-298.9-1222.3-318-1252.9c-17.2-30.6-19.2-26.8-21.1,24.9c-1.9,241.4,93.9,810.4,183.9,1095.8c49.8,155.2,53.6,159,101.5,147.5C3434.6,2209.9,3459.6,2204.1,3461.5,2202.2z M6691.5,2070c28.7-88.1,63.2-218.4,80.5-291.2c69-302.7,130.3-883.2,90-844.9c-11.5,11.5-90,298.9-172.4,641.8c-111.1,446.4-147.5,626.5-132.2,636C6618.7,2252,6643.6,2225.2,6691.5,2070z M3563,2150.5c0-47.9,30.7-49.8,42.1-3.8c9.6,32.6,21.1,32.6,262.5,1.9c137.9-17.2,256.7-36.4,262.5-42.1c7.7-5.8-32.6-475.1-86.2-1042.2C3990.2,497.2,3946.2,22,3946.2,10.5c0-13.4,15.3-24.9,34.5-24.9c28.7,0,42.2,93.9,126.4,982.8c49.8,538.3,95.8,1017.3,101.5,1063.3l11.5,82.4l164.8-11.5c90-5.7,256.7-15.3,371.7-21.1l205-11.5V-211.7v-2279.8l-410,11.5c-459.8,13.4-971.3,49.8-992.4,69c-23,23-417.6,2758.8-431.1,2988.7l-11.5,229.9l55.6,63.2c49.8,55.6,74.7,139.8,208.8,691.6C3517,2123.7,3563,2271.2,3563,2150.5z M6398.4,2150.5c0-21.1,9.6-38.3,19.2-38.3c11.5,0,19.2,17.2,19.2,38.3c0,118.8,44.1-26.8,180.1-590.1c137.9-563.3,159-632.2,208.8-687.8l57.5-61.3l-11.5-231.8c-13.4-229.9-408.1-2967.6-431.1-2990.6c-19.2-19.2-517.3-53.6-984.7-67.1l-417.6-13.4v2279.8V2070l178.2,11.5c95.8,5.8,258.6,15.3,360.2,19.2l185.8,9.6l9.6-61.3c5.7-34.5,57.5-511.5,113-1061.4c92-902.3,105.4-1002,134.1-1002c19.2,0,34.5,11.5,34.5,24.9c0,11.5-47.9,488.5-105.4,1055.6c-86.2,831.5-101.5,1036.5-82.4,1048c13.4,9.6,59.4,17.2,101.5,17.2c42.1,1.9,145.6,13.4,229.9,26.8c84.3,13.4,164.8,26.8,178.2,28.7C6386.9,2186.9,6398.4,2171.6,6398.4,2150.5z"/><path d="M3601.3,2610.3c0-9.6,17.2-19.2,40.2-19.2c21.1,0,32.6,9.6,26.8,19.2c-5.7,11.5-24.9,19.2-40.2,19.2C3612.8,2629.4,3601.3,2621.8,3601.3,2610.3z"/><path d="M3716.3,2591.1c0-9.6,19.2-19.2,44.1-19.2c34.5,0,36.4,3.8,13.4,19.2C3737.4,2616,3716.3,2616,3716.3,2591.1z"/><path d="M3831.2,2572c0-9.6,19.2-19.2,44.1-19.2c34.5,0,36.4,3.8,13.4,19.2C3852.3,2596.9,3831.2,2596.9,3831.2,2572z"/><path d="M3946.2,2552.8c0-9.6,17.2-19.2,40.2-19.2c21.1,0,32.6,9.6,26.8,19.2c-5.7,11.5-24.9,19.2-40.2,19.2C3957.7,2572,3946.2,2564.3,3946.2,2552.8z"/><path d="M3505.5,2342.1c0-9.6,17.2-19.2,38.3-19.2c21.1,0,38.3,9.6,38.3,19.2c0,11.5-17.2,19.2-38.3,19.2C3522.8,2361.2,3505.5,2353.6,3505.5,2342.1z"/><path d="M3620.5,2322.9c0-9.6,17.2-19.2,38.3-19.2c21.1,0,38.3,9.6,38.3,19.2c0,11.5-17.2,19.2-38.3,19.2C3637.7,2342.1,3620.5,2334.4,3620.5,2322.9z"/><path d="M3735.4,2303.8c0-9.6,17.2-19.2,38.3-19.2s38.3,9.6,38.3,19.2c0,11.5-17.2,19.2-38.3,19.2S3735.4,2315.3,3735.4,2303.8z"/><path d="M3860,2284.6c5.7-9.6,24.9-19.2,40.2-19.2c15.3,0,26.8,9.6,26.8,19.2c0,11.5-17.2,19.2-40.2,19.2C3865.7,2303.8,3854.2,2296.1,3860,2284.6z"/><path d="M3965.3,2284.6c0-9.6,19.2-19.2,44.1-19.2c34.5,0,36.4,3.8,13.4,19.2C3986.4,2309.5,3965.3,2309.5,3965.3,2284.6z"/><path d="M6302.6,2591.1c0-24.9,21.1-24.9,57.5,0c23,15.3,21.1,19.2-13.4,19.2C6321.8,2610.3,6302.6,2602.6,6302.6,2591.1z"/><path d="M6187.7,2572c0-24.9,21.1-24.9,57.5,0c23,15.3,21.1,19.2-13.4,19.2C6206.8,2591.1,6187.7,2583.5,6187.7,2572z"/><path d="M5992.3,2558.6c-19.2-3.8-34.5-15.3-34.5-24.9c0-7.7,17.2-11.5,38.3-5.7c21.1,5.7,38.3,17.2,38.3,26.8s-1.9,15.3-3.8,15.3C6026.7,2568.1,6009.5,2564.3,5992.3,2558.6z"/><path d="M6072.7,2552.8c0-24.9,21.1-24.9,57.5,0c23,15.3,21.1,19.2-13.4,19.2C6091.9,2572,6072.7,2564.3,6072.7,2552.8z"/><path d="M6455.9,2342.1c0-24.9,21.1-24.9,57.5,0c23,15.3,21.1,19.2-13.4,19.2C6475,2361.2,6455.9,2353.6,6455.9,2342.1z"/><path d="M6340.9,2322.9c0-24.9,21.1-24.9,57.5,0c23,15.3,21.1,19.2-13.4,19.2C6360.1,2342.1,6340.9,2334.4,6340.9,2322.9z"/><path d="M6130.2,2303.8c-23-15.3-21.1-19.2,15.3-19.2c23,0,42.1,9.6,42.1,19.2C6187.7,2328.7,6166.6,2328.7,6130.2,2303.8z"/><path d="M6226,2305.7c0-9.6,17.2-13.4,38.3-7.7c21.1,5.7,38.3,13.4,38.3,17.2c0,3.8-17.2,7.7-38.3,7.7C6243.2,2322.9,6226,2315.3,6226,2305.7z"/><path d="M5996.1,2284.6c0-9.6,17.3-19.2,38.3-19.2s38.3,9.6,38.3,19.2c0,11.5-17.2,19.2-38.3,19.2S5996.1,2296.1,5996.1,2284.6z"/><path d="M4425.1,2495.3c0-9.6,17.2-19.2,38.3-19.2s38.3,9.6,38.3,19.2c0,11.5-17.2,19.2-38.3,19.2S4425.1,2506.8,4425.1,2495.3z"/><path d="M4540.1,2495.3c0-9.6,17.2-19.2,38.3-19.2c21.1,0,38.3,9.6,38.3,19.2c0,11.5-17.2,19.2-38.3,19.2C4557.3,2514.5,4540.1,2506.8,4540.1,2495.3z"/><path d="M5459.7,2495.3c0-9.6,17.2-19.2,38.3-19.2c21.1,0,38.3,9.6,38.3,19.2c0,11.5-17.2,19.2-38.3,19.2C5476.9,2514.5,5459.7,2506.8,5459.7,2495.3z"/><path d="M5574.6,2495.3c0-9.6,11.5-19.2,26.8-19.2c15.3,0,34.5,9.6,40.2,19.2c5.7,11.5-5.7,19.2-26.8,19.2C5591.8,2514.5,5574.6,2506.8,5574.6,2495.3z"/><path d="M4670.3,2481.9c11.5-3.8,34.5-3.8,47.9,0c11.5,5.8,1.9,9.6-24.9,9.6C4666.5,2491.5,4656.9,2487.7,4670.3,2481.9z"/><path d="M4770,2476.2c0-9.6,17.2-19.2,38.3-19.2c21.1,0,38.3,9.6,38.3,19.2c0,11.5-17.2,19.2-38.3,19.2C4787.2,2495.3,4770,2487.7,4770,2476.2z"/><path d="M4884.9,2476.2c0-9.6,17.2-19.2,38.3-19.2c21.1,0,38.3,9.6,38.3,19.2c0,11.5-17.2,19.2-38.3,19.2C4902.2,2495.3,4884.9,2487.7,4884.9,2476.2z"/><path d="M4999.9,2476.2c0-9.6,17.2-19.2,38.3-19.2c21.1,0,38.3,9.6,38.3,19.2c0,11.5-17.2,19.2-38.3,19.2C5017.1,2495.3,4999.9,2487.7,4999.9,2476.2z"/><path d="M5114.8,2476.2c0-9.6,17.2-19.2,38.3-19.2c21.1,0,38.3,9.6,38.3,19.2c0,11.5-17.2,19.2-38.3,19.2C5132,2495.3,5114.8,2487.7,5114.8,2476.2z"/><path d="M5229.8,2476.2c0-9.6,17.2-19.2,38.3-19.2c21.1,0,38.3,9.6,38.3,19.2c0,11.5-17.2,19.2-38.3,19.2C5247,2495.3,5229.8,2487.7,5229.8,2476.2z"/><path d="M5360,2481.9c11.5-3.8,34.5-3.8,47.9,0c11.5,5.8,1.9,9.6-24.9,9.6C5356.2,2491.5,5346.6,2487.7,5360,2481.9z"/><path d="M4367.7,2246.3c0-9.6,17.2-19.2,38.3-19.2s38.3,9.6,38.3,19.2c0,11.5-17.2,19.2-38.3,19.2S4367.7,2257.8,4367.7,2246.3z"/><path d="M4482.6,2246.3c0-9.6,19.2-19.2,44.1-19.2c34.5,0,36.4,3.8,13.4,19.2C4503.7,2271.2,4482.6,2271.2,4482.6,2246.3z"/><path d="M5517.1,2246.3c0-9.6,17.2-19.2,38.3-19.2c21.1,0,38.3,9.6,38.3,19.2c0,11.5-17.3,19.2-38.3,19.2C5534.4,2265.4,5517.1,2257.8,5517.1,2246.3z"/><path d="M4607.1,2227.1c5.7-9.6,24.9-19.2,40.2-19.2c15.3,0,26.8,9.6,26.8,19.2c0,11.5-17.2,19.2-40.2,19.2C4612.9,2246.3,4601.4,2238.6,4607.1,2227.1z"/><path d="M4712.5,2227.1c0-9.6,17.2-19.2,38.3-19.2c21.1,0,38.3,9.6,38.3,19.2c0,11.5-17.2,19.2-38.3,19.2C4729.7,2246.3,4712.5,2238.6,4712.5,2227.1z"/><path d="M4827.4,2227.1c0-9.6,17.2-19.2,38.3-19.2s38.3,9.6,38.3,19.2c0,11.5-17.2,19.2-38.3,19.2S4827.4,2238.6,4827.4,2227.1z"/><path d="M4942.4,2227.1c0-9.6,17.2-19.2,38.3-19.2c21.1,0,38.3,9.6,38.3,19.2c0,11.5-17.2,19.2-38.3,19.2C4959.6,2246.3,4942.4,2238.6,4942.4,2227.1z"/><path d="M5057.3,2227.1c0-9.6,17.2-19.2,38.3-19.2c21.1,0,38.3,9.6,38.3,19.2c0,11.5-17.3,19.2-38.3,19.2C5074.6,2246.3,5057.3,2238.6,5057.3,2227.1z"/><path d="M5172.3,2227.1c0-9.6,17.2-19.2,38.3-19.2c21.1,0,38.3,9.6,38.3,19.2c0,11.5-17.3,19.2-38.3,19.2C5189.5,2246.3,5172.3,2238.6,5172.3,2227.1z"/><path d="M5287.2,2227.1c0-9.6,17.2-19.2,38.3-19.2c21.1,0,38.3,9.6,38.3,19.2c0,11.5-17.2,19.2-38.3,19.2C5304.5,2246.3,5287.2,2238.6,5287.2,2227.1z"/><path d="M5417.5,2232.9c11.5-3.8,34.5-3.8,47.9,0c11.5,5.8,1.9,9.6-24.9,9.6C5413.7,2242.5,5404.1,2238.6,5417.5,2232.9z"/><path d="M3538.1,2035.5c-5.8-21.1-1.9-38.3,7.7-38.3s17.2,3.8,17.2,7.7c0,3.8,5.7,21.1,11.5,38.3c5.7,17.2,3.8,30.7-7.7,30.7C3557.3,2073.9,3543.9,2056.6,3538.1,2035.5z"/><path d="M3515.1,1934c-7.7-19.2-9.6-40.2-1.9-46c19.2-19.2,34.5,7.7,24.9,46C3530.4,1966.6,3530.4,1966.6,3515.1,1934z"/><path d="M3486.4,1801.8c0-36.4,3.8-38.3,19.2-15.3c24.9,36.4,24.9,57.5,0,57.5C3496,1844,3486.4,1824.8,3486.4,1801.8z"/><path d="M3457.6,1704.1c-7.7-19.2-9.6-40.2-1.9-46c19.2-19.2,34.5,7.7,24.9,46C3473,1736.7,3473,1736.7,3457.6,1704.1z"/><path d="M3428.9,1573.8c0-21.1,9.6-32.6,19.2-26.8c11.5,5.7,19.2,24.9,19.2,40.2c0,15.3-7.7,26.8-19.2,26.8C3438.5,1614.1,3428.9,1596.8,3428.9,1573.8z"/><path d="M3400.2,1474.2c-7.7-19.2-9.6-40.2-1.9-46c19.2-19.2,34.5,7.7,24.9,46C3415.5,1506.8,3415.5,1506.8,3400.2,1474.2z"/><path d="M3371.4,1343.9c0-21.1,9.6-32.6,19.2-26.8c11.5,5.7,19.2,24.9,19.2,40.2c0,15.3-7.7,26.8-19.2,26.8C3381,1384.2,3371.4,1366.9,3371.4,1343.9z"/><path d="M3344.6,1238.6c-15.3-40.2-15.3-46,5.7-46c9.6,0,21.1,17.2,26.8,38.3C3388.7,1276.9,3361.9,1282.6,3344.6,1238.6z"/><path d="M3314,1114c0-21.1,9.6-32.6,19.2-26.8c11.5,5.7,19.2,24.9,19.2,40.2c0,15.3-7.7,26.8-19.2,26.8C3323.5,1154.3,3314,1137,3314,1114z"/><path d="M3287.1,1008.7c-15.3-40.2-15.3-46,5.7-46c9.6,0,21.1,17.2,26.8,38.3C3331.2,1047,3304.4,1052.7,3287.1,1008.7z"/><path d="M3248.8,893.7c-7.7-17.2-7.7-36.4-3.8-40.2c15.3-15.3,49.8,15.3,49.8,44.1C3294.8,934,3264.1,932,3248.8,893.7z"/><path d="M3160.7,799.8c-13.4-15.3-15.3-28.7-3.8-28.7c9.6,0,28.7,13.4,42.2,28.7s15.3,28.7,3.8,28.7C3193.3,828.6,3174.1,815.2,3160.7,799.8z"/><path d="M3342.7-765.4c5.7-34.5,61.3-411.9,124.5-837.2c63.2-425.3,116.9-775.9,118.8-777.8c19.2-15.3,379.3-28.7,379.3-13.4c0,9.6-74.7,23-166.7,28.7c-90,7.7-172.4,19.2-180.1,26.8c-9.6,11.5-247.1,1561.4-247.1,1620.8c0,7.7-9.6,13.4-19.2,13.4C3338.9-704.1,3335-729,3342.7-765.4z"/><path d="M6425.2,2043.2c5.7-17.2,11.5-34.5,11.5-38.3c0-3.8,7.7-7.7,17.3-7.7s13.4,17.2,7.6,38.3c-5.7,21.1-19.2,38.3-28.7,38.3C6421.4,2073.9,6419.5,2060.4,6425.2,2043.2z"/><path d="M6455.9,1922.5c0-23,9.6-40.2,19.2-40.2c11.5,0,19.2,11.5,19.2,26.8c0,15.3-7.7,34.5-19.2,40.2C6465.5,1955.1,6455.9,1943.6,6455.9,1922.5z"/><path d="M6475,1830.6c0-9.6,9.6-28.7,19.2-44.1c15.3-23,19.2-21.1,19.2,15.3c0,23-7.7,42.2-19.2,42.2C6484.6,1844,6475,1838.2,6475,1830.6z"/><path d="M5919.5,1729c0-9.6,9.6-19.2,19.2-19.2c11.5,0,19.2,9.6,19.2,19.2c0,11.5-7.7,19.2-19.2,19.2C5929,1748.2,5919.5,1740.5,5919.5,1729z"/><path d="M6513.4,1692.6c0-23,9.6-40.2,19.2-40.2c11.5,0,19.2,11.5,19.2,26.8c0,15.3-7.7,34.5-19.2,40.2C6522.9,1725.2,6513.4,1713.7,6513.4,1692.6z"/><path d="M5940.5,1623.6c-1.9-88.1,69-701.2,82.4-712.7c19.2-19.2,13.4,78.5-19.2,396.6C5975,1593,5942.5,1757.8,5940.5,1623.6z"/><path d="M6532.5,1587.3c0-15.3,9.6-34.5,19.2-40.2c11.5-5.7,19.2,5.7,19.2,26.8c0,23-7.7,40.2-19.2,40.2C6542.1,1614.1,6532.5,1602.6,6532.5,1587.3z"/><path d="M6570.8,1466.5c0-24.9,9.6-44.1,19.2-44.1c24.9,0,24.9,21.1,0,57.5C6574.7,1503,6570.8,1501,6570.8,1466.5z"/><path d="M6590,1357.3c0-15.3,9.6-34.5,19.2-40.2c11.5-5.7,19.2,5.7,19.2,26.8c0,23-7.7,40.2-19.2,40.2C6599.6,1384.2,6590,1372.7,6590,1357.3z"/><path d="M6622.6,1230.9c5.7-21.1,17.2-38.3,26.8-38.3c21.1,0,21.1,5.7,5.8,46C6637.9,1282.6,6611.1,1276.9,6622.6,1230.9z"/><path d="M6647.5,1127.5c0-15.3,9.6-34.5,19.2-40.2c11.5-5.7,19.2,5.7,19.2,26.8c0,23-7.7,40.2-19.2,40.2C6657,1154.3,6647.5,1142.8,6647.5,1127.5z"/><path d="M6680,1001c5.7-21.1,17.2-38.3,26.8-38.3c21.1,0,21.1,5.7,5.8,46C6695.4,1052.7,6668.5,1047,6680,1001z"/><path d="M6704.9,897.6c0-28.7,34.5-59.4,49.8-44.1c13.4,13.4-13.4,70.9-32.5,70.9C6712.6,924.4,6704.9,912.9,6704.9,897.6z"/><path d="M6800.7,799.8c13.4-15.3,32.6-28.7,42.2-28.7c11.5,0,9.6,13.4-3.8,28.7s-32.6,28.7-42.1,28.7C6785.4,828.6,6787.3,815.2,6800.7,799.8z"/></g></g>
</svg>