<?xml version="1.0" encoding="utf-8"?>
<!-- Svg Vector Icons : http://www.onlinewebfonts.com/icon -->
<!DOCTYPE svg PUBLIC "-//W3C//DTD SVG 1.1//EN" "http://www.w3.org/Graphics/SVG/1.1/DTD/svg11.dtd">
<svg version="1.1" xmlns="http://www.w3.org/2000/svg" xmlns:xlink="http://www.w3.org/1999/xlink" x="0px" y="0px" viewBox="0 0 1000 1000" enable-background="new 0 0 1000 1000" xml:space="preserve">
<metadata> Svg Vector Icons : http://www.onlinewebfonts.com/icon </metadata>
<g><g transform="translate(0.000000,512.000000) scale(0.100000,-0.100000)"><path d="M4563.1,5003.1c-252.9-23-509.6-69-800.8-141.8c-335.3-86.2-570.9-174.3-917.7-344.8c-536.4-262.5-862.1-496.2-1302.8-938.7c-442.6-440.6-676.3-766.3-938.7-1302.7C304.2,1667.7,160.5,1125.5,110.7,430.1c-46-641.8,57.5-1377.5,281.6-1988.6c101.5-279.7,350.6-772.1,515.4-1019.2c641.8-965.6,1626.5-1693.6,2716.6-2005.8c1557.5-450.2,3193.7-120.7,4460,896.6c396.6,318,833.4,816.2,1097.8,1249.1c883.2,1452.2,956,3245.4,193.5,4762.7c-373.6,745.2-971.3,1417.7-1678.3,1887.1c-247.1,164.8-739.5,413.8-1019.2,515.4C6030.6,4964.8,5258.5,5064.4,4563.1,5003.1z M5471.2,4926.5c1415.8-139.8,2693.6-894.7,3509.8-2074.8c846.8-1222.3,1074.8-2816.2,607.3-4235.9c-480.9-1463.7-1622.7-2603.6-3084.5-3084.5c-603.5-199.2-1310.4-279.7-1936.9-222.2C2074.4-4460.9,172-2378.5,172,119.7c0,2128.5,1392.8,4006,3431.2,4624.8c251,74.7,653.3,157.1,898.5,182C4741.2,4949.5,5229.8,4951.4,5471.2,4926.5z"/><path d="M4668.4,2692.7c-7.7-5.7-13.4-174.3-13.4-371.7c0-346.8-1.9-365.9-49.8-471.3c-44.1-103.5-49.8-147.5-74.7-601.6c-30.7-549.8-49.8-634.1-178.2-785.5c-38.3-46-400.4-440.6-804.6-875.5c-402.3-434.9-749.1-825.7-770.2-865.9c-93.9-183.9-120.7-434.9-67.1-638c101.5-390.8,394.7-595.8,852.5-597.7c157.1,0,231.8,9.6,337.2,44l137.9,42.2l888.9,827.6c488.5,456,910,843,934.9,860.2c26.8,15.3,92,44.1,143.7,63.2c461.7,168.6,695.4,674.4,523,1138c-21.1,59.4-47.9,120.7-59.4,134.1c-11.5,13.4-34.5,275.9-53.6,584.3c-26.8,459.8-40.2,580.5-72.8,672.5c-34.5,99.6-40.2,157.1-40.2,471.3c0,310.4-3.8,362.1-30.6,371.7C6231.7,2709.9,4683.8,2709.9,4668.4,2692.7z M4770,2342.1c0-178.2-7.7-287.4-19.2-287.4c-11.5,0-19.2,109.2-19.2,287.4s7.7,287.4,19.2,287.4C4762.3,2629.4,4770,2520.2,4770,2342.1z M4846.6,2342.1c0-178.2-7.7-287.4-19.2-287.4c-11.5,0-19.2,109.2-19.2,287.4s7.7,287.4,19.2,287.4C4838.9,2629.4,4846.6,2520.2,4846.6,2342.1z M4923.2,2342.1c0-178.2-7.7-287.4-19.2-287.4c-11.5,0-19.2,109.2-19.2,287.4s7.7,287.4,19.2,287.4C4915.6,2629.4,4923.2,2520.2,4923.2,2342.1z M4999.9,2342.1c0-178.2-7.7-287.4-19.2-287.4c-11.5,0-19.2,109.2-19.2,287.4s7.7,287.4,19.2,287.4C4992.2,2629.4,4999.9,2520.2,4999.9,2342.1z M5076.5,2342.1c0-178.2-7.7-287.4-19.2-287.4c-11.5,0-19.2,109.2-19.2,287.4s7.6,287.4,19.2,287.4C5068.8,2629.4,5076.5,2520.2,5076.5,2342.1z M5153.1,2342.1c0-178.2-7.7-287.4-19.2-287.4c-11.5,0-19.2,109.2-19.2,287.4s7.7,287.4,19.2,287.4C5145.5,2629.4,5153.1,2520.2,5153.1,2342.1z M5229.8,2342.1c0-178.2-7.7-287.4-19.2-287.4c-11.5,0-19.2,109.2-19.2,287.4s7.7,287.4,19.2,287.4C5222.1,2629.4,5229.8,2520.2,5229.8,2342.1z M5306.4,2342.1c0-178.2-7.7-287.4-19.2-287.4c-11.5,0-19.2,109.2-19.2,287.4s7.7,287.4,19.2,287.4C5298.7,2629.4,5306.4,2520.2,5306.4,2342.1z M5383,2342.1c0-178.2-7.7-287.4-19.2-287.4c-11.5,0-19.2,109.2-19.2,287.4s7.7,287.4,19.2,287.4C5375.4,2629.4,5383,2520.2,5383,2342.1z M5459.7,2342.1c0-178.2-7.7-287.4-19.2-287.4c-11.5,0-19.2,109.2-19.2,287.4s7.6,287.4,19.2,287.4C5452,2629.4,5459.7,2520.2,5459.7,2342.1z M5536.3,2342.1c0-178.2-7.7-287.4-19.2-287.4c-11.5,0-19.2,109.2-19.2,287.4s7.6,287.4,19.2,287.4C5528.6,2629.4,5536.3,2520.2,5536.3,2342.1z M5612.9,2342.1c0-178.2-7.7-287.4-19.2-287.4c-11.5,0-19.2,109.2-19.2,287.4s7.7,287.4,19.2,287.4C5605.3,2629.4,5612.9,2520.2,5612.9,2342.1z M5689.6,2342.1c0-178.2-7.7-287.4-19.2-287.4c-11.5,0-19.2,109.2-19.2,287.4s7.7,287.4,19.2,287.4C5681.9,2629.4,5689.6,2520.2,5689.6,2342.1z M5766.2,2342.1c0-178.2-7.7-287.4-19.2-287.4c-11.5,0-19.2,109.2-19.2,287.4s7.7,287.4,19.2,287.4C5758.5,2629.4,5766.2,2520.2,5766.2,2342.1z M5842.8,2342.1c0-178.2-7.7-287.4-19.2-287.4c-11.5,0-19.2,109.2-19.2,287.4s7.7,287.4,19.2,287.4C5835.1,2629.4,5842.8,2520.2,5842.8,2342.1z M5919.5,2342.1c0-178.2-7.7-287.4-19.2-287.4c-11.5,0-19.2,109.2-19.2,287.4s7.6,287.4,19.2,287.4C5911.8,2629.4,5919.5,2520.2,5919.5,2342.1z M5996.1,2342.1c0-178.2-7.7-287.4-19.2-287.4c-11.5,0-19.2,109.2-19.2,287.4s7.6,287.4,19.2,287.4C5988.4,2629.4,5996.1,2520.2,5996.1,2342.1z M6072.7,2342.1c0-178.2-7.7-287.4-19.2-287.4c-11.5,0-19.2,109.2-19.2,287.4s7.7,287.4,19.2,287.4C6065,2629.4,6072.7,2520.2,6072.7,2342.1z M6149.4,2342.1c0-178.2-7.7-287.4-19.2-287.4c-11.5,0-19.2,109.2-19.2,287.4s7.7,287.4,19.2,287.4C6141.7,2629.4,6149.4,2520.2,6149.4,2342.1z M6226,2342.1c0-178.2-7.7-287.4-19.2-287.4s-19.2,109.2-19.2,287.4s7.7,287.4,19.2,287.4S6226,2520.2,6226,2342.1z M6273.9,1824.8c38.3-120.7,49.8-228,72.8-661c28.7-509.6,30.7-519.2,92-670.5c70.9-178.2,92-373.6,55.6-526.8c-19.2-78.6-30.6-95.8-55.6-86.2c-195.4,78.5-678.2,258.6-695.4,258.6c-55.6,0,34.5-40.2,358.3-162.8C6291.1-96.8,6450.1-158,6454-160c3.8-3.8-17.3-46-46-95.8c-82.4-139.8-206.9-252.9-350.6-316.1c-70.9-30.7-164.8-76.6-208.8-99.6c-44.1-23-473.2-408.1-952.1-856.3c-977.1-913.9-954.1-896.6-1251-915.8c-350.6-21.1-647.5,103.5-777.8,327.6c-113,191.6-141.8,463.6-70.9,685.9c65.1,205,46,210.7,333.3-78.5c143.7-139.9,266.3-251,274-243.3c7.7,7.7-101.5,130.3-243.3,272.1L2904-1223.3l38.3,44.1c23,24.9,369.8,400.4,772.1,835.3c856.4,925.4,839.1,898.5,865.9,1264.4c9.6,122.6,24.9,358.3,34.5,521.1c11.5,235.6,24.9,314.2,55.6,383.2c21.1,47.9,44.1,101.5,49.8,120.7c9.6,30.7,59.4,32.6,760.6,28.7l749.1-5.7L6273.9,1824.8z"/><path d="M5383,1920.6c0-9.6,9.6-19.2,19.2-19.2c11.5,0,19.2,9.6,19.2,19.2c0,11.5-7.7,19.2-19.2,19.2C5392.6,1939.8,5383,1932.1,5383,1920.6z"/><path d="M5459.7,1920.6c0-11.5,137.9-21.1,348.7-23l348.7-5.7l34.5-111.1c21.1-69,38.3-214.6,46-373.6c7.7-143.7,21.1-283.5,30.7-310.4c7.7-26.8,9.6,80.5,3.8,249.1c-7.7,214.6-21.1,339.1-49.8,446.4l-40.2,147.5h-362.1C5597.6,1939.8,5459.7,1932.1,5459.7,1920.6z"/><path d="M5651.2,1824.8c0-9.6,9.6-19.2,19.2-19.2c11.5,0,19.2,9.6,19.2,19.2c0,11.5-7.7,19.2-19.2,19.2C5660.8,1844,5651.2,1836.3,5651.2,1824.8z"/><path d="M5727.9,1824.8c0-11.5,72.8-19.2,182-19.2c182,0,183.9,0,205-51.7c11.5-30.6,28.7-141.8,40.2-249.1c9.6-107.3,24.9-191.6,32.6-187.7c23,13.4,0,300.8-32.6,417.6l-30.6,109.2h-199.3C5806.4,1844,5727.9,1836.3,5727.9,1824.8z"/><path d="M4630.1,799.8c-28.7-151.3-55.6-231.8-101.5-300.8c-24.9-38.3-38.3-74.7-28.7-82.4c46-26.8,160.9,268.2,151.3,385.1l-7.7,74.7L4630.1,799.8z"/><path d="M4367.7-1911c0-9.6,9.6-19.2,19.2-19.2c11.5,0,19.2,9.6,19.2,19.2c0,11.5-7.7,19.2-19.2,19.2C4377.2-1891.9,4367.7-1899.5,4367.7-1911z"/><path d="M4156.9-2104.5c-90-84.3-193.5-168.6-229.9-187.7c-97.7-51.7-283.5-84.3-429.1-74.7c-70.9,3.8-126.4,1.9-126.4-5.7c0-23,168.6-38.3,291.2-24.9c218.4,23,306.5,69,509.6,268.2c103.5,97.7,178.2,178.2,166.7,178.2C4329.3-1951.3,4247-2020.2,4156.9-2104.5z"/></g></g>
</svg>