<?xml version="1.0" encoding="utf-8"?>
<!-- Svg Vector Icons : http://www.onlinewebfonts.com/icon -->
<!DOCTYPE svg PUBLIC "-//W3C//DTD SVG 1.1//EN" "http://www.w3.org/Graphics/SVG/1.1/DTD/svg11.dtd">
<svg version="1.1" xmlns="http://www.w3.org/2000/svg" xmlns:xlink="http://www.w3.org/1999/xlink" x="0px" y="0px" viewBox="0 0 1000 1000" enable-background="new 0 0 1000 1000" xml:space="preserve">
<metadata> Svg Vector Icons : http://www.onlinewebfonts.com/icon </metadata>
<g><g transform="translate(0.000000,512.000000) scale(0.100000,-0.100000)"><path d="M4563.1,5003.1c-252.9-23-509.6-69-800.8-141.8c-335.3-86.2-570.9-174.3-917.7-344.8c-536.4-262.5-862.1-496.2-1302.8-938.7c-442.6-440.6-676.3-766.3-938.7-1302.7C304.2,1667.7,160.5,1125.5,110.7,430.1c-46-641.8,57.5-1377.5,281.6-1988.6c101.5-279.7,350.6-772.1,515.4-1019.2c641.8-965.6,1626.5-1693.6,2716.6-2005.8c1557.5-450.2,3193.7-120.7,4460,896.6c396.6,318,833.4,816.2,1097.8,1249.1c883.2,1452.2,956,3245.4,193.5,4762.7c-373.6,745.2-971.3,1417.7-1678.3,1887.1c-247.1,164.8-739.5,413.8-1019.2,515.4C6030.6,4964.8,5258.5,5064.4,4563.1,5003.1z M5471.2,4926.5c1415.8-139.8,2693.6-894.7,3509.8-2074.8c846.8-1222.3,1074.8-2816.2,607.3-4235.9c-480.9-1463.7-1622.7-2603.6-3084.5-3084.5c-603.5-199.2-1310.4-279.7-1936.9-222.2C2074.4-4460.9,172-2378.5,172,119.7c0,2128.5,1392.8,4006,3431.2,4624.8c251,74.7,653.3,157.1,898.5,182C4741.2,4949.5,5229.8,4951.4,5471.2,4926.5z"/><path d="M3846.5,2780.8c-40.2-23-42.1-63.2-11.5-178.2c15.3-55.6,15.3-103.5,3.8-145.6c-15.3-57.5-28.7-65.1-160.9-103.5c-268.2-80.5-434.9-160.9-505.8-247.1c-205-254.8-318-647.5-365.9-1274c-15.3-212.7-42.1-442.6-59.4-515.4c-23-88.1-32.6-222.2-34.5-408.1c-1.9-377.4,44.1-1526.9,65.1-1609.3c9.6-36.4,23-155.2,30.7-262.5c9.6-155.2,19.2-203.1,47.9-228c23-21.1,40.2-72.8,47.9-145.6c7.7-61.3,26.8-132.2,46-153.3c32.6-40.2,36.4-40.2,231.8-15.3c109.2,13.4,218.4,30.6,241.4,40.2c55.6,21.1,67.1,78.5,46,208.8c-11.5,70.9-11.5,113,3.8,130.3c11.5,15.3,21.1,185.8,24.9,448.3c3.8,231.8,9.6,427.2,15.3,433c5.8,5.8,11.5-99.6,11.5-233.7c0-178.2,7.7-260.5,30.7-314.2c23-55.6,26.8-107.3,17.2-245.2c-9.6-151.3-7.7-176.3,23-203.1c51.7-44,971.3-189.7,1289.3-201.2c298.9-13.4,496.2,5.8,1063.3,101.6c490.4,82.4,475.1,72.8,457.9,314.2c-11.5,139.8-7.7,176.2,19.2,212.6c24.9,36.4,30.6,95.8,30.6,302.7c0,141.8,3.8,252.9,9.6,247.1c5.7-5.7,13.4-193.5,15.3-419.6c3.8-237.5,13.4-425.3,24.9-444.5c13.4-24.9,15.3-69,3.8-132.2c-23-120.7-7.7-183.9,47.9-205c23-9.6,130.3-26.8,239.5-40.2c239.5-30.7,245.2-26.8,275.9,162.9c11.5,80.4,32.6,141.8,49.8,155.2c40.2,30.6,74.7,348.7,99.6,917.7c9.6,243.3,26.8,607.3,40.2,810.4c23,379.3,15.3,547.9-32.6,779.8c-15.3,74.7-42.1,298.9-55.6,498.1c-32.6,411.9-65.1,613.1-137.9,827.6c-103.4,312.3-222.2,496.2-367.8,569c-109.2,55.6-413.8,164.8-461.7,164.8c-19.2,0-44.1,24.9-59.4,59.4c-21.1,51.7-19.2,78.6,7.7,178.2c28.7,109.2,28.7,118.8-1.9,149.4c-30.7,30.6-46,30.6-262.5-7.7c-201.2-36.4-308.4-40.2-871.7-42.1c-530.7-1.9-680.1,3.8-862.1,32.6c-120.7,19.2-233.7,38.3-249.1,42.1S3863.8,2792.3,3846.5,2780.8z M4197.1,2673.5c151.3-23,335.3-32.6,774-32.6c530.7-1.9,632.2,3.8,986.6,57.5c65.1,9.6,65.1,9.6,28.7-21.1c-136-113-620.7-304.6-825.7-327.6c-61.3-7.7-124.5-21.1-136-32.6c-17.2-11.5-32.6-11.5-47.9,0c-13.4,11.5-74.7,24.9-134.1,32.6c-208.8,23-576.7,160.9-791.2,295C3938.5,2715.7,3938.5,2715.7,4197.1,2673.5z M4166.5,2501.1c197.3-99.6,398.5-172.4,603.5-218.4l162.8-36.4l-191.6,11.5c-228,11.5-373.6,32.6-638,90c-174.3,36.4-195.4,46-191.6,80.5c3.8,30.7,17.2,36.4,63.2,32.6c53.6-3.8,55.6-1.9,21.1,24.9c-19.2,15.3-44.1,30.7-51.7,32.6c-9.6,3.8-23,34.5-28.7,70.9l-13.4,67.1l55.6-40.2C3988.3,2595,4082.2,2541.3,4166.5,2501.1z M6068.9,2587.3c-11.5-34.5-38.3-78.5-61.3-97.7l-40.2-34.5l47.9,5.8c36.4,3.8,49.8-3.8,53.6-32.6c3.8-32.6-11.5-42.1-115-63.2c-289.3-59.4-536.4-97.7-705-107.3c-193.5-11.5-189.7-7.7,95.8,57.5c149.4,34.5,463.6,166.7,622.6,262.5c63.2,38.3,116.9,69,118.8,70.9C6088,2648.6,6080.4,2619.9,6068.9,2587.3z M4091.8,2275c216.5-44.1,413.8-70.9,699.3-95.8l124.5-11.5l-44.1-128.4c-49.8-147.5-53.6-206.9-21.1-410c15.3-107.3,15.3-166.7,1.9-216.5c-17.2-51.7-15.3-70.9,5.8-88.1c21.1-17.2,32.6-7.7,57.5,51.7c28.7,67.1,28.7,95.8,7.7,260.6c-28.7,206.9-17.2,327.6,36.4,431.1l34.5,70.9l28.7-57.5c74.7-145.6,116.9-308.4,118.8-448.3c0-78.6-3.8-155.2-9.6-170.5c-3.8-15.3,5.8-30.7,24.9-34.5c69-17.2,78.5,254.8,13.4,465.6c-23,72.8-57.5,164.8-76.6,203.1l-36.4,70.9l101.5,9.6c387,38.3,528.8,57.5,720.3,99.6c260.6,59.4,306.6,53.6,580.5-51.7c323.8-126.4,327.6-130.3,214.6-375.5c-97.7-216.5-193.5-498.1-226.1-676.3c-49.8-260.6-72.8-798.9-72.8-1722.3c0-745.3-3.8-883.2-24.9-862.1c-15.3,15.3-95.8,113-180.1,218.4c-258.6,321.8-365.9,569-365.9,837.2v130.3h-833.4h-833.4v-134.1c0-289.3-82.4-488.5-350.6-848.7l-176.3-237.6l-1.9,873.6c-1.9,1509.7-36.4,1802.8-293.1,2400.5c-90,212.6-95.8,252.9-34.5,291.2c86.2,57.5,477,197.3,561.3,201.2C3854.2,2322.9,3967.3,2301.8,4091.8,2275z M3246.9,1805.6c210.7-486.6,245.2-666.7,277.8-1446.4c21.1-511.5,21.1-523-38.3-1139.9c-34.5-362.1-61.3-764.4-63.2-959.8l-3.8-337.2l-182-13.4c-99.6-5.8-214.6-21.1-254.8-32.6c-42.2-11.5-78.5-17.2-82.4-11.5c-3.8,3.8-15.3,107.3-24.9,229.9c-9.6,120.7-23,231.8-32.6,247.1c-9.6,13.4-23,266.3-30.7,561.3c-7.7,295-19.2,674.4-26.8,843c-11.5,266.3-7.7,333.3,26.8,517.3c23,116.9,53.6,383.2,69,595.8c34.5,440.6,95.8,726.1,210.7,975.1c38.3,82.4,72.8,145.6,76.6,141.8C3174.1,1970.4,3208.6,1893.8,3246.9,1805.6z M6890.8,1830.6c113-245.2,172.4-526.9,206.9-971.3c15.3-216.5,44.1-459.8,61.3-542.2c23-103.5,32.6-235.6,32.6-436.8c0-457.9-40.2-1507.8-61.3-1580.5c-11.5-36.4-24.9-147.5-30.7-247.1c-5.8-99.6-15.3-183.9-19.2-187.8c-3.8-5.7-40.2,0-82.4,11.5c-40.2,11.5-155.2,26.8-254.8,32.6l-182,13.4l-3.8,329.5c-3.8,266.3-51.7,936.8-109.2,1528.8c-15.3,145.6,24.9,1078.6,55.6,1277.9c13.4,99.6,49.8,254.8,76.6,344.8c49.8,153.3,220.3,574.7,235.6,574.7C6819.9,1978.1,6852.5,1911,6890.8,1830.6z M4271.9-401.4c-1.9-289.3-90-482.8-436.8-959.8C3668.4-1593,3609-1660,3605.2-1631.3c-3.8,26.8,61.3,134.1,197.3,316.1c293.1,400.4,410,662.9,411.9,929.2c0,42.1,5.7,84.3,13.4,90C4260.4-263.4,4271.9-292.2,4271.9-401.4z M5647.4-476.1c38.3-327.6,113-471.3,484.7-927.2c136-166.7,247.1-318,247.1-335.3c0-63.2-70.9-92-373.6-151.4c-888.9-170.5-1111.2-172.4-1933-15.3c-352.5,69-423.4,88.1-446.4,120.7c-23,38.3-7.7,65.1,222.2,383.2c136,187.7,277.8,398.5,316.1,469.4c80.5,149.4,145.6,383.2,145.6,524.9c0,53.6,5.7,105.4,13.4,111.1c5.7,7.7,302.7,13.4,655.2,13.4h645.6L5647.4-476.1z M5733.6-435.8c32.6-297,134.1-496.2,448.3-885.1c128.4-159,197.3-260.5,193.5-283.5c-3.8-26.8-63.2,34.5-216.5,222.2c-114.9,143.7-235.6,295-266.3,339.1c-132.2,193.5-220.3,461.7-222.2,670.5C5670.4-223.2,5716.4-271.1,5733.6-435.8z M4022.8-1970.4c457.9-90,655.2-113,977.1-113c335.3,0,415.7,9.6,934.9,109.2c201.2,38.3,373.6,63.2,381.3,55.6c7.6-7.7,17.2-72.8,21.1-145.6l7.7-130.3l-101.5-21.1c-57.5-11.5-266.3-47.9-467.5-82.4c-329.5-55.6-402.3-61.3-766.3-63.2c-377.4,0-429.1,5.7-833.4,72.8c-237.6,40.2-454,76.6-482.8,82.4c-49.8,9.6-53.6,17.2-53.6,109.2c0,130.3,17.2,185.9,55.6,185.9C3712.4-1911,3860-1937.8,4022.8-1970.4z M3398.3-2276.9c7.7-65.1,11.5-118.8,7.7-120.7c-19.2-15.3-402.3-59.4-408.1-47.9c-5.7,7.7-15.3,65.1-21.1,130.3c-11.5,109.2-11.5,115,32.6,124.5c88.1,19.2,141.8,24.9,258.6,28.7l116.9,1.9L3398.3-2276.9z M6980.8-2190.7c30.6-11.5,32.5-28.7,21.1-130.3c-5.7-63.2-15.3-120.7-21.1-124.5c-3.8-3.8-97.7,3.8-208.8,17.3c-222.2,26.8-210.7,15.3-187.7,182l11.5,91.9l176.3-11.5C6867.8-2173.5,6961.7-2183.1,6980.8-2190.7z"/><path d="M4291,2591.1c0-9.6,9.6-19.2,19.2-19.2c11.5,0,19.2,9.6,19.2,19.2c0,11.5-7.7,19.2-19.2,19.2C4300.6,2610.3,4291,2602.6,4291,2591.1z"/><path d="M4367.7,2596.9c0-11.5,46-24.9,101.5-32.6c160.9-19.2,1015.4-13.4,1048,7.7c19.2,11.5-151.4,19.2-500,19.2c-291.2,0-557.5,5.7-590.1,11.5C4392.6,2610.3,4367.7,2606.5,4367.7,2596.9z"/><path d="M3754.6,2246.3c0-9.6,9.6-19.2,19.2-19.2c11.5,0,19.2,9.6,19.2,19.2c0,11.5-7.7,19.2-19.2,19.2C3764.2,2265.4,3754.6,2257.8,3754.6,2246.3z"/><path d="M3507.5,2160.1c-90-36.4-170.5-74.7-182-86.2c-32.6-32.6,1.9-42.2,49.8-13.4c23,17.3,113,57.5,197.3,90c170.5,67.1,185.8,76.6,132.2,76.6C3685.6,2227.1,3595.6,2196.5,3507.5,2160.1z"/><path d="M6494.2,1619.8c-67.1-174.3-130.3-442.5-151.4-641.8c-32.6-295-51.7-1078.6-24.9-1061.4c15.3,9.6,23,97.7,23,275.9c0,697.4,63.2,1128.4,220.3,1503.9c7.7,19.2,5.7,32.6-5.7,32.6C6544,1729,6517.2,1679.2,6494.2,1619.8z"/><path d="M2854.2,209.8c-17.2-111.1-21.1-256.7-11.5-475.1c5.8-172.4,17.2-475.1,23-672.5c7.7-224.1,21.1-360.2,32.6-360.2c21.1,0,7.7,505.8-26.8,942.6c-19.2,247.1-9.6,454.1,32.6,664.8c7.7,34.5,3.8,59.4-5.8,59.4S2867.6,296,2854.2,209.8z"/><path d="M2873.3-1355.4c0-9.6,9.6-19.2,19.2-19.2c11.5,0,19.2,9.6,19.2,19.2c0,11.5-7.7,19.2-19.2,19.2C2882.9-1336.3,2873.3-1343.9,2873.3-1355.4z"/><path d="M6590-2022.1c0-17.2,341-44.1,362.1-28.7c24.9,17.3-34.5,30.7-189.7,40.2C6649.4-2004.9,6590-2008.7,6590-2022.1z"/><path d="M6992.3-2064.3c0-9.6,9.6-19.2,19.2-19.2c11.5,0,19.2,9.6,19.2,19.2c0,11.5-7.7,19.2-19.2,19.2C7001.9-2045.1,6992.3-2052.8,6992.3-2064.3z"/><path d="M3812.1-1792.2c0-9.6,143.7-42.1,321.9-76.6c442.6-84.3,482.8-90,482.8-63.2c0,11.5-21.1,21.1-46,21.1c-24.9,0-199.2,30.6-387,67.1C3800.6-1769.3,3812.1-1771.2,3812.1-1792.2z"/></g></g>
</svg>