<?xml version="1.0" encoding="utf-8"?>
<!-- Svg Vector Icons : http://www.onlinewebfonts.com/icon -->
<!DOCTYPE svg PUBLIC "-//W3C//DTD SVG 1.1//EN" "http://www.w3.org/Graphics/SVG/1.1/DTD/svg11.dtd">
<svg version="1.1" xmlns="http://www.w3.org/2000/svg" xmlns:xlink="http://www.w3.org/1999/xlink" x="0px" y="0px" viewBox="0 0 1000 1000" enable-background="new 0 0 1000 1000" xml:space="preserve">
<metadata> Svg Vector Icons : http://www.onlinewebfonts.com/icon </metadata>
<g><g transform="translate(0.000000,512.000000) scale(0.100000,-0.100000)"><path d="M4563.1,5003.1c-252.9-23-509.6-69-800.8-141.8c-335.3-86.2-570.9-174.3-917.7-344.8c-536.4-262.5-862.1-496.2-1302.8-938.7c-442.6-440.6-676.3-766.3-938.7-1302.7C304.2,1667.7,160.5,1125.5,110.7,430.1c-46-641.8,57.5-1377.5,281.6-1988.6c101.5-279.7,350.6-772.1,515.4-1019.2c641.8-965.6,1626.5-1693.6,2716.6-2005.8c1557.5-450.2,3193.7-120.7,4460,896.6c396.6,318,833.4,816.2,1097.8,1249.1c883.2,1452.2,956,3245.4,193.5,4762.7c-373.6,745.2-971.3,1417.7-1678.3,1887.1c-247.1,164.8-739.5,413.8-1019.2,515.4C6030.6,4964.8,5258.5,5064.4,4563.1,5003.1z M5471.2,4926.5c1415.8-139.8,2693.6-894.7,3509.8-2074.8c846.8-1222.3,1074.8-2816.2,607.3-4235.9c-480.9-1463.7-1622.7-2603.6-3084.5-3084.5c-603.5-199.2-1310.4-279.7-1936.9-222.2C2074.4-4460.9,172-2378.5,172,119.7c0,2128.5,1392.8,4006,3431.2,4624.8c251,74.7,653.3,157.1,898.5,182C4741.2,4949.5,5229.8,4951.4,5471.2,4926.5z"/><path d="M3745,2585.4c-252.9-109.2-526.9-229.9-607.3-268.2l-147.5-67.1l-402.3-605.4c-222.2-333.3-404.2-613.1-404.2-620.7c0-9.6,11.5-28.7,24.9-46c38.3-49.8,714.6-513.4,747.2-513.4c19.2,0,95.8,95.8,185.8,229.9c84.3,126.4,157.1,229.9,162.8,229.9c17.2,0,124.5-367.8,162.8-565.2c97.7-498.1,61.3-1138-126.4-2268.3c-36.4-224.2-63.2-421.5-57.5-434.9c13.4-36.4,115-57.5,519.2-111.1c867.9-114.9,1488.6-118.8,2327.7-11.5c275.9,36.4,461.7,67.1,540.3,88.1c53.6,15.3,57.5,72.8,17.2,289.3c-61.3,319.9-151.3,975.2-185.8,1346.8C6448.2-160,6486.5,297.9,6632.1,750c40.2,126.4,63.2,172.4,76.6,159c11.5-11.5,82.4-114.9,157.1-228c74.7-113,151.3-208.8,170.5-212.6c42.1-7.7,756.7,488.5,772.1,538.3c7.7,26.8-93.9,193.5-385.1,630.3c-218.4,325.7-417.6,605.4-442.5,622.6c-74.7,47.9-1141.8,507.7-1205,517.3c-36.4,5.7-143.7-15.3-279.7-55.6c-208.8-59.4-231.8-63.2-515.3-61.3c-270.1,1.9-312.3,5.7-469.4,55.6C4231.6,2803.8,4260.4,2807.6,3745,2585.4z M4233.5,2677.3c0-57.5,74.7-174.3,162.8-256.7c308.4-283.5,898.5-283.5,1207,0c88.1,82.4,162.8,199.2,162.8,256.7c0,15.3,7.6,28.7,17.2,28.7c72.8,0,3.8-185.8-111.1-304.6c-107.3-109.2-249.1-180.1-446.4-220.3c-182-38.3-260.5-38.3-440.6-3.8c-239.5,46-411.9,141.8-513.4,283.5c-57.5,80.5-101.5,199.2-84.3,229.9C4204.8,2717.6,4233.5,2708,4233.5,2677.3z M4618.6,2614.1c57.5-11.5,149.4-26.8,205-32.6l99.6-13.4v-84.3v-84.3h76.6h76.6v84.3v86.2l92,11.5c95.8,13.4,429.1,92,490.4,116.9c32.6,11.5,34.5,7.7,23-42.2c-30.6-118.8-136-218.4-331.4-310.4c-101.5-47.9-130.3-51.7-350.6-51.7s-249.1,3.8-350.6,51.7c-61.3,28.7-137.9,70.9-168.6,93.9c-72.8,51.7-170.5,183.9-170.5,229.9c0,32.6,3.8,32.6,103.5-1.9C4469.2,2648.6,4563.1,2623.7,4618.6,2614.1z M4172.2,2575.8c36.4-109.2,170.5-254.8,306.5-325.7c162.8-86.2,310.4-120.7,521.1-120.7s358.3,34.5,521.1,120.7c141.8,74.7,277.8,224.1,308.4,335.3c11.5,44.1,28.7,82.4,36.4,82.4c23,0,1038.4-440.6,1055.6-459.8c9.6-7.7-11.5-90-44.1-183.9c-84.3-239.5-164.8-557.5-201.2-800.8c-17.3-115-59.4-293.1-93.9-394.7c-147.5-423.4-205-885.1-166.7-1375.6c26.8-377.4,97.7-948.3,164.8-1341.1c24.9-153.3,44.1-281.6,40.2-285.5c-15.3-17.2-411.9-82.4-672.4-114.9c-222.2-24.9-436.8-32.6-938.7-32.6c-687.8,0-954.1,19.2-1423.4,105.4c-216.5,40.2-216.5,40.2-206.9,92c59.4,283.5,170.5,1128.4,205,1553.7c40.2,507.7-23,1005.8-183.9,1452.2c-24.9,70.9-61.3,229.9-78.5,350.6c-32.6,245.2-132.2,651.4-206.9,846.8l-49.8,130.3l61.3,26.8c34.5,15.3,270.1,116.9,523,228c252.9,111.1,467.5,199.2,477,195.4C4137.8,2658.2,4156.9,2619.9,4172.2,2575.8z M5057.3,2504.9c0-61.3-3.8-67.1-57.5-67.1s-57.5,5.7-57.5,67.1s3.8,67.1,57.5,67.1S5057.3,2566.2,5057.3,2504.9z M3091.7,1916.8c76.6-247.1,134.1-490.4,164.8-720.3l21.1-159l-128.4-199.2l-130.3-199.2l-115,82.4c-65.1,44.1-214.6,147.5-331.4,229.9c-118.8,80.5-220.3,155.2-226.1,166.7c-13.4,19.2,636,1013.5,661,1013.5C3015.1,2131.3,3053.4,2033.6,3091.7,1916.8z M7335.2,1637.1c170.5-256.7,314.2-477,319.9-492.4c9.6-23-46-67.1-521.1-398.5l-155.2-107.3l-130.3,199.2l-128.4,201.2l30.7,193.5c36.4,224.1,105.4,505.8,172.4,697.4c65.1,191.6,72.8,205,88.1,187.7C7019.1,2110.3,7164.7,1893.8,7335.2,1637.1z M2677.9,790.3c160.9-111.1,291.2-212.7,291.2-228c0-38.3-26.8-23-318,180.1c-371.7,260.6-392.7,277.8-379.3,298.9C2285.2,1062.3,2281.3,1064.2,2677.9,790.3z M7716.5,1010.6c-36.4-34.5-632.2-454-661-463.6c-13.4-5.7-24.9,1.9-24.9,15.3c0,34.5,670.5,498.1,693.5,484.7C7735.6,1039.3,7731.8,1024,7716.5,1010.6z M3628.1-2294.2c433-78.6,758.7-103.5,1381.3-103.5c622.6,0,952.2,24.9,1381.3,103.5c251,46,256.7,46,256.7,11.5c0-36.4-19.2-42.2-335.3-86.2c-553.7-78.5-685.9-88.1-1312.3-88.1c-626.5,0-758.7,9.6-1312.3,88.1c-316.1,44.1-335.3,49.8-335.3,86.2C3352.3-2248.2,3377.2-2248.2,3628.1-2294.2z"/><path d="M4252.7,2305.7c0-23,180.1-141.8,268.2-178.2c122.6-51.7,402.3-103.5,402.3-74.7c0,9.6-46,23-99.6,30.7c-168.6,23-327.6,82.4-444.5,162.8C4262.3,2328.7,4252.7,2332.5,4252.7,2305.7z"/><path d="M4961.6,2054.7c0-9.6,9.6-19.2,19.2-19.2c11.5,0,19.2,9.6,19.2,19.2c0,11.5-7.7,19.2-19.2,19.2C4971.1,2073.9,4961.6,2066.2,4961.6,2054.7z"/><path d="M6473.1,721.3c-90-237.6-162.9-795.1-141.8-1118.8c26.8-457.9,113-1195.5,145.6-1247.2c30.7-51.7,30.7-3.8-3.8,193.5c-47.9,283.5-92,745.2-105.4,1082.4c-13.4,325.7,17.2,624.6,97.7,938.7C6511.4,755.8,6517.2,830.5,6473.1,721.3z"/><path d="M3543.9-1374.6c0-9.6,9.6-19.2,19.2-19.2c11.5,0,19.2,9.6,19.2,19.2c0,11.5-7.7,19.2-19.2,19.2C3553.4-1355.4,3543.9-1363.1,3543.9-1374.6z"/><path d="M3536.2-1483.8c-5.8-30.6-28.7-164.8-49.8-302.7c-21.1-136-42.1-272.1-46-300.8c-9.6-47.9-3.8-51.7,88.1-72.8c103.5-21.1,383.2-65.1,538.3-84.3c49.8-5.8,90-3.8,90,5.7s-84.3,26.8-185.8,40.2c-216.5,26.8-469.4,74.7-488.5,91.9c-9.6,11.5,28.7,281.6,86.2,632.2C3580.3-1412.9,3549.6-1422.5,3536.2-1483.8z"/><path d="M4195.2-2236.7c0-9.6,9.6-19.2,19.2-19.2c11.5,0,19.2,9.6,19.2,19.2c0,11.5-7.7,19.2-19.2,19.2C4204.8-2217.5,4195.2-2225.2,4195.2-2236.7z"/><path d="M2605.1,1006.8c1.9-15.3,40.2-46,139.8-109.2c88.1-57.5,57.5,1.9-32.6,65.1C2624.3,1022.1,2605.1,1029.7,2605.1,1006.8z"/><path d="M2835,847.7c0-9.6,9.6-19.2,21.1-19.2c9.6,0,13.4,9.6,7.7,19.2c-5.7,11.5-15.3,19.2-21.1,19.2C2838.8,866.9,2835,859.2,2835,847.7z"/><path d="M7260.5,1621.7c0-15.3,9.6-23,19.2-17.2c11.5,7.7,15.3,21.1,9.6,30.7C7272,1662,7260.5,1656.2,7260.5,1621.7z"/><path d="M7306.5,1547c5.8-15.3,61.3-103.5,122.6-195.4c61.3-93.9,116.9-178.2,124.5-189.7c7.7-13.4-32.6-51.7-101.5-95.8c-105.4-69-139.8-103.5-99.6-103.5c13.4,0,174.3,105.4,251,164.8c11.5,9.6-274,448.3-293.1,448.3C7302.7,1575.8,7298.8,1562.3,7306.5,1547z"/><path d="M7279.7,922.5c0-9.6,9.6-13.4,19.2-7.7c11.5,5.7,19.2,15.3,19.2,21.1c0,3.8-7.7,7.7-19.2,7.7C7289.3,943.5,7279.7,934,7279.7,922.5z"/></g></g>
</svg>