<?xml version="1.0" encoding="utf-8"?>
<!-- Svg Vector Icons : http://www.onlinewebfonts.com/icon -->
<!DOCTYPE svg PUBLIC "-//W3C//DTD SVG 1.1//EN" "http://www.w3.org/Graphics/SVG/1.1/DTD/svg11.dtd">
<svg version="1.1" xmlns="http://www.w3.org/2000/svg" xmlns:xlink="http://www.w3.org/1999/xlink" x="0px" y="0px" viewBox="0 0 1000 1000" enable-background="new 0 0 1000 1000" xml:space="preserve">
<metadata> Svg Vector Icons : http://www.onlinewebfonts.com/icon </metadata>
<g><g transform="translate(0.000000,512.000000) scale(0.100000,-0.100000)"><path d="M4563.1,5003.1c-252.9-23-509.6-69-800.8-141.8c-335.3-86.2-570.9-174.3-917.7-344.8c-536.4-262.5-862.1-496.2-1302.8-938.7c-442.6-440.6-676.3-766.3-938.7-1302.7C304.2,1667.7,160.5,1125.5,110.7,430.1c-46-641.8,57.5-1377.5,281.6-1988.6c101.5-279.7,350.6-772.1,515.4-1019.2c641.8-965.6,1626.5-1693.6,2716.6-2005.8c1557.5-450.2,3193.7-120.7,4460,896.6c396.6,318,833.4,816.2,1097.8,1249.1c883.2,1452.2,956,3245.4,193.5,4762.7c-373.6,745.2-971.3,1417.7-1678.3,1887.1c-247.1,164.8-739.5,413.8-1019.2,515.4C6030.6,4964.8,5258.5,5064.4,4563.1,5003.1z M5471.2,4926.5c1415.8-139.8,2693.6-894.7,3509.8-2074.8c846.8-1222.3,1074.8-2816.2,607.3-4235.9c-480.9-1463.7-1622.7-2603.6-3084.5-3084.5c-603.5-199.2-1310.4-279.7-1936.9-222.2C2074.4-4460.9,172-2378.5,172,119.7c0,2128.5,1392.8,4006,3431.2,4624.8c251,74.7,653.3,157.1,898.5,182C4741.2,4949.5,5229.8,4951.4,5471.2,4926.5z"/><path d="M2187.5,1562.3c-32.6-444.5-32.6-446.4,21.1-446.4c59.4,0,396.6-84.3,578.6-143.7c214.6-72.8,563.2-241.4,745.2-364c559.4-371.7,908.1-1023,1072.9-2002l40.2-239.5l168.6-15.3c93.9-7.7,252.9-7.7,354.4,0l183.9,15.3l42.1,239.5C5637.8,10.5,6195.3,683,7404.2,1029.7c95.8,26.8,229.9,59.4,302.7,70.9c151.4,26.8,139.8-21.1,105.4,461.7l-23,319.9H4999.9H2210.4L2187.5,1562.3z M7747.1,1478c7.6-86.2,9.6-159,7.6-162.8c-3.8-3.8-92-24.9-195.4-46c-254.8-55.6-590.1-174.3-823.8-291.2C6047.8,635.1,5672.3,181,5404.1-637c-84.3-256.7-193.5-684-193.5-760.6c0-32.6-90-53.6-233.7-53.6c-111.1,0-187.7,26.8-187.7,69c0,120.7-157.1,697.4-274,994.3c-279.7,726.1-729.9,1172.5-1486.7,1477.1c-189.7,76.6-546,180.1-718.4,208.8l-74.7,11.5l13.4,99.6c5.8,55.6,11.5,128.4,11.5,162.8v61.3h2737.7h2735.8L7747.1,1478z M2446.1,1219.4c11.5-17.2,26.8-21.1,32.6-11.5c15.3,24.9,241.4-32.6,254.8-65.1c3.8-13.4,21.1-19.2,36.4-13.4c40.2,15.3,316.1-90,300.8-114.9c-7.7-11.5,0-15.3,21.1-7.7c38.3,15.3,279.7-99.6,279.7-134.1c0-13.4,11.5-19.2,24.9-15.3c26.8,11.5,243.3-118.8,243.3-145.6c0-9.6,9.6-17.2,21.1-17.2c38.3,0,237.6-174.3,237.6-208.8c0-17.2,15.3-30.7,32.6-30.7c36.4,0,206.9-189.7,206.9-231.8c0-15.3,9.6-26.8,19.2-26.8c24.9,0,153.3-199.2,153.3-239.5c0-15.3,7.7-28.7,17.2-28.7c19.2,0,116.9-212.7,116.9-256.7c0-17.2,7.7-30.6,15.3-30.6c17.3,0,105.4-233.8,109.2-287.4c0-15.3,7.7-40.2,17.2-53.7c30.7-49.8,88.1-281.6,76.6-314.2c-5.7-19.2-1.9-34.5,7.7-34.5c17.3,0,65.1-191.6,70.9-277.8c1.9-21.1,7.7-51.8,13.4-67.1c7.7-15.3,17.2-61.3,23-99.6c7.7-63.2,3.8-72.8-26.8-72.8c-24.9,0-32.6,9.6-26.8,28.7c7.7,15.3,3.8,28.7-5.8,28.7c-23,0-67.1,247.1-49.8,273.9c5.7,9.6,1.9,23-7.7,30.7c-24.9,17.2-88.1,302.7-70.9,329.5c5.7,11.5,1.9,28.7-11.5,36.4c-28.7,17.2-95.8,216.5-95.8,283.5c0,23-7.7,42.2-17.2,42.2c-21.1,0-109.2,231.8-99.6,268.2c1.9,15.3-1.9,23-9.6,13.4c-13.4-13.4-139.8,197.3-149.4,251c-1.9,15.3-13.4,32.6-23,38.3c-34.5,24.9-160.9,214.6-160.9,243.3c0,15.3-7.7,26.8-17.2,23c-19.2-5.8-231.8,193.5-231.8,218.4c0,9.6-9.6,17.2-19.2,17.2c-36.4,0-268.2,162.8-268.2,187.7c0,13.4-7.7,21.1-17.2,13.4c-24.9-13.4-251,109.2-251,137.9c0,13.4-13.4,19.2-28.7,13.4c-32.6-13.4-277.8,84.3-277.8,109.2c0,9.6-15.3,15.3-32.6,11.5c-63.2-7.7-293.1,70.9-293.1,99.6c0,21.1-5.7,23-19.2,9.6c-26.8-26.8-206.9,11.5-231.8,49.8c-13.4,23-21.1,23-32.6,3.8c-24.9-38.3-78.5-7.7-65.1,38.3c7.7,34.5,19.2,36.4,97.7,24.9C2382.9,1253.9,2432.7,1234.7,2446.1,1219.4z M7754.8,1227.1c-3.8-36.4-24.9-46-130.3-67.1c-67.1-13.4-134.1-21.1-147.5-15.3c-13.4,3.8-24.9,0-24.9-7.7c0-23-251-99.6-274-84.3c-9.6,5.7-23,0-30.7-11.5c-7.7-13.4-70.9-42.2-137.9-67.1c-67.1-23-187.8-76.6-266.3-116.9s-155.2-72.8-166.7-70.9c-13.4,3.8-24.9-1.9-24.9-11.5c0-21.1-254.8-195.4-283.5-195.4c-13.4,0-23-11.5-24.9-23c0-13.4-55.6-72.8-122.6-130.3c-67.1-57.5-122.6-113-122.6-120.7c-1.9-7.7-42.2-69-92-134.1c-51.7-67.1-103.5-139.9-116.9-162.9c-53.7-95.8-172.4-342.9-197.3-410c-13.4-40.2-32.5-72.8-40.2-72.8c-7.7,0-15.3-15.3-15.3-34.5c0-57.5-78.6-272-99.6-272c-11.5,0-13.4-13.4-7.7-30.7c13.4-34.5-44.1-279.7-70.9-297c-9.6-7.7-13.4-21.1-5.8-32.6c11.5-21.1-24.9-237.6-44.1-252.9c-7.6-5.8-11.5-44.1-11.5-86.2c0-65.1-5.7-76.6-42.1-82.4c-24.9-3.8-44.1,1.9-44.1,13.4c0,11.5,5.7,21.1,15.3,21.1c7.7,0,15.3,44,17.2,95.8c0,53.6,15.3,118.8,32.6,143.7c17.2,26.8,23,47.9,13.4,47.9c-17.2,0,21.1,203.1,49.8,268.2c7.7,15.3,13.4,42.1,15.3,57.5c9.6,69,72.8,268.2,88.1,268.2c7.7,0,13.4,15.3,13.4,34.5c-3.8,46,82.4,272.1,101.5,272.1c9.6,0,17.2,17.2,17.2,38.3c0,44,92,235.6,116.9,245.2c9.6,3.9,17.2,19.2,17.2,34.5c0,38.3,128.4,237.6,153.3,237.6c9.6,0,19.2,13.4,19.2,32.6c0,38.3,371.7,406.1,450.2,446.4c32.6,15.3,67.1,38.3,76.6,51.7c32.6,38.3,245.2,159,281.6,159c19.2,0,34.5,7.7,34.5,17.2c0,23,203.1,116.9,249.1,116.9c19.2,0,38.3,7.7,42.1,17.2c9.6,24.9,222.2,97.7,254.8,86.2c15.3-7.7,28.7-3.8,28.7,5.8c0,26.8,239.5,88.1,285.5,72.8c23-5.7,40.2-3.8,40.2,7.7c0,19.2,40.2,34.5,101.5,38.3C7752.9,1269.2,7760.5,1257.7,7754.8,1227.1z M5191.4-1499.1c0-78.6-19.2-86.2-191.6-86.2c-136,0-170.5,5.7-180.1,30.7c-28.7,76.6-17.2,82.4,180.1,82.4C5147.4-1472.3,5191.4-1478,5191.4-1499.1z"/><path d="M7356.3,1575.8c0-9.6,9.6-19.2,19.2-19.2c11.5,0,19.2,9.6,19.2,19.2c0,11.5-7.7,19.2-19.2,19.2C7365.9,1594.9,7356.3,1587.3,7356.3,1575.8z"/><path d="M7432.9,1575.8c0-11.5,51.7-19.2,115-19.2h115v-84.3c0-47.9,9.6-92,19.2-97.7c11.5-7.7,19.2,21.1,19.2,74.7c0,137.9-7.7,145.6-145.6,145.6C7486.6,1594.9,7432.9,1587.3,7432.9,1575.8z"/><path d="M3773.7,763.5c0-5.8,93.9-103.5,206.9-216.5c114.9-115,245.2-264.4,291.2-335.3c46-70.9,90-124.5,99.6-118.8c28.7,19.2-182,302.7-350.6,471.3C3871.5,711.7,3773.7,790.3,3773.7,763.5z"/></g></g>
</svg>