<?xml version="1.0" encoding="utf-8"?>
<!-- Svg Vector Icons : http://www.onlinewebfonts.com/icon -->
<!DOCTYPE svg PUBLIC "-//W3C//DTD SVG 1.1//EN" "http://www.w3.org/Graphics/SVG/1.1/DTD/svg11.dtd">
<svg version="1.1" xmlns="http://www.w3.org/2000/svg" xmlns:xlink="http://www.w3.org/1999/xlink" x="0px" y="0px" viewBox="0 0 1000 1000" enable-background="new 0 0 1000 1000" xml:space="preserve">
<metadata> Svg Vector Icons : http://www.onlinewebfonts.com/icon </metadata>
<g><g transform="translate(0.000000,512.000000) scale(0.100000,-0.100000)"><path d="M4563.1,5003.1c-252.9-23-509.6-69-800.8-141.8c-335.3-86.2-570.9-174.3-917.7-344.8c-536.4-262.5-862.1-496.2-1302.8-938.7c-442.6-440.6-676.3-766.3-938.7-1302.7C304.2,1667.7,160.5,1125.5,110.7,430.1c-46-641.8,57.5-1377.5,281.6-1988.6c101.5-279.7,350.6-772.1,515.4-1019.2c641.8-965.6,1626.5-1693.6,2716.6-2005.8c1557.5-450.2,3193.7-120.7,4460,896.6c396.6,318,833.4,816.2,1097.8,1249.1c883.2,1452.2,956,3245.4,193.5,4762.7c-373.6,745.2-971.3,1417.7-1678.3,1887.1c-247.1,164.8-739.5,413.8-1019.2,515.4C6030.6,4964.8,5258.5,5064.4,4563.1,5003.1z M5471.2,4926.5c1415.8-139.8,2693.6-894.7,3509.8-2074.8c846.8-1222.3,1074.8-2816.2,607.3-4235.9c-480.9-1463.7-1622.7-2603.6-3084.5-3084.5c-603.5-199.2-1310.4-279.7-1936.9-222.2C2074.4-4460.9,172-2378.5,172,119.7c0,2128.5,1392.8,4006,3431.2,4624.8c251,74.7,653.3,157.1,898.5,182C4741.2,4949.5,5229.8,4951.4,5471.2,4926.5z"/><path d="M4722.1,3451.3c-183.9-24.9-419.6-111.1-549.8-197.3c-92-61.3-132.2-105.4-172.4-182c-51.7-99.6-53.6-109.2-53.6-433v-331.4l84.3-111.1c93.9-126.4,254.8-296.9,419.6-444.5c97.7-86.2,124.5-128.4,224.2-344.8l115-245.2l-86.2-668.6c-46-369.8-128.4-1019.2-182-1446.4c-55.6-427.2-124.5-969.4-155.2-1207l-53.6-431.1l300.8-293.1c388.9-379.3,371.7-365.9,450.2-302.7c32.6,26.8,187.7,172.4,342.9,321.8l283.5,274L5450.1-713.6l-239.5,1875.6l107.3,231.8c105.4,228,107.3,231.8,348.7,469.4c134.1,132.2,275.9,289.3,316.1,348.7l70.9,107.3v325.7c0,318-1.9,327.6-53.6,427.2C5852.4,3355.5,5270,3528,4722.1,3451.3z M5430.9,3347.9c318-84.3,546-260.6,546-419.6v-49.8l-92,67.1c-216.5,155.2-494.3,228-875.5,228c-377.4,0-626.5-69-873.6-237.6l-113-76.6v57.5c0,199.2,277.8,385.1,685.9,459.8C4846.6,3401.5,5298.7,3384.3,5430.9,3347.9z M5461.6,3054.8c176.3-47.9,342.9-128.4,448.3-220.3l74.7-65.1L5839,2550.9c-80.5-120.7-235.6-319.9-342.9-442.5l-197.3-226.1h-291.2h-291.2l-157.1,168.6c-172.4,182-356.3,417.7-457.9,588.2l-65.1,107.3l63.2,65.1c111.1,114.9,377.4,231.8,651.4,285.4C4865.8,3118,5317.9,3091.2,5461.6,3054.8z M4306.3,2227.1c49.8-57.5,149.4-172.4,222.2-254.8c126.4-139.9,132.2-151.4,107.3-195.4c-13.4-26.8-32.6-47.9-40.2-47.9c-30.7,0-400.4,369.7-486.6,482.8c-84.3,113-86.2,118.8-86.2,260.5v145.6l97.7-143.7C4174.1,2395.7,4258.4,2284.6,4306.3,2227.1z M5927.1,2257.8c-61.3-95.8-490.4-528.8-523-528.8c-11.5,0-30.6,21.1-42.1,46c-19.2,42.1-9.6,61.3,120.7,206.9c180.1,201.2,354.4,421.5,427.2,538.3l57.5,90l5.7-136C5978.8,2351.7,5973.1,2328.7,5927.1,2257.8z M5294.9,1729c26.8-42.2,49.8-82.4,49.8-90c0-9.6-40.2-103.5-90-210.7l-90-197.3h-164.8h-164.8l-90,197.3c-49.8,107.3-90,205-90,214.6c0,11.5,21.1,51.7,47.9,92l49.8,70.9h245.2h245.2L5294.9,1729z M5275.7,81.4c72.8-570.9,126.5-1040.3,120.7-1048c-13.4-13.4-820-239.5-827.6-231.8c-3.8,3.8,59.4,524.9,139.8,1161L4854.3,1116h145.6h145.6L5275.7,81.4z M5429-1127.5c7.7-44.1,9.6-82.4,7.7-84.3c-3.8-3.8-203.1-61.3-446.4-128.4l-440.6-122.6l-5.7,74.7c-3.8,42.2,1.9,84.3,9.6,92c15.3,15.3,791.2,241.4,841,245.2C5406-1048.9,5421.3-1085.3,5429-1127.5z M5459.7-1384.2c0-84.3-1.9-84.3-80.5-105.4c-136-36.4-827.6-229.9-856.4-239.5c-21.1-7.7-24.9,7.7-15.3,76.6c3.8,47.9,13.4,93.9,21.1,99.6c15.3,17.2,837.2,251,888.9,252.9C5455.8-1298,5459.7-1307.5,5459.7-1384.2z M5486.5-1589.2c30.7-120.7,49.8-109.2-496.2-262.5c-279.7-76.6-513.4-136-519.2-130.3c-5.7,5.8-5.7,46,1.9,88.1c11.5,74.7,17.2,80.5,111.1,107.3c450.2,130.3,833.4,235.6,858.3,237.5C5459.7-1547,5478.8-1566.2,5486.5-1589.2z M5521-1857.4c5.7-46,3.8-88.1-1.9-95.8c-17.2-19.2-1072.8-310.4-1084.3-300.8c-3.8,5.7-1.9,47.9,5.7,93.9l13.4,86.2l517.3,145.6c285.4,80.4,523,147.5,528.8,149.4C5507.6-1776.9,5517.1-1813.3,5521-1857.4z M5551.6-2146.7l-5.7-61.3L5019-2355.5c-705-197.3-626.5-187.7-613.1-80.4l9.6,90l555.6,155.2C5570.8-2022.1,5563.1-2022.1,5551.6-2146.7z M5584.2-2365.1c5.7-51.7,15.3-118.8,19.2-149.4c9.6-53.7-11.5-78.5-287.4-335.3c-162.8-153.3-302.7-279.7-312.3-283.6c-17.2-5.7-563.3,502-563.3,526.8c0,11.5,1038.4,318,1118.8,329.5C5566.9-2275,5576.5-2315.3,5584.2-2365.1z"/><path d="M4695.3,3336.4c-57.5-9.6-109.2-23-115-26.8c-23-24.9,21.1-26.8,124.5-7.7c115,21.1,592,13.4,674.4-11.5c24.9-7.7,42.2-5.7,42.2,5.7c0,9.6-23,24.9-51.7,30.7C5275.7,3349.8,4802.5,3355.5,4695.3,3336.4z"/><path d="M4061.1,2399.6c0-30.7,9.6-57.5,19.2-57.5c11.5,0,19.2,26.8,19.2,57.5c0,32.6-7.7,57.5-19.2,57.5C4070.7,2457,4061.1,2432.1,4061.1,2399.6z"/><path d="M5881.1,2322.9c0-9.6,9.6-19.2,19.2-19.2c11.5,0,19.2,9.6,19.2,19.2c0,11.5-7.7,19.2-19.2,19.2C5890.7,2342.1,5881.1,2334.4,5881.1,2322.9z"/><path d="M5764.3,2175.4c-46-59.4-143.7-160.9-216.5-228c-74.7-67.1-128.4-128.4-120.7-136c15.3-13.4,252.9,212.7,379.3,362.1c42.1,47.9,69,93.9,59.4,99.6C5858.1,2276.9,5812.2,2234.8,5764.3,2175.4z"/><path d="M4745.1,1711.8c-36.4-63.2-40.2-78.5-17.2-78.5c9.6,0,26.8,21.1,38.3,47.9c17.2,36.4,36.4,47.9,80.5,47.9c30.7,0,57.5,9.6,57.5,19.2c0,11.5-28.7,19.2-63.2,19.2C4793,1767.3,4771.9,1755.8,4745.1,1711.8z"/><path d="M4942.4,1748.2c0-9.6,9.6-19.2,19.2-19.2c11.5,0,19.2,9.6,19.2,19.2c0,11.5-7.7,19.2-19.2,19.2C4952,1767.3,4942.4,1759.7,4942.4,1748.2z"/><path d="M5164.6,1418.7c-44.1-99.6-55.5-111.1-107.3-111.1c-30.7,0-57.5-7.7-57.5-19.2c0-9.6,30.6-19.2,67.1-19.2c63.2,0,70.9,5.7,114.9,109.2c26.8,59.4,46,116.9,40.2,128.4C5218.3,1518.3,5193.4,1478,5164.6,1418.7z"/><path d="M4923.2,1288.4c0-9.6,9.6-19.2,19.2-19.2c11.5,0,19.2,9.6,19.2,19.2c0,11.5-7.7,19.2-19.2,19.2C4932.8,1307.5,4923.2,1299.9,4923.2,1288.4z"/><path d="M4798.7,253.8c5.7-9.6,15.3-19.2,21.1-19.2c3.8,0,7.7,9.6,7.7,19.2c0,11.5-9.6,19.2-21.1,19.2C4796.8,273,4793,265.3,4798.7,253.8z"/><path d="M4781.5,154.2c-17.2-72.8-107.3-829.5-107.3-887c0-30.7,5.7-49.8,11.5-42.2c19.2,17.2,134.1,971.3,118.8,971.3C4796.8,196.4,4785.3,177.2,4781.5,154.2z"/><path d="M4655-840.1c0-9.6,9.6-13.4,19.2-7.7c11.5,5.7,19.2,15.3,19.2,21.1c0,3.8-7.7,7.7-19.2,7.7C4664.6-819,4655-828.6,4655-840.1z"/><path d="M5421.3-2639c0-9.6,9.6-19.2,19.2-19.2c11.5,0,19.2,9.6,19.2,19.2c0,11.5-7.7,19.2-19.2,19.2C5430.9-2619.9,5421.3-2627.5,5421.3-2639z"/><path d="M4616.7-2715.7c0-9.6,9.6-19.2,19.2-19.2c11.5,0,19.2,9.6,19.2,19.2c0,11.5-7.7,19.2-19.2,19.2C4626.3-2696.5,4616.7-2704.2,4616.7-2715.7z"/><path d="M5210.6-2830.6c-78.6-72.8-136-138-128.4-145.6c11.5-11.5,281.6,227.9,296.9,266.3C5398.3-2669.7,5340.9-2711.8,5210.6-2830.6z"/><path d="M4693.3-2765.5c0-24.9,111.1-132.2,124.5-120.7c3.8,5.8-21.1,40.2-57.5,74.7C4724-2775,4693.3-2755.9,4693.3-2765.5z"/></g></g>
</svg>