<?xml version="1.0" encoding="utf-8"?>
<!-- Svg Vector Icons : http://www.onlinewebfonts.com/icon -->
<!DOCTYPE svg PUBLIC "-//W3C//DTD SVG 1.1//EN" "http://www.w3.org/Graphics/SVG/1.1/DTD/svg11.dtd">
<svg version="1.1" xmlns="http://www.w3.org/2000/svg" xmlns:xlink="http://www.w3.org/1999/xlink" x="0px" y="0px" viewBox="0 0 1000 1000" enable-background="new 0 0 1000 1000" xml:space="preserve">
<metadata> Svg Vector Icons : http://www.onlinewebfonts.com/icon </metadata>
<g><g transform="translate(0.000000,512.000000) scale(0.100000,-0.100000)"><path d="M4563.1,5003.1c-252.9-23-509.6-69-800.8-141.8c-335.3-86.2-570.9-174.3-917.7-344.8c-536.4-262.5-862.1-496.2-1302.8-938.7c-442.6-440.6-676.3-766.3-938.7-1302.7C304.2,1667.7,160.5,1125.5,110.7,430.1c-46-641.8,57.5-1377.5,281.6-1988.6c101.5-279.7,350.6-772.1,515.4-1019.2c641.8-965.6,1626.5-1693.6,2716.6-2005.8c1557.5-450.2,3193.7-120.7,4460,896.6c396.6,318,833.4,816.2,1097.8,1249.1c883.2,1452.2,956,3245.4,193.5,4762.7c-373.6,745.2-971.3,1417.7-1678.3,1887.1c-247.1,164.8-739.5,413.8-1019.2,515.4C6030.6,4964.8,5258.5,5064.4,4563.1,5003.1z M5471.2,4926.5c1415.8-139.8,2693.6-894.7,3509.8-2074.8c846.8-1222.3,1074.8-2816.2,607.3-4235.9c-480.9-1463.7-1622.7-2603.6-3084.5-3084.5c-603.5-199.2-1310.4-279.7-1936.9-222.2C2074.4-4460.9,172-2378.5,172,119.7c0,2128.5,1392.8,4006,3431.2,4624.8c251,74.7,653.3,157.1,898.5,182C4741.2,4949.5,5229.8,4951.4,5471.2,4926.5z"/><path d="M2451.8,1533.6c0-333.3-7.7-411.9-174.3-1641.8c-95.8-708.9-166.7-1297-157.1-1304.7c13.4-9.6,2352.6-226.1,2571-235.7l67.1-3.8l59.4,187.7c38.3,128.4,72.8,201.2,103.5,226.1c107.3,86.2,189.7,17.2,260.5-222.2c28.7-93.9,57.5-178.2,63.2-185.9c7.7-5.7,471.3,28.7,1028.8,80.5c559.4,49.8,1145.7,103.4,1302.8,116.9c159,13.4,295,28.7,302.7,36.4c7.7,7.6-63.2,593.9-159,1302.7c-164.8,1228-172.4,1304.7-172.4,1639.9v352.5h-2548h-2548V1533.6z M7471.3,1748.2v-57.5H4999.9H2528.5v57.5v57.5h2471.4h2471.4V1748.2z M7471.3,1307.5v-57.5H4999.9H2528.5v57.5v57.5h2471.4h2471.4V1307.5z M4143.5,901.4c-7.7-151.3-15.3-488.5-13.4-752.9c0-436.8,3.8-488.5,40.2-588.2c74.7-203.1,252.9-436.8,469.4-618.8l90-76.6l-74.7-157.1c-67.1-143.7-78.5-159-128.4-159c-99.6,1.9-2306.6,206.9-2316.2,216.5c-9.6,7.7,285.5,2264.5,308.4,2366l9.6,42.2h816.1h814.2L4143.5,901.4z M4262.3,968.4c-3.8-115-7.7-266.3-7.7-339.1c0-88.1-7.7-137.9-24.9-147.5c-19.2-13.4-19.2-21.1-1.9-32.6c17.2-11.5,23-97.7,24.9-300.8c0-433,5.7-473.2,69-620.7c15.3-34.5,24.9-67.1,21.1-72.8c-5.8-3.8,15.3-34.5,44.1-65.1c28.7-32.6,65.1-80.5,78.5-105.4c26.8-51.7,205-237.6,228-237.6c5.7,0,36.4-24.9,65.1-53.7c44.1-46,47.9-59.4,24.9-78.5c-23-17.2-30.7-15.3-40.2,7.7c-5.8,17.2-21.1,24.9-30.7,19.2c-26.8-15.3-350.6,310.3-335.3,335.3c5.7,11.5,1.9,19.2-7.7,19.2c-28.7,0-124.5,155.2-120.7,197.3c0,17.2-5.7,32.6-15.3,32.6c-38.3,0-61.3,147.5-70.9,448.3c-7.7,256.7-3.8,327.6,17.3,341c19.2,13.4,19.2,21.1,1.9,28.7c-15.3,5.7-24.9,49.8-24.9,120.7s9.6,114.9,24.9,122.6c17.2,9.6,17.2,13.4,0,23c-13.4,5.7-19.2,32.6-13.4,61.3c7.7,42.2,17.2,189.7,28.7,459.8c1.9,26.8,13.4,42.2,38.3,42.2C4268,1173.4,4269.9,1158.1,4262.3,968.4z M5681.9,1148.5c17.3-47.9,36.4-942.6,24.9-1226.1c-11.5-277.8-13.4-283.5-84.3-431.1c-57.5-116.9-113-185.8-260.6-333.3c-174.3-176.2-191.6-187.7-264.4-187.7H5019V-752c0,172.4-7.7,277.8-19.2,277.8s-19.2-105.4-19.2-277.8v-277.8h-72.8c-63.2,0-92,15.3-183.9,101.5c-107.3,99.6-109.2,99.6-86.2,166.7c11.5,36.4,24.9,218.4,30.7,402.3c13.4,494.3-46,714.6-277.8,1019.2l-97.7,130.3l9.6,166.7c5.7,93.9,13.4,180.1,19.2,193.5C4331.3,1184.9,5666.6,1184.9,5681.9,1148.5z M5808.3,1093c5.7-46,0-88.1-9.6-93.9c-9.6-7.7-7.7-19.2,5.7-26.8c15.3-9.6,21.1-61.3,17.2-151.3c-1.9-74.7,1.9-149.4,9.6-166.7c7.7-15.3,9.6-243.3,5.8-507.7c-5.8-392.7-13.4-494.3-42.1-572.8c-17.3-51.7-38.3-99.6-46-105.4c-7.6-5.8-24.9-38.3-40.2-74.7c-13.4-36.4-55.6-93.9-90-130.3c-36.4-34.5-57.5-63.2-49.8-63.2c7.6,0-24.9-38.3-70.9-86.2c-46-47.9-90-86.2-97.7-86.2c-7.7,0-44.1-30.7-82.4-69c-57.5-57.5-74.7-65.1-97.7-46c-32.6,26.8-21.1,57.5,21.1,57.5c15.3,0,24.9,7.7,19.2,17.2c-5.7,7.6,36.4,53.6,93.9,99.6c59.4,46,109.2,97.7,115,113c5.7,15.3,38.3,59.4,70.9,97.7c65.1,70.9,168.6,264.4,168.6,314.2c0,15.3,5.8,28.7,15.3,28.7c17.2,0,17.2,24.9,19.2,632.2c0,683.9-3.8,862.1-21.1,862.1c-9.6,0-9.6,9.6-3.8,19.2c5.8,11.5,26.8,19.2,47.9,19.2C5793,1173.4,5802.6,1156.2,5808.3,1093z M7480.8,1131.3c23-103.5,316.1-2358.4,308.4-2366c-9.6-9.6-2218.5-214.6-2314.3-216.5c-47.9,0-61.3,17.2-132.2,157.1l-78.5,155.2l93.9,78.6c199.2,166.7,327.6,325.7,429.1,530.7c44.1,88.1,63.2,160.9,78.6,300.8c19.2,180.1,9.6,839.1-17.3,1226.1l-11.5,176.3h816.1h818.1L7480.8,1131.3z M4417.5,564.2c21.1-38.3,42.1-74.7,49.8-80.5c28.7-21.1,107.3-216.5,97.7-241.4c-5.7-15.3,0-26.8,9.6-26.8c23,0,61.3-170.5,61.3-268.2c0-36.4,5.7-113,11.5-170.5c7.7-74.7,5.7-107.3-13.4-118.8c-17.2-11.5-19.2-23-7.7-30.7c24.9-19.2,13.4-254.8-11.5-254.8c-11.5,0-13.4-9.6-7.7-21.1c7.7-11.5,7.7-49.8,0-88.1c-11.5-67.1-13.4-69-47.9-32.5c-28.7,30.6-32.6,51.7-17.2,141.8c26.8,162.8,21.1,628.4-7.7,708.8c-30.7,86.2-67.1,239.5-61.3,251c5.7,7.7-3.8,17.2-19.2,24.9c-15.3,5.8-28.7,19.2-28.7,30.7s-21.1,53.6-46,93.9c-26.8,40.2-42.2,78.5-36.4,86.2c5.7,5.8-3.8,15.3-21.1,23c-19.2,7.7-30.7,34.5-30.7,70.9v57.5l46-42.1C4361.9,654.2,4398.3,602.5,4417.5,564.2z M4356.2,456.9c105.4-178.2,149.4-364,160.9-655.2c3.8-149.4,1.9-321.9-5.7-383.2l-13.4-113l-38.3,47.9c-23,26.8-65.1,101.5-95.8,166.7c-49.8,105.4-57.5,147.5-72.8,402.3c-15.3,235.6-7.7,618.8,11.5,618.8C4304.4,541.2,4329.3,502.9,4356.2,456.9z M5153.1-1083.4c51.7-24.9,82.4-67.1,147.5-195.4c44.1-90.1,80.4-168.6,80.4-176.3c1.9-9.6-26.8-15.3-63.2-15.3c-61.3,0-67.1,3.8-88.1,91.9c-32.6,139.9-82.4,208.8-168.6,235.7c-145.6,42.1-262.5-59.4-302.7-268.2c-11.5-51.7-21.1-59.4-76.6-59.4c-36.4,0-65.1,5.7-63.2,15.3c0,7.7,36.4,86.2,80.5,176.3c92,183.9,151.4,229.9,300.8,229.9C5047.8-1048.9,5116.7-1064.2,5153.1-1083.4z M2528.5-1315.2c5.7-5.8,61.3-11.5,124.5-13.4c159-1.9,513.4-28.7,532.6-40.2c9.6-5.7,90-13.4,180.1-17.2c92-3.8,170.5-13.4,176.2-21.1c5.8-7.7,78.6-15.3,160.9-15.3c111.1,0,153.3-7.7,166.7-28.7c15.3-23,23-23,34.5-3.9c11.5,17.3,55.6,19.2,162.8,11.5c80.5-7.7,147.5-19.2,147.5-24.9c0-5.8,69-11.5,155.2-11.5c113-1.9,159-9.6,172.4-28.7c13.4-23,21.1-24.9,34.5-3.9c9.6,17.2,36.4,21.1,82.4,13.4c53.6-9.6,67.1-21.1,59.4-47.9c-9.6-32.6-24.9-34.5-137.9-26.8c-69,5.7-139.9,15.3-155.2,21.1c-15.3,5.8-95.8,11.5-178.2,15.3c-82.4,3.8-160.9,17.2-176.3,28.7c-13.4,11.5-28.7,13.4-34.5,5.7c-5.8-9.6-72.8-9.6-151.4-1.9c-76.6,7.7-212.6,17.3-302.7,24.9c-88.1,5.7-166.7,17.2-172.4,24.9c-5.7,7.7-69,13.4-143.7,15.3c-164.8,0-530.7,26.8-549.8,40.2c-7.7,3.8-76.6,11.5-153.3,17.3c-76.6,5.7-164.8,11.5-197.3,15.3c-30.7,1.9-86.2,5.7-118.8,7.6c-49.8,3.9-63.2,13.4-63.2,42.2c0,34.5,9.6,36.4,168.6,24.9C2444.2-1298,2522.7-1307.5,2528.5-1315.2z M7816.1-1315.2c0-30.6-19.2-38.3-122.6-49.8c-67.1-7.7-139.8-7.7-162.8,0c-21.1,5.7-40.2,3.8-40.2-5.8c0-26.8-274-42.1-291.2-15.3c-11.5,15.3-21.1,13.4-32.6-5.7c-13.4-19.2-61.3-26.8-168.6-28.7c-82.4-1.9-153.3-7.7-159-15.3c-11.5-15.3-329.5-40.2-526.8-42.1c-72.8-1.9-139.9-7.7-145.6-17.3c-5.8-7.7-82.4-19.2-172.4-23c-88.1-5.8-224.2-17.3-298.9-24.9c-92-9.6-141.8-7.7-147.5,5.8c-5.7,13.4-13.4,11.5-24.9-1.9c-7.7-11.5-63.2-26.8-122.6-32.6c-99.6-11.5-109.2-9.6-118.8,26.8c-9.6,36.4-3.8,40.2,44.1,30.7c30.6-7.7,57.5-3.8,61.3,5.8c3.8,9.6,78.5,23,168.6,28.7c90,5.7,226.1,17.2,300.8,24.9c92,9.6,141.8,7.7,147.5-5.7c5.7-11.5,15.3-9.6,26.8,5.7c9.6,15.3,74.7,26.8,178.2,32.6c88.1,3.8,174.4,11.5,189.7,17.2c28.7,9.6,249.1,26.8,501.9,40.2c72.8,3.8,136,11.5,145.6,17.2c19.2,11.5,364,38.3,517.3,38.3c65.1,1.9,118.8,7.7,118.8,17.2c0,7.7,30.6,13.4,67.1,13.4C7802.7-1278.8,7816.1-1286.5,7816.1-1315.2z"/><path d="M2528.5,713.6c0-9.6,9.6-19.2,19.2-19.2c11.5,0,19.2,9.6,19.2,19.2c0,11.5-7.7,19.2-19.2,19.2C2538.1,732.8,2528.5,725.1,2528.5,713.6z"/><path d="M2520.8,635.1c-5.8-15.3-53.6-344.8-107.3-731.8c-86.2-611.2-101.5-758.7-70.9-720.3C2358-799.8,2551.5,640.8,2540,650.4C2534.2,656.2,2524.6,650.4,2520.8,635.1z"/><path d="M2298.6-876.5c0-9.6,9.6-19.2,19.2-19.2c11.5,0,19.2,9.6,19.2,19.2c0,11.5-7.7,19.2-19.2,19.2C2308.2-857.3,2298.6-865,2298.6-876.5z"/><path d="M7670.5-937.8c7.6-55.5,17.2-128.3,23-162.9l11.5-59.4l-126.4-13.4c-172.4-19.2-160.9-51.7,13.4-36.4c74.7,7.7,139.9,15.3,143.7,17.2c13.4,11.5-44.1,354.4-59.4,354.4C7664.8-838.2,7662.8-878.4,7670.5-937.8z"/></g></g>
</svg>