<?xml version="1.0" encoding="utf-8"?>
<!-- Svg Vector Icons : http://www.onlinewebfonts.com/icon -->
<!DOCTYPE svg PUBLIC "-//W3C//DTD SVG 1.1//EN" "http://www.w3.org/Graphics/SVG/1.1/DTD/svg11.dtd">
<svg version="1.1" xmlns="http://www.w3.org/2000/svg" xmlns:xlink="http://www.w3.org/1999/xlink" x="0px" y="0px" viewBox="0 0 1000 1000" enable-background="new 0 0 1000 1000" xml:space="preserve">
<metadata> Svg Vector Icons : http://www.onlinewebfonts.com/icon </metadata>
<g><g transform="translate(0.000000,512.000000) scale(0.100000,-0.100000)"><path d="M4563.1,5003.1c-252.9-23-509.6-69-800.8-141.8c-335.3-86.2-570.9-174.3-917.7-344.8c-536.4-262.5-862.1-496.2-1302.8-938.7c-442.6-440.6-676.3-766.3-938.7-1302.7C304.2,1667.7,160.5,1125.5,110.7,430.1c-46-641.8,57.5-1377.5,281.6-1988.6c101.5-279.7,350.6-772.1,515.4-1019.2c641.8-965.6,1626.5-1693.6,2716.6-2005.8c1557.5-450.2,3193.7-120.7,4460,896.6c396.6,318,833.4,816.2,1097.8,1249.1c883.2,1452.2,956,3245.4,193.5,4762.7c-373.6,745.2-971.3,1417.7-1678.3,1887.1c-247.1,164.8-739.5,413.8-1019.2,515.4C6030.6,4964.8,5258.5,5064.4,4563.1,5003.1z M5471.2,4926.5c1415.8-139.8,2693.6-894.7,3509.8-2074.8c846.8-1222.3,1074.8-2816.2,607.3-4235.9c-480.9-1463.7-1622.7-2603.6-3084.5-3084.5c-603.5-199.2-1310.4-279.7-1936.9-222.2C2074.4-4460.9,172-2378.5,172,119.7c0,2128.5,1392.8,4006,3431.2,4624.8c251,74.7,653.3,157.1,898.5,182C4741.2,4949.5,5229.8,4951.4,5471.2,4926.5z"/><path d="M2298.6,1736.7c0-201.2-15.3-360.2-69-710.8c-38.3-247.1-63.2-469.4-55.6-492.4c5.7-23,109.2-111.1,235.6-203.1c749.1-542.2,1327.7-1155.2,1668.7-1762.5c101.5-180.1,174.3-256.7,308.4-321.9l105.4-51.7h498.1c444.5,0,507.7,3.8,592,36.4c141.8,53.6,241.4,160.9,375.5,394.7C6302.6-773,6927.2-129.3,7685.8,403.3c70.9,49.8,134.1,107.3,141.8,130.3c5.8,21.1-21.1,243.3-57.5,494.3c-53.6,348.7-69,515.4-69,712.7v256.7H4999.9H2298.6V1736.7z M2459.5,1897.6c9.6-19.2,13.4-19.2,23,0c5.7,11.5,26.8,23,46,23c19.2,0,40.2-11.5,46-23c9.6-19.2,13.4-19.2,23,0c5.7,11.5,26.8,23,46,23s40.2-11.5,46-23c9.6-19.2,13.4-19.2,23,0c5.7,11.5,26.8,23,46,23c19.2,0,40.2-11.5,46-23c9.6-19.2,13.4-19.2,23,0c5.7,11.5,26.8,23,46,23s40.2-11.5,46-23c9.6-19.2,13.4-19.2,23,0c5.7,11.5,26.8,23,46,23c19.2,0,40.2-11.5,46-23c9.6-19.2,13.4-19.2,23,0c5.7,11.5,26.8,23,46,23c19.2,0,40.2-11.5,46-23c9.6-19.2,13.4-19.2,23,0c5.7,11.5,26.8,23,46,23c19.2,0,40.2-11.5,46-23c9.6-19.2,13.4-19.2,23,0c5.7,11.5,26.8,23,46,23c19.2,0,40.2-11.5,46-23c9.6-19.2,13.4-19.2,23,0c5.7,11.5,26.8,23,46,23c19.2,0,40.2-11.5,46-23c9.6-19.2,13.4-19.2,23,0c5.7,11.5,26.8,23,46,23c19.2,0,40.2-11.5,46-23c9.6-19.2,13.4-19.2,23,0c5.7,11.5,26.8,23,46,23c19.2,0,40.2-11.5,46-23c9.6-19.2,13.4-19.2,23,0c5.7,11.5,26.8,23,46,23c19.2,0,40.2-11.5,46-23c9.6-19.2,13.4-19.2,23,0c5.7,11.5,26.8,23,46,23c19.2,0,40.2-11.5,46-23c9.6-19.2,13.4-19.2,23,0c5.7,11.5,26.8,23,46,23c19.2,0,40.2-11.5,46-23c9.6-19.2,13.4-19.2,23,0c5.7,11.5,26.8,23,46,23s40.2-11.5,46-23c9.6-19.2,13.4-19.2,23,0c5.7,11.5,26.8,23,46,23c19.2,0,40.2-11.5,46-23c9.6-19.2,13.4-19.2,23,0c5.7,11.5,26.8,23,46,23s40.2-11.5,46-23c9.6-19.2,13.4-19.2,23,0c5.7,11.5,26.8,23,46,23c19.2,0,40.2-11.5,46-23c9.6-19.2,13.4-19.2,23,0c5.7,11.5,26.8,23,46,23s40.2-11.5,46-23c9.6-19.2,13.4-19.2,23,0c5.7,11.5,26.8,23,46,23c19.2,0,40.2-11.5,46-23c9.6-19.2,13.4-19.2,23,0c5.7,11.5,26.8,23,46,23c19.2,0,40.2-11.5,46-23c9.6-19.2,13.4-19.2,23,0c5.7,11.5,26.8,23,46,23c19.2,0,40.2-11.5,46-23c9.6-19.2,13.4-19.2,23,0c5.7,11.5,26.8,23,46,23c19.2,0,40.2-11.5,46-23c9.6-19.2,13.4-19.2,23,0c5.7,11.5,26.8,23,46,23c19.2,0,40.2-11.5,46-23c9.6-19.2,13.4-19.2,23,0c5.7,11.5,26.8,23,46,23s40.2-11.5,46-23c9.6-19.2,13.4-19.2,23,0c5.7,11.5,26.8,23,46,23s40.2-11.5,46-23c9.6-19.2,13.4-19.2,23,0c5.7,11.5,26.8,23,46,23c19.2,0,40.2-11.5,46-23c9.6-19.2,13.4-19.2,23,0c5.7,11.5,26.8,23,46,23c19.2,0,40.2-11.5,46-23c9.6-19.2,13.4-19.2,23,0c5.7,11.5,26.8,23,46,23s40.2-11.5,46-23c9.6-19.2,13.4-19.2,23,0c5.7,11.5,26.8,23,46,23s40.2-11.5,46-23c9.6-19.2,13.4-19.2,23,0c5.8,11.5,26.8,23,46,23c19.2,0,40.2-11.5,46-23c9.6-19.2,13.4-19.2,23,0c5.8,11.5,26.8,23,46,23s40.2-11.5,46-23c9.6-19.2,13.4-19.2,23,0c5.8,11.5,26.8,23,46,23s40.2-11.5,46-23c9.6-19.2,13.4-19.2,23,0c5.8,11.5,26.8,23,46,23c19.2,0,40.2-11.5,46-23c9.6-19.2,13.4-19.2,23,0c5.8,11.5,26.8,23,46,23c19.2,0,40.2-11.5,46-23c9.6-19.2,13.4-19.2,23,0c5.8,11.5,26.8,23,46,23s40.2-11.5,46-23c9.6-19.2,13.4-19.2,23,0c5.8,11.5,26.8,23,46,23s40.2-11.5,46-23c9.6-19.2,13.4-19.2,23,0c5.8,11.5,26.8,23,46,23c19.2,0,40.2-11.5,46-23c9.6-19.2,13.4-19.2,23,0c5.8,11.5,26.8,23,46,23c19.2,0,40.2-11.5,46-23c9.6-19.2,13.4-19.2,23,0c5.8,11.5,26.8,23,46,23s40.2-11.5,46-23c9.6-19.2,13.4-19.2,23,0c5.8,11.5,26.8,23,46,23s40.2-11.5,46-23c9.6-19.2,13.4-19.2,23,0c5.8,11.5,26.8,23,46,23c19.2,0,40.2-11.5,46-23c9.6-19.2,13.4-19.2,23,0c5.8,11.5,26.8,23,46,23s40.2-11.5,46-23c9.6-19.2,13.4-19.2,23,0c5.8,11.5,26.8,23,46,23s40.2-11.5,46-23c9.6-19.2,13.4-19.2,23,0c5.8,11.5,26.8,23,47.9,23c26.8,0,36.4-13.4,36.4-47.9v-47.9H4999.9H2375.2v47.9c0,34.5,9.6,47.9,36.4,47.9C2432.7,1920.6,2453.8,1909.1,2459.5,1897.6z M7624.5,1547c0-34.5-9.6-47.9-36.4-47.9c-21.1,0-42.1,11.5-47.9,24.9c-9.6,19.2-13.4,19.2-23,0c-5.8-13.4-26.8-24.9-46-24.9s-40.2,11.5-46,24.9c-9.6,19.2-13.4,19.2-23,0c-5.8-13.4-26.8-24.9-46-24.9s-40.2,11.5-46,24.9c-9.6,19.2-13.4,19.2-23,0c-5.8-13.4-26.8-24.9-46-24.9c-19.2,0-40.2,11.5-46,24.9c-9.6,19.2-13.4,19.2-23,0c-5.8-13.4-26.8-24.9-46-24.9s-40.2,11.5-46,24.9c-9.6,19.2-13.4,19.2-23,0c-5.8-13.4-26.8-24.9-46-24.9s-40.2,11.5-46,24.9c-9.6,19.2-13.4,19.2-23,0c-5.8-13.4-26.8-24.9-46-24.9c-19.2,0-40.2,11.5-46,24.9c-9.6,19.2-13.4,19.2-23,0c-5.8-13.4-26.8-24.9-46-24.9c-19.2,0-40.2,11.5-46,24.9c-9.6,19.2-13.4,19.2-23,0c-5.8-13.4-26.8-24.9-46-24.9s-40.2,11.5-46,24.9c-9.6,19.2-13.4,19.2-23,0c-5.8-13.4-26.8-24.9-46-24.9s-40.2,11.5-46,24.9c-9.6,19.2-13.4,19.2-23,0c-5.8-13.4-26.8-24.9-46-24.9c-19.2,0-40.2,11.5-46,24.9c-9.6,19.2-13.4,19.2-23,0c-5.8-13.4-26.8-24.9-46-24.9c-19.2,0-40.2,11.5-46,24.9c-9.6,19.2-13.4,19.2-23,0c-5.8-13.4-26.8-24.9-46-24.9s-40.2,11.5-46,24.9c-9.6,19.2-13.4,19.2-23,0c-5.8-13.4-26.8-24.9-46-24.9s-40.2,11.5-46,24.9c-9.6,19.2-13.4,19.2-23,0c-5.8-13.4-26.8-24.9-46-24.9c-19.2,0-40.2,11.5-46,24.9c-9.6,19.2-13.4,19.2-23,0c-5.7-13.4-26.8-24.9-46-24.9s-40.2,11.5-46,24.9c-9.6,19.2-13.4,19.2-23,0c-5.7-13.4-26.8-24.9-46-24.9s-40.2,11.5-46,24.9c-9.6,19.2-13.4,19.2-23,0c-5.7-13.4-26.8-24.9-46-24.9c-19.2,0-40.2,11.5-46,24.9c-9.6,19.2-13.4,19.2-23,0c-5.7-13.4-26.8-24.9-46-24.9c-19.2,0-40.2,11.5-46,24.9c-9.6,19.2-13.4,19.2-23,0c-5.7-13.4-26.8-24.9-46-24.9s-40.2,11.5-46,24.9c-9.6,19.2-13.4,19.2-23,0c-5.7-13.4-26.8-24.9-46-24.9s-40.2,11.5-46,24.9c-9.6,19.2-13.4,19.2-23,0c-5.8-13.4-26.8-24.9-46-24.9c-19.2,0-40.2,11.5-46,24.9c-9.6,19.2-13.4,19.2-23,0c-5.7-13.4-26.8-24.9-46-24.9c-19.2,0-40.2,11.5-46,24.9c-9.6,19.2-13.4,19.2-23,0c-5.7-13.4-26.8-24.9-46-24.9c-19.2,0-40.2,11.5-46,24.9c-9.6,19.2-13.4,19.2-23,0c-5.7-13.4-26.8-24.9-46-24.9c-19.2,0-40.2,11.5-46,24.9c-9.6,19.2-13.4,19.2-23,0c-5.7-13.4-26.8-24.9-46-24.9c-19.2,0-40.2,11.5-46,24.9c-9.6,19.2-13.4,19.2-23,0c-5.7-13.4-26.8-24.9-46-24.9s-40.2,11.5-46,24.9c-9.6,19.2-13.4,19.2-23,0c-5.7-13.4-26.8-24.9-46-24.9c-19.2,0-40.2,11.5-46,24.9c-9.6,19.2-13.4,19.2-23,0c-5.7-13.4-26.8-24.9-46-24.9s-40.2,11.5-46,24.9c-9.6,19.2-13.4,19.2-23,0c-5.7-13.4-26.8-24.9-46-24.9c-19.2,0-40.2,11.5-46,24.9c-9.6,19.2-13.4,19.2-23,0c-5.7-13.4-26.8-24.9-46-24.9s-40.2,11.5-46,24.9c-9.6,19.2-13.4,19.2-23,0c-5.7-13.4-26.8-24.9-46-24.9c-19.2,0-40.2,11.5-46,24.9c-9.6,19.2-13.4,19.2-23,0c-5.7-13.4-26.8-24.9-46-24.9c-19.2,0-40.2,11.5-46,24.9c-9.6,19.2-13.4,19.2-23,0c-5.7-13.4-26.8-24.9-46-24.9c-19.2,0-40.2,11.5-46,24.9c-9.6,19.2-13.4,19.2-23,0c-5.7-13.4-26.8-24.9-46-24.9c-19.2,0-40.2,11.5-46,24.9c-9.6,19.2-13.4,19.2-23,0c-5.7-13.4-26.8-24.9-46-24.9c-19.2,0-40.2,11.5-46,24.9c-9.6,19.2-13.4,19.2-23,0c-5.7-13.4-26.8-24.9-46-24.9c-19.2,0-40.2,11.5-46,24.9c-9.6,19.2-13.4,19.2-23,0c-5.7-13.4-26.8-24.9-46-24.9c-19.2,0-40.2,11.5-46,24.9c-9.6,19.2-13.4,19.2-23,0c-5.7-13.4-26.8-24.9-46-24.9c-19.2,0-40.2,11.5-46,24.9c-9.6,19.2-13.4,19.2-23,0c-5.7-13.4-26.8-24.9-46-24.9c-19.2,0-40.2,11.5-46,24.9c-9.6,19.2-13.4,19.2-23,0c-5.7-13.4-26.8-24.9-46-24.9c-19.2,0-40.2,11.5-46,24.9c-9.6,19.2-13.4,19.2-23,0c-5.7-13.4-26.8-24.9-46-24.9s-40.2,11.5-46,24.9c-9.6,19.2-13.4,19.2-23,0c-5.7-13.4-26.8-24.9-46-24.9c-19.2,0-40.2,11.5-46,24.9c-9.6,19.2-13.4,19.2-23,0c-5.7-13.4-26.8-24.9-46-24.9s-40.2,11.5-46,24.9c-9.6,19.2-13.4,19.2-23,0c-5.7-13.4-26.8-24.9-46-24.9c-19.2,0-40.2,11.5-46,24.9c-9.6,19.2-13.4,19.2-23,0c-5.7-13.4-26.8-24.9-47.9-24.9c-26.8,0-36.4,13.4-36.4,47.9v47.9h2624.7h2624.7V1547z M3710.5,1370.8c-5.8-30.6-32.6-208.8-61.3-398.5s-55.6-346.8-57.5-350.6c-1.9-1.9-49.8,17.2-107.3,42.1c-185.8,86.2-348.7,115-639.9,113c-172.4,0-321.9-11.5-419.6-30.6c-84.3-17.3-155.2-28.7-160.9-24.9c-3.8,3.8,15.3,155.2,42.1,335.3c26.8,178.2,49.8,335.3,49.8,346.8c0,13.4,222.2,19.2,682,19.2H3722L3710.5,1370.8z M3837,1361.2c-5.7-34.5-17.2-67.1-23-72.8c-5.8-5.7-11.5-51.7-11.5-101.5c0-59.4-11.5-99.6-28.7-111.1c-19.2-13.4-21.1-23-7.7-28.7c26.8-11.5,3.8-166.7-30.7-206.9c-13.4-17.2-15.3-30.7-3.8-30.7c23,0,5.8-157.1-19.2-174.3c-9.6-5.7-11.5-24.9-3.8-42.1c13.4-38.3,1.9-40.2-51.7-13.4c-28.7,15.3-34.5,32.6-24.9,72.8c7.7,28.7,19.2,55.6,24.9,61.3c5.8,5.7,13.4,47.9,13.4,95.8c3.8,105.4,24.9,285.5,40.2,325.7c5.7,15.3,13.4,67.1,17.2,115c5.7,46,17.2,90,28.7,95.8c9.6,7.7,13.4,26.8,5.7,44.1c-9.6,24.9,0,32.6,38.3,32.6C3844.6,1422.5,3848.5,1416.7,3837,1361.2z M4980.7-158v-1580.5h-224.2c-180.1,0-243.3,7.7-304.6,36.4l-78.5,36.4l-11.5,436.8c-11.5,471.3-42.2,737.6-120.7,1013.5c-76.6,273.9-145.6,394.7-325.7,582.4c-88.1,90-160.9,178.2-160.9,193.5c0,15.3,26.8,216.5,61.3,446.4l63.2,415.7H4429h551.8V-158z M6178.1,1198.3c19.2-124.5,47.9-319.9,65.1-434.9l30.6-208.8l-174.3-174.3c-195.4-195.4-260.6-308.4-341-590.1c-74.7-260.5-111.1-561.3-124.5-1030.7l-11.5-431.1l-57.5-28.7c-40.2-19.2-132.2-30.7-300.8-34.5l-245.2-7.7V-160v1582.5h563.2h561.3L6178.1,1198.3z M6272,1374.6c7.6-26.8,7.6-57.5,0-69c-5.8-9.6-1.9-30.7,9.6-44.1c11.5-13.4,23-72.8,26.8-130.3c5.7-59.4,13.4-114.9,19.2-124.5s15.3-63.2,21.1-120.7c5.7-57.5,19.2-141.8,28.7-187.7c13.4-70.9,11.5-84.3-23-109.2c-23-15.3-42.1-26.8-44.1-23c-7.7,7.7-32.6,216.5-34.5,291.2c-1.9,42.2-9.6,82.4-17.2,88.1c-9.6,5.7-17.2,63.2-19.2,124.5c-1.9,61.3-9.6,118.8-19.2,124.5c-7.7,5.7-17.3,59.4-21.1,118.8c-7.6,95.8-3.8,109.2,26.8,109.2C6247.1,1422.5,6264.3,1403.3,6272,1374.6z M7689.7,1075.7c28.7-191.6,47.9-350.6,44.1-354.4c-3.8-3.8-74.7,5.8-159,23c-369.8,70.9-741.4,47.9-1017.3-61.3c-67.1-26.8-126.4-46-130.3-42.1c-5.8,5.7-124.5,741.4-124.5,770.2c0,5.8,300.8,11.5,666.7,11.5h668.6L7689.7,1075.7z M3151.1,725.1c114.9-13.4,239.5-51.7,239.5-72.8c0-9.6,11.5-15.3,24.9-9.6c11.5,3.8,55.6-7.7,95.8-28.7c49.8-24.9,70.9-47.9,70.9-78.5c-1.9-40.2-1.9-40.2-28.7-5.8c-15.3,21.1-32.6,32.6-40.2,26.8c-5.7-7.7-69,11.5-141.8,42.1s-187.7,59.4-256.7,67.1c-69,7.7-126.4,19.2-126.4,26.8c0,15.3-314.2,15.3-325.7-1.9c-5.7-7.7-61.3-15.3-124.5-19.2c-63.2-3.8-118.8-9.6-124.5-15.3c-5.7-5.7-46-19.2-92-30.7c-72.8-19.2-82.4-19.2-76.6,9.6c5.7,19.2,23,28.7,49.8,26.8c23-3.8,42.2,1.9,42.2,11.5c0,21.1,72.8,38.3,191.6,49.8c44.1,3.8,86.2,11.5,92,19.2C2631.9,753.9,3028.5,742.4,3151.1,725.1z M7490.4,713.6c7.7-13.4,24.9-17.2,36.4-9.6c32.6,19.2,214.6-28.7,226.1-61.3c15.3-40.2,0-46-59.4-15.3c-28.7,15.3-59.4,24.9-67.1,21.1c-5.7-3.8-67.1,3.8-136,15.3c-69,13.4-185.8,26.8-258.6,28.7c-72.8,1.9-139.9,9.6-147.5,13.4c-9.6,5.7-28.7,1.9-42.2-9.6c-13.4-11.5-86.2-23-162.8-26.8c-74.7-1.9-136-9.6-136-15.3c0-19.2-228-97.7-249.1-84.3c-11.5,5.7-19.2-1.9-19.2-17.2c0-17.2-7.7-30.7-19.2-30.7c-9.6,0-19.2,17.2-19.2,38.3c0,24.9,23,47.9,69,67.1c36.4,15.3,72.8,26.8,80.5,24.9c7.7,0,46,13.4,86.2,30.7c42.1,17.2,113,34.5,159,38.3c46,1.9,90,11.5,97.7,19.2C6955.9,765.4,7473.2,740.5,7490.4,713.6z M3227.7,570c319.9-88.1,634.1-337.2,764.4-607.3c111.1-229.9,174.3-549.8,214.6-1069c7.7-103.5,5.7-155.2-5.8-143.7c-11.5,11.5-70.9,97.7-136,191.6C3835.1-717.5,3457.6-296,3126.2-8.6c-189.7,164.8-630.3,515.4-689.7,547.9c-46,26.8-24.9,38.3,103.5,59.4C2699,623.6,3089.8,606.4,3227.7,570z M7534.5,587.2c67.1-15.3,65.1-26.8-15.3-78.5c-36.4-24.9-197.3-149.4-358.3-277.8C6674.3-158,6193.4-667.7,5906-1100.7c-59.4-88.1-111.1-155.2-114.9-151.3c-11.5,11.5,28.7,490.5,53.6,643.7c82.4,503.8,228,774,524.9,988.5c249.1,176.3,492.4,241.4,862.1,228C7369.7,604.4,7503.8,594.9,7534.5,587.2z M2403.9,512.5c26.8-24.9,47.9-42.1,47.9-36.4c0,15.3,174.3-113,199.2-145.6c11.5-15.3,44.1-40.2,72.8-55.6c30.6-15.3,92-65.1,139.8-111.1c47.9-44.1,92-82.4,97.7-82.4c26.8,0,218.4-182,218.4-208.8c0-15.3,5.7-21.1,13.4-13.4c11.5,11.5,427.2-387,427.2-410c0-5.8,44.1-57.5,95.8-113c53.6-57.5,93.9-105.4,90-109.2c-3.8-3.8,30.6-47.9,74.7-95.8c46-47.9,88.1-103.4,93.9-122.6c5.7-21.1,36.4-63.2,69-97.7c30.7-32.6,61.3-80.5,67.1-105.4c5.7-24.9,17.2-46,24.9-46c30.7,0,78.5-118.8,78.5-193.5c0-76.6-1.9-78.6-28.7-44.1c-15.3,19.2-28.7,57.5-28.7,82.4s-5.7,40.2-13.4,34.5c-15.3-17.3-99.6,118.8-101.5,164.7c0,17.3-7.7,32.6-17.2,32.6c-21.1,0-155.2,182-155.2,210.7c0,11.5-7.7,19.2-15.3,19.2c-7.7,0-49.8,46-90,101.5c-42.1,53.7-114.9,141.8-162.8,191.6c-46,49.8-92,101.6-99.6,115c-5.7,13.4-84.3,92-170.5,176.3C3245-265.3,3135.8-160,3089.8-114c-44.1,44.1-88.1,80.5-95.8,80.5c-9.6,0-67.1,47.9-128.4,105.4c-63.2,57.5-116.9,105.4-120.7,105.4c-24.9,0-214.6,160.9-205,174.3c5.7,9.6-3.8,17.2-21.1,17.2s-82.4,36.4-145.6,80.5c-93.9,67.1-107.3,84.3-80.5,95.8C2346.5,566.1,2354.1,564.2,2403.9,512.5z M3697.1,472.2c0-46-1.9-46-46-17.2c-30.7,21.1-42.2,42.1-36.4,67.1C3630.1,575.7,3697.1,535.5,3697.1,472.2z M6398.4,522.1c0-19.2-17.3-46-38.3-57.5c-32.6-17.2-38.3-15.3-38.3,26.8c0,42.2,19.2,63.2,63.2,67.1C6392.7,560.4,6398.4,543.1,6398.4,522.1z M7708.8,543.1c28.7-11.5,23-21.1-47.9-69c-46-30.7-90-57.5-97.7-57.5c-7.6,0-24.9-13.4-38.3-30.7c-30.6-38.3-168.6-141.8-168.6-126.4c0,5.8-44.1-30.6-99.6-84.3c-53.6-51.7-103.4-93.9-111.1-93.9c-5.8,0-53.6-38.3-103.5-86.2C6990.4-52.7,6936.7-91,6923.3-91c-15.3,0-26.8-11.5-26.8-24.9c0-28.7-137.9-147.5-170.5-147.5c-11.5,0-21.1-9.6-21.1-23c0-30.6-155.2-187.7-183.9-187.7c-13.4,0-28.7-21.1-34.5-46c-5.7-24.9-47.9-78.5-92-118.8c-46-40.2-82.4-78.6-82.4-84.3c0-26.8-136-189.7-157.1-191.6c-13.4,0-24.9-13.4-24.9-30.7c0-38.3-111.1-193.5-147.5-206.9c-15.3-5.8-23-19.2-15.3-28.7c11.5-19.2-103.5-220.3-134.1-233.7c-9.6-3.8-15.3-21.1-13.4-40.2c3.8-17.2-3.8-36.4-15.3-44c-11.5-7.7-19.2,19.2-19.2,74.7c0,63.2,11.5,99.6,38.3,126.5c21.1,21.1,38.3,49.8,38.3,63.2c0,11.5,32.6,67.1,72.8,118.8c38.3,53.6,95.8,134.1,128.4,180.1c30.6,46,76.6,95.8,99.6,111.1c24.9,15.3,40.2,36.4,34.5,44.1c-5.7,7.6,34.5,61.3,90,116.9c53.6,57.5,99.6,109.2,99.6,116.9c3.8,26.8,364,377.4,379.3,367.8c7.6-5.8,15.3,1.9,15.3,19.2c0,32.6,147.5,164.8,185.8,164.8c13.4,0,24.9,11.5,24.9,24.9c0,30.7,141.8,147.5,180.1,147.5c17.2,0,30.6,11.5,30.6,24.9c0,21.1,160.9,155.2,191.6,157.1c5.7,1.9,44.1,34.5,84.3,72.8c42.1,38.3,92,70.9,109.2,70.9c17.3,0,36.4,13.4,44.1,28.7C7643.7,562.3,7655.2,564.2,7708.8,543.1z M6220.2,355.4c-44.1-46-90-82.4-103.5-82.4c-13.4,0-24.9-7.7-24.9-19.2c0-26.8-139.8-229.9-159-229.9c-7.7,0-11.5-7.7-5.8-15.3c7.7-13.4-24.9-122.6-78.5-252.9c-5.7-15.3-13.4-42.2-17.2-57.5c-42.1-216.5-55.5-268.2-63.2-268.2c-5.7,0-13.4-74.7-17.2-168.6c-1.9-92-11.5-168.6-19.2-172.4c-9.6-1.9-11.5-55.6-7.7-118.8c3.8-63.2,1.9-128.4-5.8-147.5c-7.7-19.2-13.4-126.4-11.5-239.5c0-113-7.6-210.7-15.3-216.5c-28.7-17.2-42.1,160.9-30.6,354.4c7.7,99.6,15.3,247.1,19.2,325.7c17.2,295,47.9,517.3,70.9,517.3c11.5,0,13.4,13.4,7.6,30.6c-11.5,30.6,32.6,231.8,65.1,291.2c7.7,19.2,30.6,72.8,47.9,122.6c17.2,47.9,51.7,111.1,76.6,139.9c26.8,26.8,47.9,55.6,47.9,65.1c0,23,136,174.3,155.2,174.3c11.5,0,42.1,26.8,70.9,59.4c44.1,53.6,51.7,57.5,63.2,24.9C6294.9,445.4,6277.7,414.8,6220.2,355.4z M3764.2,445.4c-5.7-7.7,11.5-21.1,36.4-26.8c51.7-13.4,164.8-132.2,164.8-174.3c0-15.3,11.5-28.7,24.9-28.7c30.7,0,136-168.6,134.1-214.6c-1.9-19.2,3.8-34.5,13.4-34.5c19.2,0,82.4-197.3,82.4-249.1c0-15.3,5.8-36.4,13.4-47.9c24.9-34.5,65.1-314.2,67.1-463.7c0-55.5,7.7-101.5,15.3-101.5c9.6,0,15.3-70.9,13.4-157.1c0-88.1,5.7-208.8,11.5-272c9.6-84.3,5.7-115-13.4-128.4c-23-15.3-23-19.2,0-34.5c17.2-11.5,21.1-34.5,11.5-76.6c-24.9-113-49.8-61.3-49.8,99.6c0,86.2-1.9,222.2-7.7,300.8c-3.8,78.5-11.5,205-15.3,279.7c-5.8,74.7-13.4,143.7-17.3,153.3c-5.7,9.6-17.2,69-24.9,132.2c-7.7,63.2-26.8,166.7-42.1,229.9c-17.2,63.2-32.6,128.3-34.5,143.7c-1.9,15.3-26.8,80.4-57.5,143.7c-28.7,63.2-53.6,126.4-53.6,139.8c0,13.4-42.2,69-92,122.6c-49.8,55.6-90,103.5-88.1,109.2c1.9,7.7-1.9,11.5-9.6,11.5c-32.6,0-111.1,97.7-111.1,137.9c0,26.8,7.7,40.2,19.2,34.5C3766.1,466.5,3769.9,455,3764.2,445.4z"/><path d="M2413.5,1345.9c0-9.6,9.6-19.2,19.2-19.2c11.5,0,19.2,9.6,19.2,19.2c0,11.5-7.7,19.2-19.2,19.2C2423.1,1365,2413.5,1357.3,2413.5,1345.9z"/><path d="M2377.1,1131.3c-11.5-88.1-26.8-191.6-32.6-229.9c-7.7-44.1-5.7-72.8,5.8-72.8c11.5,0,28.7,74.7,42.1,168.6c11.5,92,26.8,195.4,32.6,229.9c7.7,34.5,3.8,61.3-5.8,61.3C2407.8,1288.4,2390.5,1217.5,2377.1,1131.3z"/><path d="M4432.8-1639c21.1-34.5,143.7-61.3,275.9-61.3c174.3,0,145.6,32.5-38.3,44c-88.1,3.8-180.1,15.3-205,23C4432.8-1621.7,4423.2-1623.6,4432.8-1639z"/><path d="M4865.8-1681.1c0-9.6,9.6-19.2,19.2-19.2c11.5,0,19.2,9.6,19.2,19.2c0,11.5-7.7,19.2-19.2,19.2C4875.3-1662,4865.8-1669.6,4865.8-1681.1z"/><path d="M5488.4-1642.8c-21.1-9.6-101.5-17.2-176.3-17.2c-80.5-1.9-139.9-9.6-139.9-21.1c0-46,364-9.6,392.7,38.3C5578.4-1619.8,5540.1-1619.8,5488.4-1642.8z"/></g></g>
</svg>